<?xml version="1.0" encoding="utf-8"?>
<!-- Generator: Adobe Illustrator 27.5.0, SVG Export Plug-In . SVG Version: 6.00 Build 0)  -->
<svg version="1.1" xmlns="http://www.w3.org/2000/svg" xmlns:xlink="http://www.w3.org/1999/xlink" x="0px" y="0px"
	 viewBox="0 0 500 500" style="enable-background:new 0 0 500 500;" xml:space="preserve">
<g id="Floor">
	<ellipse id="Floor_4_" style="fill:#F5F5F5;" cx="250" cy="345.597" rx="223.873" ry="137.001"/>
</g>
<g id="Plants">
	<g id="Plants_7_">
		<g id="XMLID_1259_">
			<g id="XMLID_2342_">
				<path id="XMLID_4044_" style="fill:#27DEBF;" d="M64.779,277.92l7.998-4.347c0,0,4.234-20.806,1.781-38.82
					c-3.449-25.327-20.451-34.399-26.747-32.023c-6.295,2.377-7.922,9.823,3.042,24.648C57.322,236.125,65.49,254.498,64.779,277.92
					z"/>
			</g>
			<g id="XMLID_1394_" style="opacity:0.15;">
				<path id="XMLID_1395_" d="M64.779,277.92l7.998-4.347c0,0,4.234-20.806,1.781-38.82c-3.449-25.327-20.451-34.399-26.747-32.023
					c-6.295,2.377-7.922,9.823,3.042,24.648C57.322,236.125,65.49,254.498,64.779,277.92z"/>
			</g>
			<g id="XMLID_1392_">
				<path id="XMLID_1393_" style="fill:#FFFFFF;" d="M69.452,267.522c-0.026,0.001-0.052-0.001-0.078-0.003
					c-0.309-0.033-0.534-0.311-0.5-0.62c2.54-23.727-7.755-49.321-18.751-59.426c-0.229-0.21-0.244-0.567-0.033-0.796
					c0.211-0.227,0.567-0.244,0.796-0.033c11.196,10.289,21.686,36.299,19.108,60.375C69.964,267.302,69.729,267.514,69.452,267.522
					z"/>
			</g>
		</g>
		<g id="XMLID_1226_">
			<g id="XMLID_1240_">
				<path id="XMLID_1241_" style="fill:#27DEBF;" d="M46.299,295.644c-1.19,0.811-3.877-0.554-4.911-1.138
					c-1.77-0.999-3.257-2.493-4.302-4.231c-1.216-2.023-1.656-4.258-1.506-6.612c0.078-1.221,0.325-2.424,0.571-3.622
					c0.242-1.176,0.484-2.353,0.726-3.529c0.239-1.161,0.478-2.361,0.237-3.521c-0.484-2.338-2.708-3.83-4.723-5.109
					c-2.229-1.415-4.583-3.328-4.791-6.171c-0.16-2.194,0.818-4.318,2.045-6.144c1.226-1.826,2.722-3.471,3.81-5.383
					c0.783-1.376,1.354-2.966,1.089-4.527c-0.165-0.97-0.641-1.859-1.175-2.685c-1.147-1.773-2.602-3.366-3.447-5.301
					c-0.846-1.935-0.938-4.415,0.504-5.958c1.184-1.266,3.064-1.575,4.797-1.594c1.603-0.018,3.217,0.582,4.672,1.25
					c4.706,2.161,7.694,7.306,12.631,8.867c1.904,0.602,3.94,0.609,5.905,0.969c1.965,0.36,4.003,1.192,5.032,2.904
					c2.029,3.375-0.899,7.954,0.624,11.585c1.348,3.214,4.65,4.228,6.679,7.061c0.887,1.24,1.185,2.728,1.175,4.252
					c-0.017,2.58-0.247,4.49-1.257,7.436C69.85,276.878,68,280.5,68,280.5C67.931,280.58,46.481,295.52,46.299,295.644z"/>
			</g>
			<g id="XMLID_1229_">
				<path id="XMLID_1230_" style="fill:#FFFFFF;" d="M58.565,287.841c-0.008,0.001-0.015,0.001-0.015,0.001
					c-0.319,0.011-0.58-0.232-0.592-0.543c-0.794-22.379-13.205-46.194-21.401-52.759c-0.243-0.194-0.282-0.549-0.088-0.792
					c0.195-0.243,0.549-0.281,0.792-0.088c8.36,6.697,21.017,30.905,21.823,53.599C59.096,287.563,58.865,287.818,58.565,287.841z"
					/>
			</g>
			<g id="XMLID_1227_">
				<path id="XMLID_1228_" style="fill:#FFFFFF;" d="M53.188,261.745c-0.055,0.004-0.111,0.001-0.168-0.013
					c-7.338-1.662-16.301-1.363-16.39-1.36c-0.311,0.011-0.572-0.233-0.584-0.543c-0.011-0.311,0.205-0.573,0.543-0.584
					c0.091-0.003,9.196-0.307,16.679,1.388c0.303,0.068,0.494,0.37,0.425,0.674C53.638,261.555,53.429,261.726,53.188,261.745z"/>
			</g>
		</g>
	</g>
	<g id="Plants_5_">
		<g id="XMLID_1102_">
			<path id="XMLID_1225_" style="fill:#27DEBF;" d="M448.792,290.843l-9.302-5.895c0,0-4.557-17.581-5.391-33.249
				c-1.172-22.017,7.281-50.319,24.928-46.734c17.646,3.585-3.366,29.389-5.99,48.614
				C450.413,272.804,448.792,290.843,448.792,290.843z"/>
			<path id="XMLID_1224_" style="opacity:0.15;" d="M448.792,290.843l-9.302-5.895c0,0-4.557-17.581-5.391-33.249
				c-1.172-22.017,7.281-50.319,24.928-46.734c17.646,3.585-3.366,29.389-5.99,48.614
				C450.413,272.804,448.792,290.843,448.792,290.843z"/>
			<path id="XMLID_1223_" style="fill:#FFFFFF;" d="M443.553,289.326c0.006-0.001,0.012-0.002,0.019-0.003
				c0.309-0.058,0.513-0.356,0.455-0.666c-8.974-47.952,11.328-75.852,11.534-76.127c0.189-0.253,0.137-0.61-0.115-0.798
				c-0.255-0.188-0.612-0.136-0.798,0.115c-0.209,0.281-20.806,28.582-11.742,77.02C442.963,289.17,443.25,289.372,443.553,289.326z
				"/>
		</g>
		<g id="XMLID_486_">
			<path id="XMLID_1101_" style="fill:#27DEBF;" d="M454,294.5l-7-4c0,0-3.069-12.891,1.107-30.529
				c3.636-15.355,16.294-29.562,23.964-28.149c7.67,1.412,8.275,6.607,5.548,12.567C474.893,250.349,454.903,267.126,454,294.5z"/>
			<path id="XMLID_1096_" style="fill:#FFFFFF;" d="M450.63,293.011l0.003,0c0.311-0.049,0.524-0.34,0.475-0.652
				c-4.772-30.456,20.708-55.411,20.966-55.66c0.226-0.218,0.233-0.579,0.014-0.806c-0.216-0.226-0.576-0.236-0.806-0.014
				c-0.262,0.252-26.164,25.621-21.301,56.657C450.031,292.845,450.321,293.058,450.63,293.011z"/>
		</g>
	</g>
</g>
<g id="Shadows">
	<ellipse id="Shadow" style="fill:#E0E0E0;" cx="167.72" cy="372.713" rx="79.599" ry="45.957"/>
	<path id="Shadow_1_" style="fill:#E0E0E0;" d="M337.109,434.942c-2.691,0-5.227-1.038-6.956-2.849l-100.72-105.467
		c-4.322-4.529-6.702-10.32-6.702-16.309c0-1.06,0.076-2.128,0.227-3.178c1.006-7.014,5.269-13.164,11.694-16.874l2.989-1.726
		c4.619-2.667,10.447-4.135,16.41-4.135c5.965,0,11.793,1.469,16.41,4.136l141.18,81.486l7.484,4.273
		c2.104,1.202,3.311,3.056,3.311,5.085c-0.002,2.029-1.21,3.881-3.316,5.081l-8.942,5.095c-1.836,1.046-4.348,1.646-6.89,1.646
		c0,0,0,0-0.001,0c-1.723,0-3.344-0.277-4.688-0.802L277.76,343.205l72.499,75.915c1.554,1.628,2.269,3.738,1.961,5.79
		c-0.308,2.052-1.61,3.859-3.574,4.959l-7.041,3.942C340.283,434.551,338.729,434.942,337.109,434.942z"/>
</g>
<g id="Character">
	<g id="Character_5_">
		<path style="fill:#B16668;" d="M174.401,108.859c9.189-0.615,13.635,2.366,17.587,7.143c3.952,4.777,22.555,38.178,22.555,38.178
			s38.589,1.035,45.941,3.324c7.352,2.289,11.512,6.471,13.014,9.016c1.503,2.545,1.866,5.648,0.865,9.773
			c-1.001,4.125-6.61,3.261-9.619,0c-3.009-3.261-6.37-5.688-9.516-7.466c-3.146-1.778-34.294,0.419-42.775,0.512
			c-8.481,0.094-10.07-3.426-15.268-10.468c-5.198-7.041-16.436-23.452-16.436-23.452L174.401,108.859z"/>
		<path style="fill:#455A64;" d="M171.635,108.723c8.267-0.684,13.755-0.169,18.491,4.385c4.736,4.554,20.87,33.46,20.87,33.46
			s-2.23,9.147-15.902,11.164l-20.694-27.725L171.635,108.723z"/>
		<g id="XMLID_392_">
			<g id="Character_3_">
				<g id="XMLID_394_">
					<g id="Botom_4_">
						<g id="XMLID_5039_">
							<g id="XMLID_5040_">
								<path id="XMLID_5064_" style="fill:#B16668;" d="M129.285,362.727c3.479,2.003,7.396,1.965,11.653,0.347l2.825-22.859
									l-14.724-3.386L129.285,362.727z"/>
								<path id="XMLID_5062_" style="fill:#B16668;" d="M172.555,350.303c2.793,6.545,6.879,4.408,13.077,0.454l0.412-22.577
									l-16.049-1.099L172.555,350.303z"/>
								<g>
									<path id="XMLID_5059_" style="fill:#263238;" d="M154.234,383.875c0.379,0.377,0.219,3.224-0.23,3.885
										c-0.482,0.709-3.004,2.875-7.793,3.075c-4.576,0.191-8.635-0.546-11.265-2.328c-2.63-1.782-3.872-3.698-4.047-6.306
										c-0.175-2.609,0.189-5.109-0.991-7.149c-1.09-1.883-2.565-3.729-2.933-4.743c-0.799-2.206-0.16-5.59-0.16-5.59
										L154.234,383.875z"/>
									<path id="XMLID_5058_" style="fill:#37474F;" d="M142.601,362.111c0.048,0.967,0.183,1.931,0.472,2.909
										c0.602,2.037,1.551,3.965,2.626,5.805c0.553,0.947,1.141,1.879,1.824,2.743c1.332,1.684,3.007,3.085,4.423,4.705
										c1.415,1.62,2.601,3.569,2.653,5.689c0.088,3.587-3.835,4.688-6.844,5.132c-3.212,0.474-6.618,0.202-9.711-0.777
										c-3.441-1.09-5.865-3.852-6.338-7.332c-0.136-0.999-0.044-2.014-0.132-3.018c-0.2-2.291-1.32-4.411-2.599-6.349
										c-0.742-1.124-1.552-2.224-2.035-3.474c-0.868-2.245-0.045-4.717,0.618-6.907c0.573-1.892,1.01-4.167,1.676-3.966
										c-0.009,0.384,0.012,1.224,0.012,1.224c0.208,0.422,0.693,0.716,0.817,1.203c0.13,0.509,0.281,1.013,0.5,1.491
										c0.335,0.729,0.84,1.404,1.537,1.801c0.085-1.351,0.17-2.701,0.255-4.052c0.026-0.418,0.067-0.871,0.348-1.182
										c0.285-0.315,0.739-0.398,1.159-0.464c2.544-0.395,5.135-0.791,7.68-0.406c0.382,0.058,0.802,0.159,1.015,0.48
										c0.175,0.264,0.162,0.605,0.143,0.921C142.62,359.591,142.538,360.853,142.601,362.111z"/>
									<path id="XMLID_5056_" style="fill:#F5F5F5;" d="M146.159,371.59c-1.304-1.038-4.292-1.141-5.931-1.015
										c-2.053,0.159-3.731,0.827-4.693,1.492c-0.426,0.295-1.008,0.225-1.364-0.149l0,0c-0.429-0.449-0.367-1.165,0.146-1.519
										c1.019-0.704,2.854-1.682,5.284-1.781c4.029-0.164,5.188,0.561,5.188,0.561S146.589,370.415,146.159,371.59z"/>
									<path id="XMLID_5053_" style="fill:#F5F5F5;" d="M149.117,375.351c-1.648-1.041-4.938-0.996-6.577-0.869
										c-2.053,0.158-3.607,0.918-4.568,1.583c-0.426,0.295-1.008,0.224-1.364-0.149l0,0c-0.429-0.449-0.367-1.165,0.146-1.519
										c1.019-0.704,2.971-1.833,5.401-1.931c4.029-0.163,5.053,0.689,5.053,0.689S148.883,373.861,149.117,375.351z"/>
									<path id="XMLID_5052_" style="fill:#F5F5F5;" d="M138.115,364.723c2.787-0.204,3.956,0.142,5.042,0.574
										c0.697,0.418,1.13,1.551,0.666,1.821c-0.88-0.523-2.486-0.778-4.462-0.749c-1.327,0.02-3.012,0.506-4.384,1.065
										c-0.349,0.142-0.762,0.345-1.124,0.531c-0.489,0.252-1.095,0.045-1.311-0.45l0,0c-0.183-0.42-0.023-0.909,0.383-1.138
										C133.914,365.818,135.863,364.888,138.115,364.723z"/>
								</g>
								<g>
									<path id="XMLID_5051_" style="fill:#263238;" d="M210.159,365.309c0.352,0.796,0.199,2.263-0.274,3.183
										c-0.473,0.919-5.427,3.521-11.984,2.883c-6.558-0.639-10.992-3.421-13.448-5.154c-2.456-1.733-5.055-2.121-8.304-2.404
										c-3.248-0.283-7.473-2.033-8.141-3.576c-0.669-1.543,0.231-4.14,0.231-4.14L210.159,365.309z"/>
									<path id="XMLID_5050_" style="fill:#37474F;" d="M184.192,345.17c0.575-0.191,1.149-0.383,1.724-0.574
										c0.316-0.105,0.666-0.21,0.975-0.083c0.415,0.171,0.565,0.671,0.664,1.109c0.202,0.895,0.262,2.05,0.632,2.876
										c0.336,0.75,1.188,1.454,1.786,1.991c1.554,1.396,3.354,2.507,5.158,3.547c2.113,1.218,4.189,2.175,6.376,3.238
										c2.23,1.084,5.213,1.795,6.946,3.04c2.527,1.815,2.73,6.191-0.259,7.828c-2.579,1.412-9.295,2.826-16.231,0.637
										c-3.778-1.193-7.886-5.39-12.875-5.93c-3.173-0.344-9.16-1.416-11.135-3.892c-0.725-1.094,0.386-4.459,1.303-7.365
										c1.001-3.172,1.509-8.301,2.56-7.988c0.175,1.7,0.93,1.844,1.463,2.754c0.47,0.803,0.721,1.712,1.066,2.576
										c0.345,0.864,0.819,1.723,1.594,2.238c0.775,0.515,1.912,0.578,2.58-0.07c0.966-0.938,0.462-2.654,1.178-3.794
										c0.486-0.773,1.42-1.114,2.286-1.402C182.721,345.66,183.456,345.415,184.192,345.17z"/>
									<path id="XMLID_5046_" style="fill:#F5F5F5;" d="M192.212,352.218c0,0-0.421-1.234-2.302-1.642
										c-1.439-0.313-4.027,0.678-5.654,1.939c-0.666,0.517-0.612,1.536,0.113,1.965l0,0c0.432,0.256,0.971,0.208,1.359-0.11
										C186.797,353.496,189.182,351.918,192.212,352.218z"/>
									<path id="XMLID_5045_" style="fill:#F5F5F5;" d="M196.622,354.863c0,0-0.891-1.489-2.74-1.516c0,0-3.782-0.004-6.186,2.107
										c-0.613,0.538-0.6,1.486,0.103,1.9l0,0c0.418,0.246,0.938,0.2,1.31-0.113C190.191,356.331,192.362,354.417,196.622,354.863
										z"/>
									<path id="XMLID_5042_" style="fill:#F5F5F5;" d="M201.507,357.274c0,0-1.002-1.354-2.852-1.381
										c0,0-3.525,0.027-5.928,2.137c-0.613,0.539-0.6,1.486,0.103,1.9l0,0c0.418,0.246,0.938,0.2,1.31-0.112
										C195.221,358.909,197.246,356.828,201.507,357.274z"/>
								</g>
								<path id="XMLID_5041_" style="fill:#455A64;" d="M134.673,186.34c-1.573,25.058-4.118,87.769-4.118,87.769
									c-0.358,3.113-1.508,12.303-2.076,23.536c-0.824,16.29,0.467,52.247,0.467,52.247s6.686,3.86,13.906,1.101
									c0,0,9.266-52.988,12.231-68.985c2.604-14.055,7.682-47.956,7.682-47.956l2.375,41.676c0,0-0.813,11.499,0.552,22.402
									c0.93,7.427,5.182,39.684,5.182,39.684s7.327,2.253,15.172-0.14c0,0,2.212-54.085,2.547-60.928
									c0.382-7.802,2.013-95.439,2.013-95.439L134.673,186.34z"/>
								<path style="fill:#263238;" d="M162.763,234.051l4.321-20.442c0,0,10.31-0.593,16.16-6.157c0,0-1.179,5.59-14.207,8.578
									l-4.326,20.686l-0.43,19.234L162.763,234.051z"/>
							</g>
						</g>
					</g>
					<g id="XMLID_396_">
						<path id="XMLID_5038_" style="fill:#27DEBF;" d="M139.401,111.767c-4.925,0.875-5.249,3.315-6.328,8.2
							c-0.536,2.426-1.729,7.638-1.255,12.007l2.532,29.099l-0.97,33.059c7.927,8.624,40.469,11.371,57.778-1.27
							c0,0-0.188-54.64-0.986-63.409c-1.395-15.32-8.344-20.766-18.536-20.73l-17.439,1.484L139.401,111.767z"/>
						<path id="XMLID_1095_" style="opacity:0.5;fill:#FFFFFF;" d="M139.401,111.767c-4.925,0.875-5.249,3.315-6.328,8.2
							c-0.536,2.426-1.729,7.638-1.255,12.007l2.532,29.099l-0.97,33.059c7.927,8.624,40.469,11.371,57.778-1.27
							c0,0-0.188-54.64-0.986-63.409c-1.395-15.32-8.344-20.766-18.536-20.73l-17.439,1.484L139.401,111.767z"/>
						<g id="XMLID_398_">
							<path id="XMLID_5034_" style="fill:#263238;" d="M157.828,73.041c0.029,8.549,6.984,15.456,15.533,15.426
								c8.549-0.03,15.456-6.984,15.426-15.533c-0.03-8.549-6.984-15.455-15.533-15.426
								C164.705,57.538,157.798,64.492,157.828,73.041z"/>
							<g id="XMLID_5008_">
								<path style="fill:#263238;" d="M152.983,76.065l-3.306-8.873c0,0-2.703-0.454-4.802,1.707
									c-2.057,2.119-0.882,8.723,1.712,15.186c0,0,2.549,11.776,3.562,13.709c1.012,1.933,3.093,2.476,3.093,2.476L152.983,76.065
									z"/>
								<path id="XMLID_5029_" style="fill:#B16668;" d="M152.731,84.611c-0.945,0.569-2.303-1.246-3.476-2.465
									c-1.173-1.218-4.993-2.876-6.882,1.14c-1.925,4.092,1.712,9.478,4.718,10.411c5.181,1.607,5.946-1.715,5.946-1.715
									l0.459,18.665c0,0,3.417,8.279,12.597,9.491c9.179,1.212,7.264-6.346,4.238-10.043l-0.034-5.681
									c0,0,4.692,0.695,6.978,0.334c3.804-0.602,6.188-3.612,7.328-7.736c1.831-6.623,2.517-11.968,0.899-24.975
									c-1.774-14.257-18.363-14.348-27.302-8.679C149.262,69.027,152.731,84.611,152.731,84.611z"/>
								<path id="XMLID_5028_" style="fill:#263238;" d="M152.829,85.864c-1.497-0.432-2.587-2.826-3.573-3.718
									c-1.639-1.481,0.422-14.954,0.422-14.954s-1.582-3.341,1.553-6.816c2.23-2.471,5.971-2.758,12.355-3.784
									c3.15-0.506,6.865-0.755,9.987-1.335c3.811-0.708,6.24-1.444,9.286-2.967c0.557-0.278,1.162-0.586,1.772-0.46
									c0.493,0.101,0.896,0.483,1.116,0.935c0.219,0.452,0.274,0.968,0.259,1.471c-0.016,0.529-0.108,1.054-0.269,1.558
									c-0.095,0.299-0.711,1.206-0.58,1.468c0.324,0.649,2.779-0.444,3.27-0.59c0.118-0.035,0.249-0.07,0.361-0.018
									c0.094,0.043,0.151,0.137,0.198,0.229c0.792,1.54,0.504,3.689-0.282,5.176c-1.816,3.432-5.266,6.013-8.792,7.477
									c-3.764,1.563-7.932,2.137-11.98,1.668c-1.74-0.201-3.458-0.596-5.107-1.188c0.079,0.028-1.013,1.624-1.125,1.755
									c-0.479,0.557-1.037,1.045-1.652,1.447c-0.604,0.395-1.288,0.743-1.989,0.926c-0.731,0.19-1.425,0.097-1.832,0.884
									c-0.258,0.501-0.28,1.085-0.297,1.648c-0.049,1.649-0.098,3.299-0.147,4.949c-0.025,0.838-0.053,1.692-0.335,2.481
									c-0.282,0.789-0.866,1.518-1.67,1.754C153.444,85.958,153.128,85.951,152.829,85.864z"/>
								<path id="XMLID_5027_" style="fill:#9A4A4D;" d="M170.299,104.414c0,0-8.501-1.682-11.477-3.251
									c-1.992-1.05-3.635-2.876-4.12-4.048c0,0,0.565,2.519,2.349,4.784c2.182,2.769,13.255,4.776,13.255,4.776L170.299,104.414z"
									/>
							</g>
							<g id="XMLID_401_">
								<path id="XMLID_412_" style="fill:#263238;" d="M168.673,82.736c0.003,0.977-0.757,1.769-1.697,1.77
									c-0.94,0.001-1.705-0.79-1.708-1.768c-0.003-0.977,0.756-1.769,1.696-1.77C167.904,80.968,168.669,81.759,168.673,82.736z"
									/>
								<path id="XMLID_411_" style="fill:#263238;" d="M166.639,77.492l-3.772,2.446c-0.659-1.087-0.349-2.516,0.693-3.19
									C164.602,76.072,165.98,76.405,166.639,77.492z"/>
								<g>
									<path id="XMLID_410_" style="fill:#9A4A4D;" d="M165.835,93.091l5.99,2.561c-0.775,1.671-2.544,2.503-4.398,1.745
										C165.762,96.715,165.06,94.762,165.835,93.091z"/>
									<path style="fill:#F28F8F;" d="M167.428,97.396c0.505,0.207,1.001,0.286,1.475,0.272c-0.209-1.387-1.386-2.455-2.831-2.455
										c-0.154,0-0.302,0.021-0.449,0.045C165.849,96.192,166.473,97.006,167.428,97.396z"/>
								</g>
								<path id="XMLID_407_" style="fill:#263238;" d="M183.82,79.237l-3.585-2.173c0.568-1.021,1.831-1.361,2.82-0.761
									C184.045,76.904,184.387,78.217,183.82,79.237z"/>
								<path id="XMLID_405_" style="fill:#263238;" d="M182.45,82.733c0.004,0.977-0.756,1.769-1.697,1.77
									c-0.94,0-1.705-0.791-1.708-1.768c-0.004-0.977,0.756-1.769,1.696-1.77C181.682,80.964,182.447,81.756,182.45,82.733z"/>
								<polygon id="XMLID_403_" style="fill:#9A4A4D;" points="173.477,81.847 173.747,92.809 179.52,91.032 								"/>
							</g>
						</g>
					</g>
				</g>
			</g>
		</g>
		<path style="fill:#B16668;" d="M125.097,161.708c5.069-8.002,12.363-22.813,12.363-22.813c4.143-9.83,3.879-21.035,1.663-27.075
			c0,0-2.644,0.373-4.092,0.795c-7.039,1.97-9.019,3.019-12.444,8.81c-2.719,4.598-11.527,27.61-14.913,34.769l-16.53-15.034
			c-3.916-3.881-4.487-9.015-6.799-12.365c-2.313-3.35-5.148-4.45-7.84-7.355c-2.692-2.904-3.622-4.967-4.909-2.932
			c-1.288,2.035,1.565,6.224,2.029,7.215c0.464,0.991,3.614,3.572-0.901,2.834c-4.515-0.738-12.578-7.037-14.572-8.248
			c-1.995-1.212-2.362,1.39-1.587,3.22c0.775,1.83-0.117,6.527,1.195,9.555c1.392,3.214,2.209,4.643,6.128,7.228
			c3.65,2.408,11.81,4.588,15.529,7.966c3.719,3.379,12.47,14.482,17.796,21.16c6.769,8.489,12.715,12.422,18.23,6.183
			C119.51,171.018,123.217,164.675,125.097,161.708z"/>
		<path style="fill:#455A64;" d="M140.705,111.63c-5.608-0.331-14.761,0.181-19.822,11.314s-12.239,29.368-12.239,29.368
			s8.514,11.26,17.75,10.248l13.92-26.413C140.315,136.148,144.334,122.293,140.705,111.63z"/>
	</g>
</g>
<g id="Wallet_1_">
	<g id="Wallet">
		<g>
			<path style="fill:#263238;" d="M403.081,381.541c0.784-0.453,1.268-1.423,1.268-2.803V257.405c0-1.381-0.485-2.911-1.268-4.268
				l7.519-4.341c0.784,1.357,1.268,2.887,1.268,4.268v121.332c0,1.383-0.486,2.354-1.272,2.806L403.081,381.541z"/>
			<path style="fill:#37474F;" d="M403.081,253.137c-0.783-1.357-1.866-2.542-3.062-3.232l-137.306-79.274
				c-4.783-2.761-12.538-2.761-17.32,0l-2.99,1.726c-2.743,1.583-4.171,4.06-4.172,6.638l0,131.344
				c-0.004-2.582,1.425-5.064,4.172-6.65l2.99-1.726c4.783-2.761,12.538-2.761,17.32,0l137.306,79.274
				c1.196,0.69,2.278,0.756,3.062,0.303c0.784-0.452,1.268-1.423,1.268-2.803V257.405
				C404.349,256.025,403.864,254.495,403.081,253.137z"/>
			<path style="fill:#455A64;" d="M238.596,181.255c-1.086-3.318,0.265-6.852,3.806-8.897l2.99-1.726
				c4.783-2.761,12.538-2.761,17.32,0l137.306,79.274c1.305,0.81,2.308,1.903,3.06,3.233l7.519-4.342
				c-0.673-1.233-1.654-2.328-3.06-3.232l-141.075-81.427c-7.075-4.085-17.745-4.085-24.82-0.001l-2.989,1.726
				c-4.286,2.475-7.12,6.515-7.775,11.084c-0.097,0.679-0.145,1.36-0.145,2.039c0,3.895,1.581,7.736,4.489,10.785l5.425-5.178
				C239.657,183.555,238.977,182.418,238.596,181.255"/>
		</g>
		<g>
			<path style="fill:#27DEBF;" d="M394.344,272.963v-16.59l-137.917-79.605c-2.708-1.542-6.294-1.301-8.66,0l-1.495,0.863
				c-1.272,0.743-2.019,1.817-2.086,3.318v8.41v20.362L394.344,272.963z"/>
			<path style="opacity:0.2;" d="M394.344,272.963v-16.59l-137.917-79.605c-2.708-1.542-6.294-1.301-8.66,0l-1.495,0.863
				c-1.272,0.743-2.019,1.817-2.086,3.318v8.41v20.362L394.344,272.963z"/>
			<path style="fill:#27DEBF;" d="M258.301,173.52c-3.538-2.042-8.872-2.042-12.41,0l-1.495,0.863
				c-2.143,1.237-3.56,3.257-3.888,5.542c-0.049,0.339-0.073,0.68-0.073,1.019v4.494l3.749,3.92v-8.41
				c0.001-1.289,0.715-2.527,2.086-3.318l1.495-0.863c2.391-1.381,6.269-1.381,8.66,0l137.917,79.605l3.759-2.17L258.301,173.52z"/>
			<path style="opacity:0.3;" d="M258.301,173.52c-3.538-2.042-8.872-2.042-12.41,0l-1.495,0.863
				c-2.143,1.237-3.56,3.257-3.888,5.542c-0.049,0.339-0.073,0.68-0.073,1.019v4.494l3.749,3.92v-8.41
				c0.001-1.289,0.715-2.527,2.086-3.318l1.495-0.863c2.391-1.381,6.269-1.381,8.66,0l137.917,79.605l3.759-2.17L258.301,173.52z"/>
			<polygon style="fill:#27DEBF;" points="394.344,256.373 398.103,254.202 398.103,274.904 394.344,272.67 			"/>
			<polygon style="opacity:0.4;" points="394.344,256.373 398.103,254.202 398.103,274.904 394.344,272.67 			"/>
		</g>
		<path style="fill:#263238;" d="M399.157,366.336v-93.413l-137.531-79.487c-2.872-1.66-6.412-1.661-9.285-0.002l-3.481,2.01
			l0.001,89.119l145.966,84.273C396.751,369.948,399.157,368.559,399.157,366.336z"/>
		<g id="Card">
			<g id="Card_1_">
				<g>
					<path style="fill:#27DEBF;" d="M385.787,362.854l2.358-1.362c0.743-0.429,1.346-1.473,1.346-2.331l0-96.025
						c0-0.858-0.602-1.902-1.346-2.331l-124.485-71.887c-0.743-0.429-1.948-0.429-2.692,0l-2.358,1.362
						c-0.743,0.429-1.346,1.473-1.346,2.331l0.001,96.026c0,0.858,0.603,1.902,1.346,2.331l124.484,71.887
						C383.839,363.283,385.044,363.283,385.787,362.854z"/>
					<path style="opacity:0.7;fill:#FFFFFF;" d="M385.787,362.854l2.358-1.362c0.743-0.429,1.346-1.473,1.346-2.331l0-96.025
						c0-0.858-0.602-1.902-1.346-2.331l-124.485-71.887c-0.743-0.429-1.948-0.429-2.692,0l-2.358,1.362
						c-0.743,0.429-1.346,1.473-1.346,2.331l0.001,96.026c0,0.858,0.603,1.902,1.346,2.331l124.484,71.887
						C383.839,363.283,385.044,363.283,385.787,362.854z"/>
					<path style="fill:#27DEBF;" d="M383.096,263.72l-124.485-71.887c-0.743-0.429-1.346-0.081-1.346,0.777l0.001,96.026
						c0,0.858,0.603,1.902,1.346,2.331l124.484,71.887c0.743,0.429,1.346,0.081,1.346-0.777l0-96.025
						C384.441,265.193,383.839,264.149,383.096,263.72z"/>
					<path style="fill:#27DEBF;" d="M383.096,263.72l-124.485-71.887c-0.743-0.429-1.346-0.081-1.346,0.777l0.001,96.026
						c0,0.858,0.603,1.902,1.346,2.331l124.484,71.887c0.743,0.429,1.346,0.081,1.346-0.777l0-96.025
						C384.441,265.193,383.839,264.149,383.096,263.72z"/>
					<path style="opacity:0.5;fill:#FFFFFF;" d="M383.096,263.72l-124.485-71.887c-0.743-0.429-1.346-0.081-1.346,0.777
						l0.001,96.026c0,0.858,0.603,1.902,1.346,2.331l124.484,71.887c0.743,0.429,1.346,0.081,1.346-0.777l0-96.025
						C384.441,265.193,383.839,264.149,383.096,263.72z"/>
					<path style="fill:#FFFFFF;" d="M258.61,191.833c10.215,6.266,20.514,12.386,30.826,18.484l31.031,18.128l31.21,17.818
						l15.668,8.799l15.75,8.658l-15.371-9.314l-15.453-9.173l-31.033-18.125l-31.211-17.816
						C279.592,203.409,269.144,197.548,258.61,191.833z"/>
					<path style="fill:#27DEBF;" d="M384.045,264.724l5.05-2.915c0.242,0.42,0.405,0.9,0.391,1.325l-0.001,96.026
						c0.007,0.858-0.593,1.907-1.336,2.336l-2.358,1.361c-0.657,0.379-1.679,0.424-2.427,0.123c0.619,0.202,1.071-0.159,1.071-0.906
						l0.001-96.026C384.45,265.625,384.288,265.144,384.045,264.724z"/>
				</g>
				<polygon style="fill:#27DEBF;" points="384.441,277.015 389.491,274.099 389.492,299.196 384.436,302.077 				"/>
				<polygon style="opacity:0.2;" points="384.441,277.015 389.491,274.099 389.492,299.196 384.436,302.077 				"/>
			</g>
			<polygon style="opacity:0.2;" points="257.26,203.565 384.436,277.01 384.436,302.077 257.265,228.634 			"/>
			<g id="Cards_1_">
				<g id="XMLID_805_">
					<defs>
						<path id="XMLID_807_" d="M376.587,331.88v16.414c0,1.228-0.862,1.726-1.926,1.112l-17.234-9.819
							c-1.064-0.614-1.926-2.108-1.926-3.336l0.001-16.413c0-1.228,0.862-1.726,1.926-1.112c4.704,2.716,12.529,7.103,17.233,9.819
							C375.726,329.158,376.587,330.651,376.587,331.88z"/>
					</defs>
					<use xlink:href="#XMLID_807_"  style="overflow:visible;fill:#455A64;"/>
					<clipPath id="XMLID_00000141424409157638676650000002037600298169107339_">
						<use xlink:href="#XMLID_807_"  style="overflow:visible;"/>
					</clipPath>
					<g id="XMLID_824_" style="clip-path:url(#XMLID_00000141424409157638676650000002037600298169107339_);">
						<polygon id="XMLID_829_" style="fill:#FFFFFF;" points="379.983,338.377 380.419,337.623 352.108,321.408 351.672,322.162 
													"/>
					</g>
					<g id="XMLID_819_" style="clip-path:url(#XMLID_00000141424409157638676650000002037600298169107339_);">
						<rect id="XMLID_822_" x="368.925" y="331.742" style="fill:#FFFFFF;" width="0.871" height="8.361"/>
					</g>
					<g id="XMLID_817_" style="clip-path:url(#XMLID_00000141424409157638676650000002037600298169107339_);">
						<rect id="XMLID_818_" x="362.294" y="328.078" style="fill:#FFFFFF;" width="0.871" height="8.349"/>
					</g>
					<g id="XMLID_815_" style="clip-path:url(#XMLID_00000141424409157638676650000002037600298169107339_);">
						<polygon id="XMLID_816_" style="fill:#FFFFFF;" points="379.984,346.757 380.419,346.002 352.108,329.787 351.672,330.541 
													"/>
					</g>
				</g>
				<g>
					<g id="XMLID_389_">
						<g>
							<path id="XMLID_200_" style="fill:#455A64;" d="M309.742,248.846c-0.704-1.305-1.056-2.802-1.055-4.492
								c0-1.699,0.344-2.798,1.033-3.294c0.689-0.495,1.675-0.374,2.957,0.366c0.538,0.311,1.026,0.664,1.464,1.059
								c0.438,0.395,0.809,0.813,1.111,1.253c0.073,0.111,0.11,0.211,0.11,0.3c0,0.078-0.022,0.149-0.066,0.212l-0.387,0.675
								c-0.052,0.078-0.103,0.103-0.155,0.072c-0.044-0.025-0.107-0.09-0.188-0.197c-0.471-0.626-1.028-1.124-1.669-1.494
								c-0.759-0.438-1.348-0.486-1.768-0.144c-0.42,0.342-0.63,1.087-0.63,2.237c0,1.159,0.219,2.155,0.658,2.988
								c0.438,0.833,1.037,1.468,1.796,1.906c0.693,0.4,1.275,0.559,1.746,0.477c0.081-0.012,0.144-0.006,0.188,0.021
								c0.051,0.029,0.103,0.113,0.154,0.251l0.431,1.236c0.029,0.086,0.044,0.153,0.044,0.202c0,0.059-0.044,0.107-0.133,0.145
								c-0.575,0.218-1.462-0.019-2.663-0.713C311.439,251.175,310.446,250.151,309.742,248.846z"/>
							<path id="XMLID_197_" style="fill:#455A64;" d="M316.517,253.73c-0.077-0.148-0.116-0.33-0.116-0.545l0-8.738
								c0-0.216,0.039-0.356,0.116-0.419c0.078-0.063,0.205-0.044,0.381,0.058l2.796,1.614c1.871,1.081,2.807,2.712,2.807,4.893
								c0,0.697-0.111,1.225-0.331,1.584c-0.221,0.358-0.549,0.54-0.984,0.544l1.16,4.059c0.022,0.081,0.033,0.157,0.033,0.225
								c0,0.176-0.078,0.22-0.232,0.13l-1.227-0.708c-0.103-0.06-0.181-0.122-0.232-0.185c-0.051-0.065-0.096-0.167-0.133-0.305
								l-1.016-3.828l-1.316-0.759l0,2.888c0,0.216-0.037,0.354-0.11,0.415c-0.074,0.061-0.203,0.037-0.387-0.069l-0.829-0.478
								C316.721,254.002,316.594,253.878,316.517,253.73z M319.429,250.292c0.42,0.242,0.735,0.306,0.945,0.191
								c0.21-0.114,0.315-0.427,0.315-0.937c0-0.511-0.096-0.94-0.287-1.286c-0.192-0.346-0.479-0.63-0.862-0.851l-1.315-0.759
								v2.948L319.429,250.292z"/>
							<path id="XMLID_195_" style="fill:#455A64;" d="M323.523,257.775c-0.078-0.148-0.116-0.33-0.116-0.545v-8.738
								c0-0.216,0.038-0.356,0.116-0.419c0.077-0.064,0.204-0.044,0.381,0.057l4.586,2.648c0.177,0.103,0.298,0.219,0.365,0.351
								c0.066,0.132,0.099,0.31,0.099,0.535v0.545c0,0.227-0.033,0.37-0.099,0.429c-0.066,0.06-0.188,0.039-0.365-0.063l-3.26-1.883
								v2.328l2.277,1.315c0.177,0.102,0.298,0.219,0.364,0.35c0.067,0.132,0.1,0.31,0.1,0.537v0.515c0,0.226-0.033,0.369-0.1,0.429
								c-0.066,0.06-0.187,0.039-0.364-0.063l-2.277-1.314v2.343l3.249,1.876c0.177,0.102,0.298,0.221,0.365,0.358
								c0.066,0.136,0.099,0.318,0.099,0.543l0,0.53c0,0.226-0.033,0.367-0.099,0.422c-0.067,0.055-0.188,0.031-0.365-0.071
								l-4.576-2.642C323.727,258.048,323.6,257.923,323.523,257.775z"/>
							<path id="XMLID_192_" style="fill:#455A64;" d="M329.866,261.437c-0.077-0.148-0.116-0.33-0.116-0.545l0-8.739
								c0-0.215,0.039-0.355,0.116-0.419c0.077-0.064,0.204-0.044,0.381,0.058l2.321,1.34c1.26,0.727,2.218,1.683,2.873,2.867
								c0.656,1.184,0.984,2.641,0.984,4.37c0,1.709-0.332,2.78-0.995,3.213c-0.663,0.433-1.618,0.289-2.862-0.429l-2.321-1.34
								C330.07,261.71,329.943,261.586,329.866,261.437z M332.656,261.42c0.655,0.379,1.146,0.419,1.47,0.119
								c0.324-0.3,0.486-1.037,0.486-2.217c0-1.178-0.162-2.102-0.486-2.771c-0.324-0.669-0.814-1.193-1.47-1.57l-1.083-0.625v6.439
								L332.656,261.42z"/>
							<path id="XMLID_190_" style="fill:#455A64;" d="M337.447,265.814c-0.078-0.148-0.116-0.33-0.116-0.545v-8.738
								c0-0.215,0.038-0.355,0.116-0.419c0.077-0.064,0.204-0.044,0.381,0.058l0.829,0.478c0.184,0.106,0.313,0.233,0.387,0.378
								c0.073,0.146,0.11,0.331,0.11,0.557v8.737c0,0.216-0.037,0.354-0.11,0.415c-0.074,0.06-0.203,0.038-0.387-0.069l-0.829-0.479
								C337.651,266.087,337.525,265.963,337.447,265.814z"/>
							<path id="XMLID_188_" style="fill:#455A64;" d="M342.232,268.577c-0.077-0.148-0.116-0.33-0.116-0.545l0-7.589l-1.812-1.046
								c-0.177-0.103-0.298-0.219-0.365-0.351c-0.066-0.131-0.1-0.31-0.1-0.536l0-0.545c0-0.225,0.033-0.368,0.1-0.428
								c0.066-0.06,0.188-0.039,0.365,0.063l5.459,3.152c0.177,0.102,0.3,0.223,0.37,0.361c0.07,0.139,0.105,0.321,0.105,0.547
								v0.545c0,0.216-0.035,0.354-0.105,0.411c-0.07,0.058-0.193,0.036-0.37-0.066l-1.813-1.047v7.588
								c0,0.216-0.038,0.353-0.116,0.412c-0.078,0.059-0.208,0.034-0.392-0.072l-0.818-0.472
								C342.44,268.852,342.31,268.725,342.232,268.577z"/>
							<path id="XMLID_186_" style="fill:#455A64;" d="M351.736,273.091c-0.704-1.305-1.055-2.802-1.055-4.492
								c0-1.699,0.344-2.797,1.034-3.293c0.688-0.496,1.674-0.374,2.956,0.366c0.538,0.31,1.026,0.663,1.464,1.059
								c0.439,0.396,0.809,0.813,1.111,1.253c0.073,0.111,0.11,0.211,0.11,0.299c0,0.078-0.022,0.149-0.066,0.212l-0.387,0.676
								c-0.052,0.078-0.103,0.103-0.155,0.073c-0.044-0.026-0.107-0.091-0.188-0.198c-0.472-0.625-1.028-1.123-1.669-1.494
								c-0.759-0.438-1.348-0.486-1.768-0.144c-0.419,0.342-0.63,1.087-0.63,2.237c0,1.159,0.219,2.155,0.657,2.988
								c0.439,0.833,1.037,1.467,1.796,1.906c0.693,0.399,1.275,0.559,1.746,0.477c0.081-0.012,0.144-0.005,0.188,0.021
								c0.051,0.029,0.103,0.113,0.155,0.251l0.431,1.237c0.029,0.086,0.044,0.153,0.044,0.203c0,0.059-0.044,0.107-0.133,0.144
								c-0.575,0.219-1.463-0.02-2.664-0.713C353.432,275.419,352.439,274.396,351.736,273.091z"/>
							<path id="XMLID_183_" style="fill:#455A64;" d="M357.908,277.531c0-0.068,0.012-0.14,0.033-0.216l2.862-7.439
								c0.051-0.137,0.109-0.22,0.171-0.247c0.063-0.028,0.153-0.007,0.271,0.06l0.807,0.466c0.118,0.068,0.206,0.15,0.265,0.249
								c0.059,0.097,0.114,0.245,0.166,0.441l2.862,10.744c0.022,0.101,0.033,0.186,0.033,0.255c0,0.167-0.066,0.212-0.198,0.135
								l-1.337-0.772c-0.103-0.059-0.179-0.125-0.227-0.197c-0.048-0.072-0.09-0.177-0.127-0.317l-0.508-2.032l-2.685-1.551
								l-0.498,1.452c-0.037,0.096-0.079,0.153-0.127,0.17c-0.048,0.016-0.123-0.005-0.226-0.064l-1.337-0.772
								C357.974,277.82,357.908,277.699,357.908,277.531z M362.56,276.726l-0.917-3.713l-0.928,2.647L362.56,276.726z"/>
							<path id="XMLID_180_" style="fill:#455A64;" d="M366.411,282.537c-0.077-0.148-0.116-0.33-0.116-0.545v-8.738
								c0-0.216,0.039-0.355,0.116-0.419c0.078-0.064,0.204-0.044,0.381,0.058l2.796,1.614c1.871,1.081,2.807,2.711,2.807,4.892
								c0,0.698-0.111,1.225-0.331,1.584c-0.221,0.359-0.549,0.54-0.984,0.544l1.16,4.059c0.023,0.082,0.033,0.157,0.033,0.225
								c0,0.177-0.077,0.221-0.232,0.131l-1.227-0.708c-0.103-0.059-0.18-0.121-0.232-0.185c-0.052-0.064-0.096-0.166-0.132-0.305
								l-1.017-3.828l-1.315-0.76l0,2.888c0,0.216-0.037,0.354-0.11,0.415c-0.074,0.06-0.203,0.037-0.387-0.069l-0.829-0.479
								C366.616,282.81,366.489,282.685,366.411,282.537z M369.324,279.098c0.42,0.242,0.735,0.306,0.945,0.192
								c0.21-0.114,0.315-0.427,0.315-0.938c0-0.511-0.096-0.94-0.287-1.285c-0.191-0.346-0.479-0.63-0.862-0.851l-1.316-0.759
								v2.947L369.324,279.098z"/>
							<path id="XMLID_177_" style="fill:#455A64;" d="M373.418,286.582c-0.078-0.149-0.116-0.33-0.116-0.546v-8.739
								c0-0.215,0.038-0.355,0.116-0.418c0.078-0.063,0.204-0.044,0.381,0.058l2.321,1.34c1.26,0.727,2.217,1.683,2.874,2.867
								c0.655,1.184,0.983,2.641,0.983,4.369c0,1.709-0.331,2.78-0.994,3.213c-0.663,0.432-1.617,0.289-2.862-0.43l-2.321-1.34
								C373.622,286.855,373.495,286.73,373.418,286.582z M376.208,286.565c0.656,0.379,1.146,0.419,1.47,0.119
								c0.324-0.299,0.486-1.038,0.486-2.217c0-1.179-0.162-2.102-0.486-2.771c-0.324-0.669-0.814-1.192-1.47-1.571l-1.083-0.625
								v6.439L376.208,286.565z"/>
						</g>
					</g>
					<g id="XMLID_335_" style="opacity:0.15;">
						<path id="XMLID_385_" style="fill:#455A64;" d="M309.742,248.846c-0.704-1.305-1.056-2.802-1.055-4.492
							c0-1.699,0.344-2.798,1.033-3.294c0.689-0.495,1.675-0.374,2.957,0.366c0.538,0.311,1.026,0.664,1.464,1.059
							c0.438,0.395,0.809,0.813,1.111,1.253c0.073,0.111,0.11,0.211,0.11,0.3c0,0.078-0.022,0.149-0.066,0.212l-0.387,0.675
							c-0.052,0.078-0.103,0.103-0.155,0.072c-0.044-0.025-0.107-0.09-0.188-0.197c-0.471-0.626-1.028-1.124-1.669-1.494
							c-0.759-0.438-1.348-0.486-1.768-0.144c-0.42,0.342-0.63,1.087-0.63,2.237c0,1.159,0.219,2.155,0.658,2.988
							c0.438,0.833,1.037,1.468,1.796,1.906c0.693,0.4,1.275,0.559,1.746,0.477c0.081-0.012,0.144-0.006,0.188,0.021
							c0.051,0.029,0.103,0.113,0.154,0.251l0.431,1.236c0.029,0.086,0.044,0.153,0.044,0.202c0,0.059-0.044,0.107-0.133,0.145
							c-0.575,0.218-1.462-0.019-2.663-0.713C311.439,251.175,310.446,250.151,309.742,248.846z"/>
						<path id="XMLID_382_" style="fill:#455A64;" d="M316.517,253.73c-0.077-0.148-0.116-0.33-0.116-0.545l0-8.738
							c0-0.216,0.039-0.356,0.116-0.419c0.078-0.063,0.205-0.044,0.381,0.058l2.796,1.614c1.871,1.081,2.807,2.712,2.807,4.893
							c0,0.697-0.111,1.225-0.331,1.584c-0.221,0.358-0.549,0.54-0.984,0.544l1.16,4.059c0.022,0.081,0.033,0.157,0.033,0.225
							c0,0.176-0.078,0.22-0.232,0.13l-1.227-0.708c-0.103-0.06-0.181-0.122-0.232-0.185c-0.051-0.065-0.096-0.167-0.133-0.305
							l-1.016-3.828l-1.316-0.759l0,2.888c0,0.216-0.037,0.354-0.11,0.415c-0.074,0.061-0.203,0.037-0.387-0.069l-0.829-0.478
							C316.721,254.002,316.594,253.878,316.517,253.73z M319.429,250.292c0.42,0.242,0.735,0.306,0.945,0.191
							c0.21-0.114,0.315-0.427,0.315-0.937c0-0.511-0.096-0.94-0.287-1.286c-0.192-0.346-0.479-0.63-0.862-0.851l-1.315-0.759v2.948
							L319.429,250.292z"/>
						<path id="XMLID_377_" style="fill:#455A64;" d="M323.523,257.775c-0.078-0.148-0.116-0.33-0.116-0.545v-8.738
							c0-0.216,0.038-0.356,0.116-0.419c0.077-0.064,0.204-0.044,0.381,0.057l4.586,2.648c0.177,0.103,0.298,0.219,0.365,0.351
							c0.066,0.132,0.099,0.31,0.099,0.535v0.545c0,0.227-0.033,0.37-0.099,0.429c-0.066,0.06-0.188,0.039-0.365-0.063l-3.26-1.883
							v2.328l2.277,1.315c0.177,0.102,0.298,0.219,0.364,0.35c0.067,0.132,0.1,0.31,0.1,0.537v0.515c0,0.226-0.033,0.369-0.1,0.429
							c-0.066,0.06-0.187,0.039-0.364-0.063l-2.277-1.314v2.343l3.249,1.876c0.177,0.102,0.298,0.221,0.365,0.358
							c0.066,0.136,0.099,0.318,0.099,0.543l0,0.53c0,0.226-0.033,0.367-0.099,0.422c-0.067,0.055-0.188,0.031-0.365-0.071
							l-4.576-2.642C323.727,258.048,323.6,257.923,323.523,257.775z"/>
						<path id="XMLID_370_" style="fill:#455A64;" d="M329.866,261.437c-0.077-0.148-0.116-0.33-0.116-0.545l0-8.739
							c0-0.215,0.039-0.355,0.116-0.419c0.077-0.064,0.204-0.044,0.381,0.058l2.321,1.34c1.26,0.727,2.218,1.683,2.873,2.867
							c0.656,1.184,0.984,2.641,0.984,4.37c0,1.709-0.332,2.78-0.995,3.213c-0.663,0.433-1.618,0.289-2.862-0.429l-2.321-1.34
							C330.07,261.71,329.943,261.586,329.866,261.437z M332.656,261.42c0.655,0.379,1.146,0.419,1.47,0.119
							c0.324-0.3,0.486-1.037,0.486-2.217c0-1.178-0.162-2.102-0.486-2.771c-0.324-0.669-0.814-1.193-1.47-1.57l-1.083-0.625v6.439
							L332.656,261.42z"/>
						<path id="XMLID_366_" style="fill:#455A64;" d="M337.447,265.814c-0.078-0.148-0.116-0.33-0.116-0.545v-8.738
							c0-0.215,0.038-0.355,0.116-0.419c0.077-0.064,0.204-0.044,0.381,0.058l0.829,0.478c0.184,0.106,0.313,0.233,0.387,0.378
							c0.073,0.146,0.11,0.331,0.11,0.557v8.737c0,0.216-0.037,0.354-0.11,0.415c-0.074,0.06-0.203,0.038-0.387-0.069l-0.829-0.479
							C337.651,266.087,337.525,265.963,337.447,265.814z"/>
						<path id="XMLID_360_" style="fill:#455A64;" d="M342.232,268.577c-0.077-0.148-0.116-0.33-0.116-0.545l0-7.589l-1.812-1.046
							c-0.177-0.103-0.298-0.219-0.365-0.351c-0.066-0.131-0.1-0.31-0.1-0.536l0-0.545c0-0.225,0.033-0.368,0.1-0.428
							c0.066-0.06,0.188-0.039,0.365,0.063l5.459,3.152c0.177,0.102,0.3,0.223,0.37,0.361c0.07,0.139,0.105,0.321,0.105,0.547v0.545
							c0,0.216-0.035,0.354-0.105,0.411c-0.07,0.058-0.193,0.036-0.37-0.066l-1.813-1.047v7.588c0,0.216-0.038,0.353-0.116,0.412
							c-0.078,0.059-0.208,0.034-0.392-0.072l-0.818-0.472C342.44,268.852,342.31,268.725,342.232,268.577z"/>
						<path id="XMLID_358_" style="fill:#455A64;" d="M351.736,273.091c-0.704-1.305-1.055-2.802-1.055-4.492
							c0-1.699,0.344-2.797,1.034-3.293c0.688-0.496,1.674-0.374,2.956,0.366c0.538,0.31,1.026,0.663,1.464,1.059
							c0.439,0.396,0.809,0.813,1.111,1.253c0.073,0.111,0.11,0.211,0.11,0.299c0,0.078-0.022,0.149-0.066,0.212l-0.387,0.676
							c-0.052,0.078-0.103,0.103-0.155,0.073c-0.044-0.026-0.107-0.091-0.188-0.198c-0.472-0.625-1.028-1.123-1.669-1.494
							c-0.759-0.438-1.348-0.486-1.768-0.144c-0.419,0.342-0.63,1.087-0.63,2.237c0,1.159,0.219,2.155,0.657,2.988
							c0.439,0.833,1.037,1.467,1.796,1.906c0.693,0.399,1.275,0.559,1.746,0.477c0.081-0.012,0.144-0.005,0.188,0.021
							c0.051,0.029,0.103,0.113,0.155,0.251l0.431,1.237c0.029,0.086,0.044,0.153,0.044,0.203c0,0.059-0.044,0.107-0.133,0.144
							c-0.575,0.219-1.463-0.02-2.664-0.713C353.432,275.419,352.439,274.396,351.736,273.091z"/>
						<path id="XMLID_355_" style="fill:#455A64;" d="M357.908,277.531c0-0.068,0.012-0.14,0.033-0.216l2.862-7.439
							c0.051-0.137,0.109-0.22,0.171-0.247c0.063-0.028,0.153-0.007,0.271,0.06l0.807,0.466c0.118,0.068,0.206,0.15,0.265,0.249
							c0.059,0.097,0.114,0.245,0.166,0.441l2.862,10.744c0.022,0.101,0.033,0.186,0.033,0.255c0,0.167-0.066,0.212-0.198,0.135
							l-1.337-0.772c-0.103-0.059-0.179-0.125-0.227-0.197c-0.048-0.072-0.09-0.177-0.127-0.317l-0.508-2.032l-2.685-1.551
							l-0.498,1.452c-0.037,0.096-0.079,0.153-0.127,0.17c-0.048,0.016-0.123-0.005-0.226-0.064l-1.337-0.772
							C357.974,277.82,357.908,277.699,357.908,277.531z M362.56,276.726l-0.917-3.713l-0.928,2.647L362.56,276.726z"/>
						<path id="XMLID_345_" style="fill:#455A64;" d="M366.411,282.537c-0.077-0.148-0.116-0.33-0.116-0.545v-8.738
							c0-0.216,0.039-0.355,0.116-0.419c0.078-0.064,0.204-0.044,0.381,0.058l2.796,1.614c1.871,1.081,2.807,2.711,2.807,4.892
							c0,0.698-0.111,1.225-0.331,1.584c-0.221,0.359-0.549,0.54-0.984,0.544l1.16,4.059c0.023,0.082,0.033,0.157,0.033,0.225
							c0,0.177-0.077,0.221-0.232,0.131l-1.227-0.708c-0.103-0.059-0.18-0.121-0.232-0.185c-0.052-0.064-0.096-0.166-0.132-0.305
							l-1.017-3.828l-1.315-0.76l0,2.888c0,0.216-0.037,0.354-0.11,0.415c-0.074,0.06-0.203,0.037-0.387-0.069l-0.829-0.479
							C366.616,282.81,366.489,282.685,366.411,282.537z M369.324,279.098c0.42,0.242,0.735,0.306,0.945,0.192
							c0.21-0.114,0.315-0.427,0.315-0.938c0-0.511-0.096-0.94-0.287-1.285c-0.191-0.346-0.479-0.63-0.862-0.851l-1.316-0.759v2.947
							L369.324,279.098z"/>
						<path id="XMLID_336_" style="fill:#455A64;" d="M373.418,286.582c-0.078-0.149-0.116-0.33-0.116-0.546v-8.739
							c0-0.215,0.038-0.355,0.116-0.418c0.078-0.063,0.204-0.044,0.381,0.058l2.321,1.34c1.26,0.727,2.217,1.683,2.874,2.867
							c0.655,1.184,0.983,2.641,0.983,4.369c0,1.709-0.331,2.78-0.994,3.213c-0.663,0.432-1.617,0.289-2.862-0.43l-2.321-1.34
							C373.622,286.855,373.495,286.73,373.418,286.582z M376.208,286.565c0.656,0.379,1.146,0.419,1.47,0.119
							c0.324-0.299,0.486-1.038,0.486-2.217c0-1.179-0.162-2.102-0.486-2.771c-0.324-0.669-0.814-1.192-1.47-1.571l-1.083-0.625
							v6.439L376.208,286.565z"/>
					</g>
				</g>
				<g>
					<g>
						<path id="XMLID_334_" style="fill:#27DEBF;" d="M275.776,269.189l4.916,2.838c0.638,0.368,1.155,1.264,1.155,2.001v1.504
							c0,0.737-0.517,1.036-1.156,0.667l-4.915-2.838c-0.638-0.368-1.156-1.265-1.156-2.002v-1.504
							C274.621,269.119,275.138,268.82,275.776,269.189z"/>
						<path id="XMLID_333_" style="fill:#27DEBF;" d="M264.936,262.93l4.916,2.838c0.638,0.369,1.155,1.265,1.155,2.002v1.504
							c0,0.737-0.517,1.036-1.155,0.667l-4.916-2.838c-0.638-0.368-1.155-1.265-1.155-2.001v-1.504
							C263.781,262.86,264.298,262.561,264.936,262.93z"/>
						<path id="XMLID_328_" style="fill:#27DEBF;" d="M326.993,309.186l-61.188-35.327c-1.064-0.614-1.926-0.117-1.926,1.112
							l0,1.811c0,1.228,0.862,2.722,1.926,3.336l61.188,35.327c1.064,0.614,1.926,0.116,1.926-1.112l0-1.811
							C328.919,311.293,328.056,309.8,326.993,309.186z"/>
					</g>
					<g>
						<path id="XMLID_327_" style="fill:#455A64;" d="M275.776,269.189l4.916,2.838c0.638,0.368,1.155,1.264,1.155,2.001v1.504
							c0,0.737-0.517,1.036-1.156,0.667l-4.915-2.838c-0.638-0.368-1.156-1.265-1.156-2.002v-1.504
							C274.621,269.119,275.138,268.82,275.776,269.189z"/>
						<path id="XMLID_326_" style="fill:#455A64;" d="M264.936,262.93l4.916,2.838c0.638,0.369,1.155,1.265,1.155,2.002v1.504
							c0,0.737-0.517,1.036-1.155,0.667l-4.916-2.838c-0.638-0.368-1.155-1.265-1.155-2.001v-1.504
							C263.781,262.86,264.298,262.561,264.936,262.93z"/>
						<path id="XMLID_259_" style="fill:#455A64;" d="M326.993,309.186l-61.188-35.327c-1.064-0.614-1.926-0.117-1.926,1.112
							l0,1.811c0,1.228,0.862,2.722,1.926,3.336l61.188,35.327c1.064,0.614,1.926,0.116,1.926-1.112l0-1.811
							C328.919,311.293,328.056,309.8,326.993,309.186z"/>
					</g>
				</g>
				<g>
					<g>
						<path style="fill:#FAFAFA;" d="M265.034,245.893l0.228,0.132c0.692,0.4,1.253,1.472,1.253,2.395l0,4.819
							c0,0.923-0.568,1.363-1.27,0.983l-0.194-0.105c-0.701-0.38-1.27-1.436-1.27-2.359l0-4.917
							C263.781,245.918,264.342,245.493,265.034,245.893z"/>
						<path style="fill:#FAFAFA;" d="M271.496,249.648l0.228,0.131c0.692,0.4,1.253,1.472,1.253,2.395l0,4.819
							c0,0.923-0.568,1.363-1.27,0.983l-0.194-0.105c-0.701-0.38-1.27-1.436-1.27-2.359l0-4.918
							C270.243,249.672,270.804,249.248,271.496,249.648z"/>
						<path style="fill:#FAFAFA;" d="M277.959,253.403l0.227,0.131c0.692,0.4,1.253,1.472,1.253,2.395l0,4.819
							c0,0.923-0.568,1.363-1.27,0.983l-0.194-0.105c-0.701-0.38-1.27-1.436-1.27-2.359l0-4.918
							C276.706,253.427,277.267,253.003,277.959,253.403z"/>
						<path style="fill:#FAFAFA;" d="M284.421,257.158l0.227,0.131c0.692,0.4,1.253,1.472,1.253,2.395l0,4.819
							c0,0.923-0.568,1.363-1.27,0.983l-0.194-0.105c-0.701-0.38-1.27-1.436-1.27-2.359l0-4.918
							C283.168,257.182,283.729,256.758,284.421,257.158z"/>
					</g>
					<g>
						<path style="fill:#FAFAFA;" d="M295.262,263.342l0.228,0.132c0.692,0.4,1.253,1.472,1.253,2.395l0,4.819
							c0,0.923-0.569,1.363-1.27,0.983l-0.194-0.105c-0.701-0.38-1.27-1.436-1.27-2.358l0-4.918
							C294.009,263.366,294.57,262.942,295.262,263.342z"/>
						<path style="fill:#FAFAFA;" d="M301.724,267.097l0.227,0.132c0.692,0.4,1.253,1.472,1.253,2.395l0,4.819
							c0,0.923-0.569,1.363-1.27,0.983l-0.194-0.105c-0.701-0.38-1.27-1.436-1.27-2.359l0-4.918
							C300.471,267.121,301.032,266.697,301.724,267.097z"/>
						<path style="fill:#FAFAFA;" d="M308.187,270.851l0.228,0.132c0.692,0.4,1.253,1.472,1.253,2.395l0,4.819
							c0,0.923-0.568,1.363-1.27,0.983l-0.194-0.105c-0.701-0.38-1.27-1.436-1.27-2.359l0-4.918
							C306.934,270.875,307.495,270.451,308.187,270.851z"/>
						<path style="fill:#FAFAFA;" d="M314.65,274.606l0.228,0.132c0.692,0.4,1.253,1.472,1.253,2.395l0,4.819
							c0,0.923-0.568,1.363-1.27,0.983l-0.194-0.105c-0.701-0.38-1.27-1.436-1.27-2.358l0-4.918
							C313.397,274.63,313.957,274.206,314.65,274.606z"/>
					</g>
					<g>
						<path style="fill:#FAFAFA;" d="M325.49,280.791l0.228,0.131c0.692,0.4,1.253,1.472,1.253,2.395l0,4.819
							c0,0.923-0.569,1.363-1.27,0.983l-0.194-0.105c-0.701-0.38-1.27-1.436-1.27-2.359l0-4.918
							C324.237,280.815,324.798,280.391,325.49,280.791z"/>
						<path style="fill:#FAFAFA;" d="M331.953,284.545l0.227,0.131c0.692,0.4,1.253,1.472,1.253,2.395l0,4.819
							c0,0.923-0.568,1.363-1.27,0.983l-0.194-0.105c-0.701-0.38-1.27-1.436-1.27-2.358l0-4.918
							C330.7,284.569,331.261,284.145,331.953,284.545z"/>
						<path style="fill:#FAFAFA;" d="M338.415,288.3l0.228,0.131c0.692,0.4,1.253,1.472,1.253,2.395l0,4.819
							c0,0.923-0.568,1.363-1.27,0.983l-0.194-0.105c-0.701-0.38-1.27-1.436-1.27-2.359l0-4.918
							C337.162,288.324,337.723,287.9,338.415,288.3z"/>
						<path style="fill:#FAFAFA;" d="M344.878,292.055l0.227,0.131c0.692,0.4,1.253,1.472,1.253,2.395l0,4.819
							c0,0.923-0.569,1.363-1.27,0.983l-0.194-0.105c-0.701-0.38-1.27-1.436-1.27-2.359l0-4.918
							C343.625,292.079,344.186,291.655,344.878,292.055z"/>
					</g>
					<g>
						<path style="fill:#FAFAFA;" d="M355.719,298.239l0.228,0.132c0.692,0.4,1.253,1.472,1.253,2.395l0,4.819
							c0,0.923-0.568,1.363-1.27,0.983l-0.194-0.105c-0.701-0.38-1.27-1.436-1.27-2.358l0-4.918
							C354.466,298.263,355.026,297.839,355.719,298.239z"/>
						<path style="fill:#FAFAFA;" d="M362.181,301.994l0.227,0.131c0.692,0.4,1.253,1.472,1.253,2.395l0,4.819
							c0,0.923-0.569,1.363-1.27,0.983l-0.194-0.105c-0.702-0.38-1.27-1.436-1.27-2.359l0-4.918
							C360.928,302.018,361.489,301.594,362.181,301.994z"/>
						<path style="fill:#FAFAFA;" d="M368.644,305.748l0.227,0.132c0.692,0.4,1.253,1.472,1.253,2.395l0,4.819
							c0,0.923-0.568,1.363-1.27,0.983l-0.194-0.105c-0.701-0.38-1.27-1.436-1.27-2.359v-4.918
							C367.391,305.772,367.952,305.349,368.644,305.748z"/>
						<path style="fill:#FAFAFA;" d="M375.106,309.503l0.227,0.132c0.692,0.4,1.253,1.472,1.253,2.395l0,4.819
							c0,0.923-0.568,1.363-1.27,0.983l-0.194-0.105c-0.701-0.38-1.27-1.436-1.27-2.358l0-4.918
							C373.853,309.527,374.414,309.103,375.106,309.503z"/>
					</g>
				</g>
			</g>
		</g>
		<path style="opacity:0.35;fill:#FFFFFF;" d="M392.431,367.166c0,2.75-1.949,3.875-4.33,2.5l-117.264-67.702
			c-2.382-1.375-4.33-4.75-4.33-7.5l0-65.357l125.924,72.702V367.166z"/>
		<g>
			<path style="fill:#37474F;" d="M235.221,321.102l98.06,102.691c1.023,1.072,1.947,1.386,2.58,1.016
				c0.542-0.316,0.872-1.132,0.872-2.399V301.133c0-1.332-0.365-2.929-0.956-4.448c-0.63-1.616-1.517-3.144-2.496-4.169
				l-98.06-102.746c-2.909-3.048-4.489-6.89-4.489-10.785v131.332C230.732,314.212,232.312,318.053,235.221,321.102z"/>
			<g>
				<g>
					<path style="fill:#455A64;" d="M237.731,204.54c-0.276,0-0.5-0.224-0.5-0.5v-1.5c0-0.205,0.125-0.388,0.314-0.464
						c0.19-0.076,0.407-0.029,0.548,0.119l1.036,1.085c0.19,0.2,0.183,0.516-0.017,0.707c-0.199,0.191-0.517,0.183-0.707-0.017
						l-0.174-0.182v0.252C238.231,204.316,238.008,204.54,237.731,204.54z"/>
				</g>
				<g>
					<path style="fill:#455A64;" d="M329.732,404.019c-0.276,0-0.5-0.224-0.5-0.5v-2.951c0-0.276,0.224-0.5,0.5-0.5
						c0.276,0,0.5,0.224,0.5,0.5v2.951C330.232,403.795,330.009,404.019,329.732,404.019z M329.732,396.149
						c-0.276,0-0.5-0.224-0.5-0.5v-2.951c0-0.276,0.224-0.5,0.5-0.5c0.276,0,0.5,0.224,0.5,0.5v2.951
						C330.232,395.926,330.009,396.149,329.732,396.149z M329.732,388.28c-0.276,0-0.5-0.224-0.5-0.5v-2.951
						c0-0.276,0.224-0.5,0.5-0.5c0.276,0,0.5,0.224,0.5,0.5v2.951C330.232,388.057,330.009,388.28,329.732,388.28z M329.732,380.411
						c-0.276,0-0.5-0.224-0.5-0.5v-2.951c0-0.276,0.224-0.5,0.5-0.5c0.276,0,0.5,0.224,0.5,0.5v2.951
						C330.232,380.188,330.009,380.411,329.732,380.411z M329.732,372.543c-0.276,0-0.5-0.224-0.5-0.5v-2.951
						c0-0.276,0.224-0.5,0.5-0.5c0.276,0,0.5,0.224,0.5,0.5v2.951C330.232,372.319,330.009,372.543,329.732,372.543z
						 M329.732,364.673c-0.276,0-0.5-0.224-0.5-0.5v-2.951c0-0.276,0.224-0.5,0.5-0.5c0.276,0,0.5,0.224,0.5,0.5v2.951
						C330.232,364.45,330.009,364.673,329.732,364.673z M329.732,356.804c-0.276,0-0.5-0.224-0.5-0.5v-2.951
						c0-0.276,0.224-0.5,0.5-0.5c0.276,0,0.5,0.224,0.5,0.5v2.951C330.232,356.581,330.009,356.804,329.732,356.804z
						 M329.732,348.935c-0.276,0-0.5-0.224-0.5-0.5v-2.951c0-0.276,0.224-0.5,0.5-0.5c0.276,0,0.5,0.224,0.5,0.5v2.951
						C330.232,348.711,330.009,348.935,329.732,348.935z M329.732,341.066c-0.276,0-0.5-0.224-0.5-0.5v-2.951
						c0-0.276,0.224-0.5,0.5-0.5c0.276,0,0.5,0.224,0.5,0.5v2.951C330.232,340.843,330.009,341.066,329.732,341.066z
						 M329.732,333.197c-0.276,0-0.5-0.224-0.5-0.5v-2.951c0-0.276,0.224-0.5,0.5-0.5c0.276,0,0.5,0.224,0.5,0.5v2.951
						C330.232,332.974,330.009,333.197,329.732,333.197z M329.732,325.328c-0.276,0-0.5-0.224-0.5-0.5v-2.951
						c0-0.276,0.224-0.5,0.5-0.5c0.276,0,0.5,0.224,0.5,0.5v2.951C330.232,325.104,330.009,325.328,329.732,325.328z
						 M329.732,317.459c-0.276,0-0.5-0.224-0.5-0.5v-2.951c0-0.276,0.224-0.5,0.5-0.5c0.276,0,0.5,0.224,0.5,0.5v2.951
						C330.232,317.235,330.009,317.459,329.732,317.459z M329.732,309.59c-0.276,0-0.5-0.224-0.5-0.5v-2.951
						c0-0.276,0.224-0.5,0.5-0.5c0.276,0,0.5,0.224,0.5,0.5v2.951C330.232,309.366,330.009,309.59,329.732,309.59z M329.732,301.677
						c-0.276,0-0.5-0.18-0.5-0.456c0-0.211-0.075-0.866-0.444-1.813c-0.113-0.292-0.23-0.549-0.342-0.77
						c-0.124-0.247-0.025-0.547,0.222-0.671c0.241-0.125,0.546-0.026,0.671,0.221s0.254,0.533,0.381,0.857
						c0.405,1.04,0.513,1.82,0.513,2.088C330.232,301.41,330.009,301.677,329.732,301.677z M325.693,295.206
						c-0.132,0-0.264-0.052-0.361-0.155l-2.037-2.135c-0.191-0.2-0.184-0.516,0.017-0.707c0.199-0.191,0.517-0.184,0.706,0.017
						l2.037,2.135c0.191,0.2,0.184,0.516-0.017,0.707C325.941,295.16,325.817,295.206,325.693,295.206z M320.261,289.513
						c-0.132,0-0.264-0.052-0.361-0.155l-2.037-2.134c-0.191-0.2-0.184-0.516,0.016-0.707c0.201-0.191,0.518-0.184,0.707,0.017
						l2.037,2.134c0.191,0.2,0.184,0.516-0.016,0.707C320.509,289.467,320.385,289.513,320.261,289.513z M314.828,283.82
						c-0.132,0-0.264-0.052-0.361-0.155l-2.037-2.135c-0.191-0.2-0.184-0.516,0.017-0.707c0.199-0.19,0.517-0.183,0.706,0.017
						l2.037,2.135c0.191,0.2,0.183,0.516-0.017,0.707C315.076,283.774,314.952,283.82,314.828,283.82z M309.395,278.128
						c-0.132,0-0.264-0.052-0.361-0.155l-2.037-2.135c-0.191-0.2-0.184-0.516,0.017-0.707c0.2-0.19,0.517-0.184,0.706,0.017
						l2.037,2.135c0.191,0.2,0.184,0.516-0.017,0.707C309.643,278.082,309.519,278.128,309.395,278.128z M303.962,272.435
						c-0.132,0-0.264-0.052-0.361-0.155l-2.037-2.134c-0.191-0.2-0.184-0.516,0.017-0.707c0.2-0.19,0.517-0.183,0.706,0.017
						l2.037,2.134c0.191,0.2,0.184,0.516-0.016,0.707C304.21,272.389,304.086,272.435,303.962,272.435z M298.529,266.743
						c-0.132,0-0.264-0.052-0.361-0.155l-2.037-2.135c-0.191-0.2-0.184-0.516,0.017-0.707c0.199-0.191,0.516-0.184,0.706,0.017
						l2.037,2.135c0.191,0.2,0.184,0.516-0.017,0.707C298.777,266.697,298.653,266.743,298.529,266.743z M293.097,261.05
						c-0.132,0-0.264-0.052-0.361-0.155l-2.038-2.135c-0.191-0.2-0.184-0.516,0.016-0.707c0.201-0.19,0.518-0.184,0.707,0.017
						l2.038,2.135c0.191,0.2,0.184,0.516-0.016,0.707C293.345,261.004,293.221,261.05,293.097,261.05z M287.663,255.357
						c-0.132,0-0.264-0.052-0.361-0.155l-2.037-2.134c-0.191-0.2-0.184-0.516,0.016-0.707c0.201-0.19,0.518-0.184,0.707,0.017
						l2.037,2.134c0.191,0.2,0.184,0.516-0.016,0.707C287.911,255.311,287.787,255.357,287.663,255.357z M282.23,249.665
						c-0.132,0-0.264-0.052-0.361-0.155l-2.037-2.135c-0.191-0.2-0.184-0.516,0.017-0.707c0.199-0.19,0.517-0.183,0.706,0.017
						l2.037,2.135c0.191,0.2,0.184,0.516-0.017,0.707C282.478,249.619,282.354,249.665,282.23,249.665z M276.798,243.973
						c-0.132,0-0.264-0.052-0.361-0.155l-2.038-2.135c-0.191-0.2-0.184-0.516,0.016-0.707c0.201-0.19,0.518-0.183,0.707,0.017
						l2.038,2.135c0.191,0.2,0.184,0.516-0.016,0.707C277.046,243.927,276.922,243.973,276.798,243.973z M271.364,238.28
						c-0.132,0-0.264-0.052-0.361-0.155l-2.037-2.135c-0.191-0.2-0.184-0.516,0.017-0.707c0.2-0.19,0.517-0.183,0.706,0.017
						l2.037,2.135c0.191,0.2,0.184,0.516-0.017,0.707C271.612,238.234,271.488,238.28,271.364,238.28z M265.932,232.587
						c-0.132,0-0.264-0.052-0.361-0.155l-2.037-2.135c-0.191-0.2-0.184-0.516,0.017-0.707c0.2-0.19,0.517-0.183,0.706,0.017
						l2.037,2.135c0.191,0.2,0.184,0.516-0.017,0.707C266.18,232.542,266.056,232.587,265.932,232.587z M260.499,226.895
						c-0.132,0-0.264-0.052-0.361-0.155l-2.038-2.135c-0.191-0.2-0.184-0.516,0.016-0.707c0.202-0.19,0.518-0.183,0.707,0.017
						l2.038,2.135c0.191,0.2,0.184,0.516-0.016,0.707C260.747,226.849,260.623,226.895,260.499,226.895z M255.065,221.203
						c-0.132,0-0.264-0.052-0.361-0.155l-2.037-2.135c-0.191-0.2-0.184-0.516,0.017-0.707c0.199-0.191,0.516-0.183,0.706,0.017
						l2.037,2.135c0.191,0.2,0.184,0.516-0.017,0.707C255.314,221.157,255.189,221.203,255.065,221.203z M249.633,215.51
						c-0.132,0-0.264-0.052-0.362-0.155l-2.037-2.135c-0.19-0.2-0.183-0.516,0.017-0.707c0.2-0.19,0.517-0.183,0.707,0.017
						l2.037,2.135c0.191,0.2,0.183,0.516-0.017,0.707C249.881,215.464,249.757,215.51,249.633,215.51z M244.2,209.817
						c-0.132,0-0.264-0.052-0.362-0.155l-2.037-2.135c-0.19-0.2-0.183-0.516,0.017-0.707c0.199-0.19,0.517-0.183,0.707,0.017
						l2.037,2.135c0.191,0.2,0.183,0.516-0.017,0.707C244.448,209.771,244.324,209.817,244.2,209.817z"/>
				</g>
				<g>
					<path style="fill:#455A64;" d="M329.732,410.441c-0.134,0-0.266-0.054-0.361-0.155l-1.036-1.085
						c-0.191-0.2-0.184-0.516,0.016-0.707c0.201-0.191,0.517-0.184,0.707,0.017l0.175,0.183v-0.253c0-0.276,0.224-0.5,0.5-0.5
						c0.276,0,0.5,0.224,0.5,0.5v1.5c0,0.204-0.124,0.388-0.314,0.464C329.858,410.429,329.795,410.441,329.732,410.441z"/>
				</g>
				<g>
					<path style="fill:#455A64;" d="M325.186,405.68c-0.132,0-0.264-0.052-0.361-0.155l-2.106-2.206
						c-0.191-0.2-0.184-0.516,0.016-0.707c0.201-0.19,0.518-0.183,0.707,0.017l2.107,2.206c0.191,0.2,0.184,0.516-0.016,0.707
						C325.435,405.634,325.31,405.68,325.186,405.68z M319.57,399.798c-0.132,0-0.264-0.052-0.361-0.155l-2.107-2.206
						c-0.191-0.2-0.184-0.516,0.016-0.707c0.202-0.19,0.518-0.183,0.707,0.017l2.106,2.206c0.191,0.2,0.184,0.516-0.016,0.707
						C319.818,399.752,319.694,399.798,319.57,399.798z M313.953,393.917c-0.132,0-0.264-0.052-0.361-0.155l-2.105-2.206
						c-0.191-0.2-0.184-0.516,0.016-0.707c0.201-0.19,0.517-0.184,0.707,0.017l2.105,2.206c0.191,0.2,0.183,0.516-0.016,0.707
						C314.201,393.871,314.077,393.917,313.953,393.917z M308.337,388.035c-0.132,0-0.264-0.052-0.361-0.155l-2.106-2.206
						c-0.191-0.2-0.184-0.516,0.016-0.707c0.201-0.19,0.518-0.183,0.707,0.017l2.106,2.206c0.191,0.2,0.184,0.516-0.016,0.707
						C308.585,387.989,308.461,388.035,308.337,388.035z M302.721,382.153c-0.132,0-0.264-0.052-0.361-0.155l-2.107-2.206
						c-0.191-0.2-0.184-0.516,0.016-0.707c0.202-0.19,0.517-0.184,0.707,0.017l2.106,2.206c0.191,0.2,0.184,0.516-0.016,0.707
						C302.969,382.107,302.845,382.153,302.721,382.153z M297.104,376.272c-0.132,0-0.264-0.052-0.361-0.155l-2.107-2.206
						c-0.191-0.2-0.184-0.516,0.016-0.707c0.201-0.191,0.518-0.184,0.707,0.017l2.106,2.206c0.191,0.2,0.184,0.516-0.016,0.707
						C297.353,376.226,297.228,376.272,297.104,376.272z M291.487,370.39c-0.132,0-0.264-0.052-0.361-0.155l-2.105-2.206
						c-0.191-0.2-0.184-0.516,0.016-0.707c0.202-0.191,0.519-0.183,0.707,0.017l2.105,2.206c0.191,0.2,0.184,0.516-0.016,0.707
						C291.735,370.344,291.611,370.39,291.487,370.39z M285.871,364.509c-0.132,0-0.264-0.052-0.361-0.155l-2.107-2.206
						c-0.191-0.2-0.184-0.516,0.016-0.707c0.201-0.19,0.518-0.184,0.707,0.017l2.106,2.206c0.191,0.2,0.184,0.516-0.016,0.707
						C286.119,364.463,285.995,364.509,285.871,364.509z M280.255,358.627c-0.132,0-0.264-0.052-0.361-0.155l-2.106-2.206
						c-0.191-0.2-0.184-0.516,0.016-0.707c0.201-0.19,0.518-0.183,0.707,0.017l2.106,2.206c0.191,0.2,0.184,0.516-0.016,0.707
						C280.503,358.581,280.379,358.627,280.255,358.627z M274.639,352.745c-0.132,0-0.264-0.052-0.361-0.155l-2.106-2.206
						c-0.191-0.2-0.184-0.516,0.016-0.707c0.202-0.191,0.517-0.184,0.707,0.017L275,351.9c0.191,0.2,0.184,0.516-0.016,0.707
						C274.887,352.699,274.763,352.745,274.639,352.745z M269.022,346.864c-0.132,0-0.264-0.052-0.361-0.155l-2.105-2.206
						c-0.191-0.2-0.184-0.516,0.016-0.707c0.201-0.19,0.518-0.184,0.707,0.017l2.105,2.206c0.191,0.2,0.184,0.516-0.016,0.707
						C269.27,346.818,269.146,346.864,269.022,346.864z M263.405,340.982c-0.132,0-0.264-0.052-0.361-0.155l-2.106-2.205
						c-0.191-0.2-0.184-0.516,0.016-0.707c0.202-0.19,0.518-0.183,0.707,0.017l2.106,2.205c0.191,0.2,0.184,0.516-0.016,0.707
						C263.653,340.936,263.529,340.982,263.405,340.982z M257.789,335.1c-0.132,0-0.264-0.052-0.361-0.155l-2.106-2.206
						c-0.191-0.2-0.184-0.516,0.016-0.707c0.201-0.19,0.518-0.183,0.707,0.017l2.106,2.206c0.191,0.2,0.184,0.516-0.016,0.707
						C258.037,335.054,257.913,335.1,257.789,335.1z M252.173,329.219c-0.132,0-0.264-0.052-0.361-0.155l-2.107-2.206
						c-0.19-0.2-0.183-0.516,0.017-0.707c0.199-0.19,0.516-0.184,0.707,0.017l2.106,2.206c0.191,0.2,0.184,0.516-0.016,0.707
						C252.421,329.173,252.297,329.219,252.173,329.219z M246.556,323.337c-0.132,0-0.263-0.052-0.362-0.155l-2.106-2.206
						c-0.19-0.2-0.183-0.516,0.017-0.707c0.2-0.19,0.515-0.183,0.707,0.017l2.107,2.206c0.19,0.2,0.183,0.516-0.017,0.707
						C246.805,323.291,246.68,323.337,246.556,323.337z M240.939,317.456c-0.132,0-0.264-0.052-0.362-0.155l-0.656-0.688
						c-0.517-0.542-0.97-1.128-1.346-1.741c-0.145-0.235-0.071-0.543,0.164-0.688c0.235-0.145,0.543-0.072,0.688,0.164
						c0.34,0.553,0.75,1.083,1.218,1.574l0.656,0.687c0.19,0.2,0.183,0.516-0.017,0.707
						C241.188,317.41,241.064,317.456,240.939,317.456z M237.731,310.27c-0.276,0-0.5-0.224-0.5-0.5v-3.05
						c0-0.276,0.224-0.5,0.5-0.5c0.276,0,0.5,0.224,0.5,0.5v3.05C238.231,310.046,238.008,310.27,237.731,310.27z M237.731,302.137
						c-0.276,0-0.5-0.224-0.5-0.5v-3.05c0-0.276,0.224-0.5,0.5-0.5c0.276,0,0.5,0.224,0.5,0.5v3.05
						C238.231,301.914,238.008,302.137,237.731,302.137z M237.731,294.004c-0.276,0-0.5-0.224-0.5-0.5v-3.05
						c0-0.276,0.224-0.5,0.5-0.5c0.276,0,0.5,0.224,0.5,0.5v3.05C238.231,293.781,238.008,294.004,237.731,294.004z
						 M237.731,285.872c-0.276,0-0.5-0.224-0.5-0.5v-3.05c0-0.276,0.224-0.5,0.5-0.5c0.276,0,0.5,0.224,0.5,0.5v3.05
						C238.231,285.648,238.008,285.872,237.731,285.872z M237.731,277.739c-0.276,0-0.5-0.224-0.5-0.5v-3.05
						c0-0.276,0.224-0.5,0.5-0.5c0.276,0,0.5,0.224,0.5,0.5v3.05C238.231,277.516,238.008,277.739,237.731,277.739z
						 M237.731,269.607c-0.276,0-0.5-0.224-0.5-0.5v-3.05c0-0.276,0.224-0.5,0.5-0.5c0.276,0,0.5,0.224,0.5,0.5v3.05
						C238.231,269.383,238.008,269.607,237.731,269.607z M237.731,261.474c-0.276,0-0.5-0.224-0.5-0.5v-3.05
						c0-0.276,0.224-0.5,0.5-0.5c0.276,0,0.5,0.224,0.5,0.5v3.05C238.231,261.25,238.008,261.474,237.731,261.474z M237.731,253.342
						c-0.276,0-0.5-0.224-0.5-0.5v-3.05c0-0.276,0.224-0.5,0.5-0.5c0.276,0,0.5,0.224,0.5,0.5v3.05
						C238.231,253.118,238.008,253.342,237.731,253.342z M237.731,245.209c-0.276,0-0.5-0.224-0.5-0.5v-3.05
						c0-0.276,0.224-0.5,0.5-0.5c0.276,0,0.5,0.224,0.5,0.5v3.05C238.231,244.985,238.008,245.209,237.731,245.209z
						 M237.731,237.077c-0.276,0-0.5-0.224-0.5-0.5v-3.05c0-0.276,0.224-0.5,0.5-0.5c0.276,0,0.5,0.224,0.5,0.5v3.05
						C238.231,236.853,238.008,237.077,237.731,237.077z M237.731,228.944c-0.276,0-0.5-0.224-0.5-0.5v-3.05
						c0-0.276,0.224-0.5,0.5-0.5c0.276,0,0.5,0.224,0.5,0.5v3.05C238.231,228.72,238.008,228.944,237.731,228.944z M237.731,220.811
						c-0.276,0-0.5-0.224-0.5-0.5v-3.05c0-0.276,0.224-0.5,0.5-0.5c0.276,0,0.5,0.224,0.5,0.5v3.05
						C238.231,220.588,238.008,220.811,237.731,220.811z M237.731,212.679c-0.276,0-0.5-0.224-0.5-0.5v-3.05
						c0-0.276,0.224-0.5,0.5-0.5c0.276,0,0.5,0.224,0.5,0.5v3.05C238.231,212.455,238.008,212.679,237.731,212.679z"/>
				</g>
			</g>
			<path style="fill:#263238;" d="M342.573,292.761l-6.797,3.924c0.592,1.519,0.956,3.116,0.956,4.448v121.276
				c0,1.267-0.33,2.083-0.872,2.399l6.678-3.856c0.545-0.314,0.878-1.13,0.878-2.403l0-121.275
				C343.418,295.716,343.126,294.188,342.573,292.761z"/>
			<path style="fill:#FAFAFA;" d="M318.814,343.09c0-3.269-1.631-7.628-3.642-9.736c-2.012-2.108-3.642-1.166-3.642,2.103
				c0,3.269,1.631,7.628,3.642,9.735C317.184,347.3,318.814,346.359,318.814,343.09z"/>
		</g>
		<g>
			<polygon style="fill:#37474F;" points="411.866,298.95 428.721,308.681 411.866,318.412 			"/>
			<path style="fill:#455A64;" d="M424.659,311.026l3.794-2.19c1.196-0.69,1.794-1.595,1.794-2.5c0-0.905-0.598-1.81-1.794-2.5
				l-16.585-9.575l-0.001,4.69l11.571,6.68c0.543,0.313,0.543,1.097,0,1.41l-2.841,1.64L424.659,311.026z"/>
			<path style="fill:#455A64;" d="M400.823,320.1c-4.783,2.761-8.66,9.199-8.66,14.379c0,2.499,0.902,4.249,2.374,5.08
				c1.578,0.892,4.111,2.371,4.111,2.371l25.743-16.679c1.194-0.689,1.792-1.592,1.794-2.496v-18.762c0,0.905-0.598,1.81-1.794,2.5
				L400.823,320.1z"/>
			<path style="fill:#37474F;" d="M404.885,322.443c-4.783,2.762-8.66,9.199-8.66,14.379s3.877,7.14,8.66,4.379l23.567-13.607
				c1.194-0.689,1.792-1.592,1.794-2.495v-18.762c0,0.905-0.598,1.81-1.794,2.5L404.885,322.443z"/>
			<path style="fill:#455A64;" d="M424.659,306.336"/>
			<path style="fill:#FAFAFA;" d="M406.349,325.247c2.75-1.588,4.978-0.301,4.977,2.875c-0.002,3.176-2.231,7.038-4.98,8.626
				s-4.977,0.301-4.977-2.875C401.37,330.697,403.599,326.835,406.349,325.247z"/>
		</g>
		<path style="fill:#455A64;" d="M339.966,288.657l-99.319-104.065c-0.99-1.037-1.67-2.174-2.05-3.337l-3.375,8.516l98.06,102.746
			c1.098,1.253,1.932,2.642,2.495,4.17l6.797-3.924C341.996,291.313,341.184,289.928,339.966,288.657z"/>
	</g>
</g>
<g id="Speech_Bubble">
	<g id="Speech_Bubble_13_">
		<g id="Speech_Bubble_12_">
			<path id="XMLID_5247_" style="fill:#263238;" d="M338.121,165.29l5.253-9.878l-4.227-12.201v-7.469l12.935,7.469v7.468
				l-5.561,9.632c-0.094,0.163-0.229,0.269-0.378,0.336l0.003,0.005L338.121,165.29z"/>
			<path id="XMLID_1094_" style="fill:#37474F;" d="M302.822,73.941c0-2.473,1.736-5.48,3.878-6.718l3.158-1.823
				c2.141-1.237,5.614-1.237,7.756,0l61.166,35.151c2.142,1.237,3.879,4.244,3.879,6.717v53.283c0,2.474-1.737,5.481-3.879,6.718
				l-3.158,1.823c-2.142,1.236-5.615,1.236-7.757,0l-23.905-13.708l-5.55,9.613c-0.355,0.615-1.268,0.527-1.5-0.143l-5.865-16.932
				l-24.346-13.981c-2.142-1.236-3.878-4.243-3.878-6.717L302.822,73.941z"/>
			<path id="XMLID_1093_" style="fill:#263238;" d="M382.658,160.552c0,2.473-1.737,5.48-3.878,6.717l-3.158,1.823
				c-1.936,1.118-4.948,1.215-7.094,0.313c1.825,0.69,3.215-0.34,3.215-2.552l0.001-53.284c0-1.237-0.434-2.607-1.136-3.822
				l10.914-6.301c0.702,1.215,1.136,2.585,1.136,3.822V160.552z"/>
			<path id="XMLID_1092_" style="fill:#455A64;" d="M302.949,72.839c0.452-1.646,1.954-2.171,3.745-1.14l61.174,35.157
				c1.067,0.615,2.044,1.664,2.732,2.895l10.91-6.296c-0.706-1.23-1.665-2.28-2.732-2.895l-61.156-35.158
				c-2.153-1.23-5.626-1.23-7.762,0l-3.166,1.827C304.866,68.28,303.329,70.631,302.949,72.839z"/>
		</g>
		<g>
			<path style="fill:#27DEBF;" d="M361,115.882l-44.72-25.819c-0.882-0.509-1.596-0.096-1.596,0.922v30.891
				c0,1.018,0.715,2.256,1.596,2.765l44.72,25.819c0.882,0.509,1.596,0.096,1.596-0.921l0.001-30.891
				C362.596,117.629,361.881,116.391,361,115.882z"/>
			<g>
				<path style="fill:#455A64;" d="M356.329,145.096c-0.127,0-0.255-0.033-0.368-0.099l-36.485-21.065
					c-0.228-0.131-0.369-0.375-0.369-0.638c0-1.313-0.706-2.536-1.843-3.192c-0.229-0.131-0.369-0.375-0.369-0.638V98.08
					c0-0.263,0.141-0.507,0.369-0.638c0.227-0.132,0.51-0.131,0.736,0c0.464,0.267,1.015,0.266,1.475,0
					c0.462-0.267,0.737-0.744,0.737-1.277c0-0.263,0.141-0.507,0.369-0.638c0.227-0.132,0.51-0.131,0.736-0.001l36.486,21.065
					c0.228,0.131,0.369,0.375,0.369,0.638c0,1.313,0.706,2.536,1.843,3.192c0.229,0.132,0.369,0.376,0.369,0.639l-0.001,21.384
					c0,0.263-0.141,0.507-0.369,0.638c-0.227,0.132-0.51,0.131-0.736,0.001c-0.464-0.268-1.015-0.266-1.475,0
					c-0.462,0.267-0.737,0.744-0.737,1.276c0,0.263-0.141,0.507-0.369,0.638C356.584,145.063,356.456,145.096,356.329,145.096z
					 M320.563,122.858l35.257,20.355c0.243-0.582,0.673-1.077,1.247-1.408c0.573-0.331,1.22-0.457,1.843-0.376l0.001-19.965
					c-1.255-0.875-2.063-2.273-2.193-3.798L321.459,97.31c-0.243,0.582-0.673,1.077-1.247,1.408
					c-0.573,0.332-1.216,0.457-1.843,0.376v19.965C319.624,119.935,320.432,121.334,320.563,122.858z"/>
			</g>
			<g>
				<path style="fill:#455A64;" d="M341.589,129.524c-1.033,0-2.162-0.337-3.317-1.004c-3.843-2.218-6.969-7.632-6.969-12.068
					c0-2.31,0.817-4.054,2.301-4.911c1.485-0.857,3.404-0.692,5.404,0.462c3.843,2.219,6.969,7.633,6.969,12.069
					c0,2.31-0.817,4.054-2.302,4.911C343.048,129.344,342.344,129.524,341.589,129.524z M335.695,112.475
					c-0.501,0-0.957,0.114-1.355,0.343c-1.008,0.583-1.563,1.873-1.563,3.634c0,3.967,2.795,8.808,6.23,10.792
					c1.525,0.881,2.921,1.044,3.93,0.462c1.009-0.582,1.565-1.873,1.565-3.634c0-3.967-2.795-8.808-6.23-10.793
					C337.346,112.745,336.468,112.475,335.695,112.475z"/>
			</g>
		</g>
	</g>
</g>
<g id="Coin_1_">
	<g id="Coin">
		<g id="XMLID_1080_">
			<path style="fill:#27DEBF;" d="M83.255,50.535c-3.478-1.979-8.058-1.955-13.221,0.529c-12.216,5.876-23.072,23.292-24.249,38.9
				c-0.666,8.835,1.914,15.193,6.493,17.983c1.175,0.716,5.721,3.294,6.805,3.938c3.498,2.078,8.144,2.095,13.392-0.429
				c12.216-5.876,23.072-23.292,24.248-38.9c0.676-8.973-1.995-15.391-6.709-18.111C88.897,53.8,84.409,51.192,83.255,50.535z"/>
			<path style="opacity:0.25;" d="M83.255,50.535c-3.478-1.979-8.058-1.955-13.221,0.529c-12.216,5.876-23.072,23.292-24.249,38.9
				c-0.666,8.835,1.914,15.193,6.493,17.983c1.175,0.716,5.721,3.294,6.805,3.938c3.498,2.078,8.144,2.095,13.392-0.429
				c12.216-5.876,23.072-23.292,24.248-38.9c0.676-8.973-1.995-15.391-6.709-18.111C88.897,53.8,84.409,51.192,83.255,50.535z"/>
			<path style="opacity:0.1;" d="M94.897,82.1L58.105,60.858c-6.68,8.012-11.553,18.941-12.32,29.107
				c-0.666,8.835,1.914,15.193,6.493,17.983c1.175,0.716,5.72,3.294,6.805,3.938c3.498,2.078,8.144,2.095,13.392-0.429
				C82.231,106.765,91.113,94.713,94.897,82.1z"/>
			<path style="opacity:0.1;" d="M47.822,79.754c-1.07,3.399-1.782,6.846-2.036,10.211c-0.666,8.835,1.914,15.193,6.493,17.983
				c1.175,0.716,5.72,3.294,6.805,3.938c3.498,2.078,8.144,2.095,13.392-0.429c4.436-2.133,8.688-5.792,12.366-10.329L47.822,79.754
				z"/>
			<path id="XMLID_1089_" style="fill:#27DEBF;" d="M76.738,54.935c-12.215,5.876-23.072,23.292-24.249,38.9
				c-1.177,15.608,7.772,23.498,19.988,17.622c12.216-5.876,23.072-23.292,24.248-38.9C97.902,56.948,88.953,49.059,76.738,54.935z"
				/>
			<path id="XMLID_1087_" style="opacity:0.2;" d="M76.738,54.935c-12.215,5.876-23.072,23.292-24.249,38.9
				c-1.177,15.608,7.772,23.498,19.988,17.622c12.216-5.876,23.072-23.292,24.248-38.9C97.902,56.948,88.953,49.059,76.738,54.935z"
				/>
			<g id="XMLID_1081_">
				<path id="XMLID_1086_" style="fill:#27DEBF;" d="M88.84,76.116c-0.571,4.769-2.519,10.018-5.492,14.788
					c-2.971,4.765-6.631,8.512-10.299,10.543c-3.887,2.153-7.376,2.15-9.819-0.004c-2.443-2.154-3.456-6.119-2.853-11.168
					c0.564-4.768,2.514-10.022,5.485-14.787c2.973-4.77,6.63-8.512,10.306-10.545c3.884-2.148,7.369-2.148,9.812,0.005
					C88.422,67.102,89.439,71.071,88.84,76.116z"/>
				<path id="XMLID_1085_" style="opacity:0.4;" d="M88.84,76.116c-0.571,4.769-2.519,10.018-5.492,14.788
					c-2.971,4.765-6.631,8.512-10.299,10.543c-3.887,2.153-7.376,2.15-9.819-0.004c-2.443-2.154-3.456-6.119-2.853-11.168
					c0.564-4.768,2.514-10.022,5.485-14.787c2.973-4.77,6.63-8.512,10.306-10.545c3.884-2.148,7.369-2.148,9.812,0.005
					C88.422,67.102,89.439,71.071,88.84,76.116z"/>
				<path id="XMLID_1082_" style="fill:#27DEBF;" d="M91.006,56.884c-3.377-2.977-8.253-3.167-13.72-0.54
					c-5.699,2.748-11.296,8.191-15.747,15.332c-4.451,7.141-7.2,15.086-7.754,22.37c-0.528,6.991,1.045,12.478,4.423,15.455
					c3.382,2.982,8.249,3.173,13.72,0.54c5.705-2.743,11.298-8.18,15.749-15.321c4.451-7.141,7.204-15.092,7.752-22.381
					C95.953,65.354,94.388,59.866,91.006,56.884z M85.979,64.948c2.443,2.154,3.46,6.123,2.86,11.167
					c-0.571,4.769-2.519,10.018-5.492,14.788c-2.971,4.765-6.631,8.512-10.299,10.543c-3.887,2.153-7.376,2.15-9.819-0.004
					c-2.443-2.154-3.456-6.119-2.853-11.168c0.564-4.768,2.514-10.022,5.485-14.787c2.973-4.77,6.63-8.512,10.306-10.545
					C80.052,62.795,83.536,62.795,85.979,64.948z"/>
			</g>
		</g>
		<g id="XMLID_475_">
			<path id="XMLID_1079_" style="opacity:0.2;" d="M76.646,66.038c7.297-4.036,12.3,0.375,11.174,9.852
				c-1.126,9.477-7.954,20.431-15.251,24.467c-7.297,4.036-12.3-0.375-11.174-9.852C62.521,81.028,69.349,70.074,76.646,66.038z"/>
			<path id="XMLID_1078_" style="fill:#27DEBF;" d="M76.646,66.038c7.297-4.036,12.3,0.375,11.174,9.852
				c-1.126,9.477-7.954,20.431-15.251,24.467c-7.297,4.036-12.3-0.375-11.174-9.852C62.521,81.028,69.349,70.074,76.646,66.038z"/>
			<path id="XMLID_856_" style="opacity:0.6;" d="M76.646,66.038c7.297-4.036,12.3,0.375,11.174,9.852
				c-1.126,9.477-7.954,20.431-15.251,24.467c-7.297,4.036-12.3-0.375-11.174-9.852C62.521,81.028,69.349,70.074,76.646,66.038z"/>
			<path id="XMLID_834_" style="fill:#27DEBF;" d="M85.727,74.044c-1.126,9.477-7.954,20.431-15.251,24.466
				c-3.017,1.669-5.64,1.89-7.602,0.909c-1.359-1.947-1.944-4.996-1.479-8.915c1.126-9.476,7.954-20.431,15.251-24.466
				c3.018-1.669,5.641-1.89,7.602-0.909C85.608,67.076,86.193,70.125,85.727,74.044z"/>
			<path id="XMLID_483_" style="opacity:0.5;" d="M85.727,74.044c-1.126,9.477-7.954,20.431-15.251,24.466
				c-3.017,1.669-5.64,1.89-7.602,0.909c-1.359-1.947-1.944-4.996-1.479-8.915c1.126-9.476,7.954-20.431,15.251-24.466
				c3.018-1.669,5.641-1.89,7.602-0.909C85.608,67.076,86.193,70.125,85.727,74.044z"/>
		</g>
		<g id="XMLID_420_">
			<path style="fill:#27DEBF;" d="M78.654,79.513c-0.88-0.55-2.162-0.343-3.489,0.045c-0.397,0.118-0.779,0.248-1.148,0.373
				c0.298-0.592,0.839-1.111,1.528-1.527c1.753-1.059,2.493-0.158,2.672,0.728l4.237-3.798c-0.12-0.465-0.289-0.845-0.483-1.161
				c-0.217-0.341-0.479-0.597-0.774-0.78c-0.194-0.121-3.074-1.697-3.358-1.776c-0.25-0.069-0.516-0.102-0.793-0.105l-0.019-0.506
				l-2.734-1.505l-3.327,2.003l0.021,0.601l0.076,2.066c0,0-1.643,0.685-3.416,3.796c-0.075,0.132-0.14,0.255-0.204,0.377
				c-0.71,1.341-1.094,2.786-1.033,4.269c-0.007,0.012-0.007,0.012-0.007,0.012c0.061,1.432,0.497,2.236,1.146,2.634
				c0.066,0.04,2.316,1.229,2.68,1.47c0.082,0.054,0.168,0.102,0.257,0.143c0.065,0.03,0.14,0.049,0.204,0.079l0.022,0.01
				c0.075,0.02,0.151,0.039,0.227,0.059c0.067,0.015,0.134,0.032,0.208,0.035c0.033,0,0.058,0.012,0.087,0.009
				c0.054,0.01,0.108,0.02,0.165,0.015c0.469,0.034,0.98-0.035,1.492-0.133c0.252-0.051,0.51-0.114,0.771-0.191
				c0.373-0.102,0.748-0.217,1.103-0.327c0.117-0.041,0.225-0.074,0.334-0.108c-0.282,0.49-0.764,0.989-1.527,1.449
				c-0.393,0.236-0.742,0.394-1.048,0.479l-1.553-0.855l-4.021,3.639c0.25,0.707,0.625,1.225,1.119,1.552
				c0.494,0.328,2.431,1.325,2.858,1.581c0.339,0.203,0.73,0.321,1.174,0.352l0.024,0.59l2.733,1.505l3.359-2.019l-0.108-2.657
				c1.401-1.069,2.537-2.32,3.302-3.681l0.02-0.036c0.77-1.389,1.169-2.889,1.106-4.464c-0.058-1.485-0.484-2.316-1.132-2.73
				C80.898,80.702,79.037,79.753,78.654,79.513z"/>
			<path style="opacity:0.3;" d="M78.654,79.513c-0.88-0.55-2.162-0.343-3.489,0.045c-0.397,0.118-0.779,0.248-1.148,0.373
				c0.298-0.592,0.839-1.111,1.528-1.527c1.753-1.059,2.493-0.158,2.672,0.728l4.237-3.798c-0.12-0.465-0.289-0.845-0.483-1.161
				c-0.217-0.341-0.479-0.597-0.774-0.78c-0.194-0.121-3.074-1.697-3.358-1.776c-0.25-0.069-0.516-0.102-0.793-0.105l-0.019-0.506
				l-2.734-1.505l-3.327,2.003l0.021,0.601l0.076,2.066c0,0-1.643,0.685-3.416,3.796c-0.075,0.132-0.14,0.255-0.204,0.377
				c-0.71,1.341-1.094,2.786-1.033,4.269c-0.007,0.012-0.007,0.012-0.007,0.012c0.061,1.432,0.497,2.236,1.146,2.634
				c0.066,0.04,2.316,1.229,2.68,1.47c0.082,0.054,0.168,0.102,0.257,0.143c0.065,0.03,0.14,0.049,0.204,0.079l0.022,0.01
				c0.075,0.02,0.151,0.039,0.227,0.059c0.067,0.015,0.134,0.032,0.208,0.035c0.033,0,0.058,0.012,0.087,0.009
				c0.054,0.01,0.108,0.02,0.165,0.015c0.469,0.034,0.98-0.035,1.492-0.133c0.252-0.051,0.51-0.114,0.771-0.191
				c0.373-0.102,0.748-0.217,1.103-0.327c0.117-0.041,0.225-0.074,0.334-0.108c-0.282,0.49-0.764,0.989-1.527,1.449
				c-0.393,0.236-0.742,0.394-1.048,0.479l-1.553-0.855l-4.021,3.639c0.25,0.707,0.625,1.225,1.119,1.552
				c0.494,0.328,2.431,1.325,2.858,1.581c0.339,0.203,0.73,0.321,1.174,0.352l0.024,0.59l2.733,1.505l3.359-2.019l-0.108-2.657
				c1.401-1.069,2.537-2.32,3.302-3.681l0.02-0.036c0.77-1.389,1.169-2.889,1.106-4.464c-0.058-1.485-0.484-2.316-1.132-2.73
				C80.898,80.702,79.037,79.753,78.654,79.513z"/>
			<g style="opacity:0.1;">
				<path d="M77.899,81.063c1.297-0.379,2.552-0.587,3.43-0.084c-0.585-0.356-2.306-1.236-2.674-1.466
					c-0.88-0.55-2.162-0.343-3.489,0.045c-0.397,0.118-0.779,0.248-1.148,0.373l0,0c-0.174,0.348-0.269,0.733-0.254,1.125
					C73.831,82.756,75.736,81.706,77.899,81.063z"/>
				<path d="M72.101,94.517l0.024,0.59l2.733,1.505v0l-0.108-2.657C73.727,94.389,72.845,94.57,72.101,94.517z"/>
				<path d="M69.684,92.536l-2.733-1.505c0.25,0.707,0.625,1.224,1.119,1.552c0.471,0.313,2.243,1.229,2.777,1.534
					C70.333,93.787,69.941,93.264,69.684,92.536z"/>
				<path d="M78.049,86.149c-0.109-0.247-0.317-0.358-0.621-0.376c-0.478-0.038-1.215,0.2-2.237,0.518
					c-0.049,0.015-0.091,0.03-0.091,0.03c-0.282,0.49-0.764,0.989-1.527,1.449c-0.393,0.236-0.742,0.394-1.048,0.479l1.181,0.649
					c0.249,1.039,1.115,1.27,2.601,0.377c1.397-0.843,1.878-1.82,1.847-2.622C78.143,86.45,78.109,86.283,78.049,86.149z"/>
				<polygon points="70.966,71.505 73.7,73.01 73.797,75.677 71.063,74.172 				"/>
			</g>
			<g id="XMLID_437_">
				<path id="XMLID_442_" style="fill:#27DEBF;" d="M73.721,73.611l0.076,2.066c0,0-1.644,0.685-3.416,3.796
					c-0.075,0.132-0.14,0.255-0.204,0.377c-0.71,1.341-1.094,2.786-1.033,4.269c-0.007,0.012-0.007,0.012-0.007,0.012
					c0.067,1.577,0.589,2.393,1.35,2.742c0.064,0.03,0.14,0.049,0.204,0.079l0.022,0.01c0.075,0.02,0.151,0.039,0.227,0.059
					c0.067,0.015,0.134,0.032,0.208,0.035c0.033,0,0.058,0.012,0.087,0.009c0.054,0.01,0.108,0.02,0.165,0.015
					c0.469,0.034,0.98-0.035,1.492-0.133c0.252-0.051,0.51-0.114,0.771-0.191c0.373-0.102,0.748-0.217,1.103-0.327
					c0.149-0.053,0.287-0.095,0.426-0.138c1.016-0.336,1.759-0.555,2.237-0.518c0.304,0.019,0.512,0.129,0.621,0.376
					c0.06,0.133,0.094,0.301,0.104,0.503c0.031,0.802-0.45,1.779-1.847,2.622c-1.486,0.894-2.352,0.662-2.601-0.377l-4.022,3.639
					c0.717,2.027,2.442,2.532,5.067,1.419l0.108,2.657l3.359-2.019l-0.108-2.657c1.401-1.069,2.537-2.32,3.302-3.681l0.021-0.036
					c0.77-1.389,1.169-2.889,1.106-4.464c-0.136-3.503-2.322-3.37-4.639-2.692c-2.162,0.643-4.068,1.693-4.136-0.006
					c-0.039-1.064,0.684-1.99,1.783-2.652c1.753-1.059,2.493-0.158,2.672,0.728l4.237-3.798c-0.12-0.465-0.289-0.845-0.483-1.162
					c-0.36-0.564-0.841-0.897-1.399-1.051c-0.989-0.274-2.219,0.011-3.444,0.554l-0.101-2.669L73.7,73.01L73.721,73.611z"/>
			</g>
			<polygon id="XMLID_436_" style="fill:#F5F5F5;" points="78.217,94.593 74.859,96.612 74.751,93.955 75.176,96.03 			"/>
			<path id="XMLID_435_" style="fill:#F5F5F5;" d="M73.705,88.897l-4.022,3.639l3.766-3.19c0,0,0.483,1.879,2.856-0.072
				C74.821,90.168,73.954,89.937,73.705,88.897"/>
			<path id="XMLID_434_" style="fill:#F5F5F5;" d="M82.454,75.335c-0.12-0.465-0.289-0.845-0.483-1.162
				c-0.36-0.564-0.841-0.897-1.399-1.051c0,0,1.287,0.476,1.521,2.272l-3.876,3.739L82.454,75.335z"/>
			<polygon id="XMLID_433_" style="fill:#F5F5F5;" points="77.127,73.676 76.765,71.466 73.7,73.01 77.024,71.013 			"/>
		</g>
		<g id="XMLID_413_">
			<path id="XMLID_418_" style="fill:#F5F5F5;" d="M71.73,109.541c8.477-3.812,15.946-14.821,15.946-14.821
				c-4.451,7.141-10.045,12.578-15.749,15.321c-5.471,2.633-10.338,2.442-13.72-0.54C58.207,109.501,63.107,113.418,71.73,109.541z"
				/>
			<path id="XMLID_416_" style="fill:#F5F5F5;" d="M59.193,72.895c4.513-7.998,10.823-14.727,17.545-17.96
				c6.99-3.363,12.911-2.217,16.477,2.303c0,0-5.998-7.067-16.514-1.616C66.183,61.072,59.193,72.895,59.193,72.895z"/>
		</g>
	</g>
</g>
</svg>
