<?xml version="1.0" encoding="utf-8"?>
<!-- Generator: Adobe Illustrator 27.5.0, SVG Export Plug-In . SVG Version: 6.00 Build 0)  -->
<svg version="1.1" xmlns="http://www.w3.org/2000/svg" xmlns:xlink="http://www.w3.org/1999/xlink" x="0px" y="0px"
	 viewBox="0 0 500 500" style="enable-background:new 0 0 500 500;" xml:space="preserve">
<g id="Background_Simple">
	<g>
		<path style="fill:#92E3A9;" d="M424.816,112.593c-33.148-33.987-78.915-56.691-125.076-67.238
			c-6.672-1.524-13.389-2.851-20.138-3.991C177.225,24.071,114.626,115.004,96.466,154.276
			c-18.16,39.272-65.89,124.356-65.198,174.853c0.692,50.497,107.22,139.04,217.206,141.806
			c109.986,2.767,196.453-57.414,215.131-151.49c7.876-39.669,15.973-81.678,7.524-121.94
			C464.129,164.147,447.402,135.751,424.816,112.593z"/>
		<path style="opacity:0.7;fill:#FFFFFF;" d="M424.816,112.593c-33.148-33.987-78.915-56.691-125.076-67.238
			c-6.672-1.524-13.389-2.851-20.138-3.991C177.225,24.071,114.626,115.004,96.466,154.276
			c-18.16,39.272-65.89,124.356-65.198,174.853c0.692,50.497,107.22,139.04,217.206,141.806
			c109.986,2.767,196.453-57.414,215.131-151.49c7.876-39.669,15.973-81.678,7.524-121.94
			C464.129,164.147,447.402,135.751,424.816,112.593z"/>
	</g>
</g>
<g id="Floor">
	<line style="fill:none;stroke:#263238;stroke-miterlimit:10;" x1="29.884" y1="436.557" x2="483.665" y2="436.557"/>
</g>
<g id="Plants">
	<g style="opacity:0.15;">
		<path d="M63.533,316.956c5.624,0.184,17.235-4.745,17.245-4.749c0.12-0.051-5.573-6.667-5.98-7.043
			c-4.712-4.355-16.378-9.997-22.638-6.469c-4.509,2.542-5.26,8.367-2.398,12.425C52.686,315.265,58.743,316.797,63.533,316.956z"/>
		<path d="M81.091,349.285c5.258-1.255,14.507-8.45,15.241-9.026c3.982,5.196,8.489,10.205,13.33,15.023
			c2.764,2.758,5.635,5.449,8.546,8.111c-1.51-1.017-2.868-1.915-3.071-2.022c-5.696-2.955-18.438-5.316-23.541-0.26
			c-3.68,3.642-2.865,9.457,0.968,12.616c3.912,3.226,10.162,3.105,14.822,1.992c4.73-1.128,12.739-7.105,14.837-8.716
			c1.128,1.01,2.242,2.031,3.374,3.035c5.429,4.824,10.867,9.614,16.057,14.476c1.83,1.712,3.569,3.466,5.316,5.214
			c-1.343-0.903-2.48-1.651-2.666-1.748c-5.695-2.954-18.436-5.317-23.542-0.26c-3.678,3.643-2.865,9.458,0.968,12.617
			c3.915,3.226,10.162,3.104,14.823,1.992c4.514-1.076,11.956-6.527,14.458-8.428c1.735,1.844,3.475,3.689,5.073,5.554
			c1.062,1.298,2.176,2.474,3.169,3.838c1.014,1.329,2.015,2.645,3.008,3.949c1.82,2.579,3.714,5.229,5.426,7.791
			c1.204,1.772,2.32,3.484,3.448,5.204c-1.802-1.726-5.4-5.03-5.732-5.273c-5.18-3.784-17.417-8.047-23.23-3.824
			c-4.187,3.044-4.264,8.915-0.953,12.617c3.38,3.781,9.573,4.608,14.349,4.215c5.258-0.434,15.116-5.876,16.343-6.564
			c1.857,2.853,3.636,5.646,5.272,8.309c1.472,2.383,2.839,4.654,4.129,6.834l4.182-1.665c-1.462-2.362-3.021-4.835-4.712-7.443
			c-1.873-2.905-3.934-5.972-6.079-9.101c0.657-0.62,4.37-4.174,7.42-7.927c4.89,2.339,15.369,3.183,16.721,3.283
			c-0.024,3.405-0.082,6.715-0.186,9.839c-0.066,2.151-0.148,4.215-0.24,6.204l4.43-1.764c0.028-1.418,0.053-2.856,0.067-4.352
			c0.04-3.457,0.014-7.152-0.049-10.945c1.36-0.237,12.465-2.242,16.823-5.229c3.951-2.711,8.233-7.262,8.468-12.33
			c0.23-4.96-3.538-9.466-8.708-9.181c-7.173,0.393-13.971,11.426-15.599,17.632c-0.097,0.366-0.696,4.455-1.031,7.04
			c-0.034-1.549-0.05-3.055-0.105-4.65c-0.085-3.155-0.265-6.301-0.445-9.686c-0.144-1.632-0.29-3.28-0.437-4.945
			c-0.112-1.654-0.439-3.387-0.652-5.097c-0.578-3.957-1.357-7.937-2.23-11.929c2.762-0.083,12.567-0.516,16.904-2.607
			c4.317-2.081,9.238-5.93,10.237-10.903c0.979-4.869-2.063-9.894-7.215-10.396c-7.152-0.697-15.541,9.179-18.092,15.067
			c-0.16,0.366-1.514,4.797-2.212,7.244c-0.544-2.396-1.075-4.789-1.703-7.196c-1.814-6.946-3.867-13.919-5.883-20.887
			c-0.619-2.134-1.21-4.267-1.809-6.401c0.984-0.019,12.648-0.281,17.507-2.623c4.317-2.079,9.239-5.93,10.237-10.903
			c0.979-4.868-2.063-9.893-7.214-10.395c-7.151-0.698-15.541,9.178-18.092,15.065c-0.192,0.443-2.133,6.821-2.548,8.467
			c-1.32-4.7-2.59-9.394-3.655-14.074c-1.479-6.453-2.572-12.868-3.172-19.161c0.458-0.007,12.635-0.228,17.61-2.624
			c4.317-2.081,9.239-5.931,10.238-10.904c0.979-4.869-2.062-9.893-7.215-10.396c-7.152-0.697-15.54,9.179-18.092,15.066
			c-0.199,0.462-2.284,7.324-2.574,8.596c-0.034-0.374-0.112-0.758-0.142-1.132c-0.555-6.726-0.249-13.311,0.341-19.462
			c0.335-3.575,0.856-6.974,1.436-10.269c2.273,0.192,12.666,0.953,17.382-0.71c4.519-1.594,9.834-4.881,11.372-9.713
			c1.508-4.732-0.963-10.06-6.029-11.125c-7.032-1.478-16.455,7.416-19.637,12.988c-0.173,0.302-1.59,3.577-2.589,5.977
			c0.284-1.484,0.55-3.019,0.852-4.434c1.118-5.318,2.469-10.117,3.7-14.36c0.719-2.406,1.417-4.567,2.093-6.584
			c2.327-0.974,11.658-5.022,15.016-8.605c3.275-3.497,6.479-8.862,5.618-13.861c-0.844-4.895-5.493-8.485-10.478-7.095
			c-6.922,1.927-11.187,14.164-11.444,20.575c-0.021,0.554,0.627,9.259,0.749,9.209c0,0,0.113-0.047,0.141-0.058
			c-0.689,1.926-1.404,4-2.14,6.281c-1.327,4.223-2.786,9.007-4.023,14.32c-1.251,5.308-2.461,11.108-3.184,17.334
			c-0.733,6.239-1.184,12.839-0.77,19.7c0.004,0.077,0.02,0.158,0.024,0.236c-0.744-1.97-3.009-7.406-3.23-7.803
			c-3.12-5.606-12.443-14.606-19.492-13.206c-5.076,1.01-7.607,6.309-6.152,11.058c1.487,4.85,6.762,8.194,11.265,9.838
			c5.076,1.854,16.761,0.954,17.691,0.88c0.453,6.53,1.451,13.194,2.829,19.882c0.785,3.826,1.695,7.653,2.655,11.481
			c-0.698-1.682-1.335-3.181-1.447-3.38c-3.121-5.607-12.443-14.605-19.492-13.205c-5.078,1.009-7.607,6.309-6.152,11.057
			c1.485,4.851,6.762,8.195,11.263,9.839c4.568,1.667,14.546,1.101,17.183,0.916c0.384,1.464,0.751,2.931,1.14,4.393
			c1.867,7.018,3.761,14.013,5.407,20.931c0.582,2.438,1.065,4.859,1.557,7.28c-0.621-1.492-1.158-2.745-1.259-2.927
			c-3.121-5.607-12.444-14.606-19.491-13.206c-5.078,1.01-7.609,6.309-6.154,11.059c1.484,4.848,6.763,8.194,11.265,9.837
			c4.358,1.592,13.573,1.152,16.709,0.946c0.429,2.496,0.863,4.993,1.167,7.431c0.169,1.669,0.448,3.263,0.526,4.95
			c0.111,1.666,0.222,3.318,0.331,4.952c0.094,3.156,0.212,6.411,0.227,9.491c0.027,2.143,0.012,4.186,0.004,6.242
			c-0.551-2.433-1.729-7.174-1.872-7.559c-1.485-3.996-5.455-9.873-10.056-13.284c-0.216-0.591-0.481-1.161-0.805-1.703
			c-2.546-4.264-8.173-5.944-12.328-2.855c-5.766,4.286-5.349,17.238-3.284,23.312c0.122,0.359,1.877,4.099,3.024,6.441
			c-0.885-1.273-1.726-2.521-2.652-3.821c-1.813-2.583-3.698-5.108-5.715-7.834c-1.02-1.281-2.052-2.574-3.094-3.882
			c-1.004-1.317-2.233-2.582-3.355-3.891c-2.665-2.98-5.511-5.871-8.441-8.719c2.26-1.593,10.198-7.364,12.662-11.499
			c2.454-4.116,4.433-10.043,2.524-14.741c-1.871-4.601-7.178-7.115-11.752-4.691c-6.35,3.363-7.9,16.229-6.78,22.547
			c0.07,0.394,1.384,4.836,2.152,7.263c-1.775-1.698-3.539-3.402-5.391-5.062c-5.344-4.794-10.903-9.479-16.429-14.176
			c-1.693-1.438-3.362-2.891-5.04-4.339c0.81-0.559,10.395-7.214,13.155-11.846c2.453-4.116,4.434-10.042,2.523-14.742
			c-1.87-4.6-7.178-7.114-11.752-4.69c-6.35,3.363-7.9,16.228-6.78,22.546c0.085,0.476,1.984,6.865,2.546,8.466
			c-3.692-3.191-7.342-6.405-10.812-9.721c-4.793-4.568-9.244-9.314-13.216-14.231c0.378-0.26,10.412-7.161,13.24-11.905
			c2.453-4.117,4.434-10.043,2.523-14.742c-1.869-4.601-7.177-7.113-11.752-4.69c-6.349,3.363-7.899,16.228-6.778,22.546
			c0.088,0.496,2.135,7.37,2.595,8.588c-0.236-0.292-0.512-0.569-0.744-0.863c-4.173-5.306-7.55-10.967-10.452-16.423
			c-1.692-3.166-3.132-6.288-4.465-9.356c2-1.094,11.089-6.193,14.104-10.181c2.891-3.824,5.51-9.496,4.128-14.375
			c-1.354-4.779-6.354-7.86-11.166-5.954c-6.681,2.645-9.634,15.264-9.214,21.665c0.023,0.349,0.646,3.862,1.137,6.415
			c-0.58-1.394-1.207-2.822-1.736-4.169c-2-5.051-3.522-9.801-4.835-14.017c-0.728-2.405-1.337-4.593-1.885-6.646
			c1.402-2.098,6.952-10.622,7.776-15.462c0.804-4.724,0.515-10.965-2.961-14.659c-3.404-3.617-9.261-4.047-12.653-0.139
			c-4.71,5.427-1.516,17.986,1.805,23.476c0.288,0.473,5.632,7.375,5.706,7.268c0,0,0.068-0.102,0.084-0.127
			c0.488,1.986,1.036,4.111,1.681,6.419c1.223,4.254,2.645,9.049,4.544,14.164c1.885,5.116,4.076,10.623,6.908,16.213
			c2.831,5.607,6.094,11.362,10.225,16.856c0.047,0.062,0.104,0.121,0.151,0.183c-1.708-1.232-6.596-4.516-7.001-4.726
			c-5.695-2.955-18.436-5.316-23.542-0.261c-3.677,3.643-2.865,9.459,0.969,12.618C70.185,350.518,76.431,350.397,81.091,349.285z"
			/>
		<path d="M183.074,272.341c0.129,0.024-0.97-8.636-1.101-9.174c-1.529-6.231-8.147-17.373-15.314-17.883
			c-5.163-0.368-9.002,4.076-8.852,9.041c0.151,5.069,4.358,9.689,8.266,12.463C170.66,270.045,183.065,272.338,183.074,272.341z"/>
	</g>
	<g style="opacity:0.15;">
		<path d="M465.503,282.733c-5.191,2.172-17.796,1.693-17.806,1.693c-0.13-0.005,2.838-8.213,3.085-8.709
			c2.855-5.746,11.753-15.168,18.858-14.096c5.118,0.772,7.891,5.95,6.659,10.761C475.039,277.297,469.923,280.882,465.503,282.733z
			"/>
		<path d="M321.1,290.388c4.999-0.123,14.442-4.53,16.499-5.517c1.713,2.873,3.409,5.865,4.993,9.087
			c2.738,5.54,5.366,11.586,7.239,18.069c0.105,0.36,0.169,0.747,0.27,1.109c-0.723-1.085-5.112-6.758-5.462-7.119
			c-4.478-4.595-15.83-10.843-22.267-7.649c-4.637,2.302-5.693,8.079-3.047,12.282c2.701,4.293,8.671,6.141,13.446,6.551
			c5.502,0.471,16.962-3.652,17.392-3.808c1.676,6.095,2.936,12.479,3.848,19.037c0.669,4.752,1.15,9.591,1.588,14.453
			c-0.973-1.391-5.055-6.662-5.392-7.008c-4.477-4.596-15.83-10.843-22.266-7.648c-4.637,2.301-5.693,8.078-3.047,12.281
			c2.701,4.293,8.671,6.143,13.445,6.551c5.373,0.461,16.369-3.441,17.295-3.773c0.198,2.207,0.405,4.411,0.585,6.626
			c0.593,7.229,1.154,14.477,1.928,21.613c0.268,2.473,0.623,4.898,0.966,7.331c-1.522-2.039-4.363-5.699-4.643-5.984
			c-4.477-4.596-15.83-10.843-22.267-7.649c-4.637,2.302-5.693,8.08-3.047,12.282c2.702,4.293,8.67,6.141,13.445,6.551
			c4.797,0.412,14.115-2.67,16.726-3.574c0.604,4.042,1.29,8.038,2.157,11.942c0.409,1.674,0.719,3.41,1.203,4.996
			c0.455,1.608,0.904,3.201,1.35,4.777c1.035,3.228,1.985,6.232,3.027,9.211c0.516,1.51,1.036,2.923,1.555,4.383
			c-1.232-2.297-3.246-5.906-3.467-6.214c-3.728-5.221-14.005-13.116-20.849-10.933c-4.933,1.572-6.853,7.123-4.875,11.678
			c2.021,4.653,7.642,7.384,12.299,8.513c5.135,1.242,16.227-0.832,17.583-1.094c1.289,3.567,2.579,7.031,3.845,10.247
			c0.545,1.393,1.079,2.728,1.61,4.044l4.768,0.074c-0.793-1.826-1.603-3.727-2.43-5.713c-1.208-2.883-2.439-5.956-3.672-9.13
			c1.229-0.574,10.723-5.089,14.461-9.014c4.185,2.424,8.919,4.425,9.754,4.771c-0.893,3.688-1.728,7.287-2.446,10.668
			c-0.654,3.039-1.231,5.905-1.758,8.632l1.753,0.027h2.755c0.429-2.483,0.896-5.077,1.422-7.813
			c0.583-3.071,1.252-6.314,1.973-9.64c1.392,0.207,12.539,1.788,17.609,0.324c4.603-1.33,10.098-4.305,11.912-9.041
			c1.779-4.638-0.381-10.098-5.377-11.454c-6.935-1.881-16.856,6.455-20.353,11.833c-0.225,0.345-2.413,4.713-3.483,6.966
			c0.443-2.009,0.876-4.005,1.372-6.09c0.689-3.002,1.517-6.154,2.301-9.211c0.465-1.572,0.933-3.158,1.408-4.76
			c0.443-1.628,1.066-3.122,1.597-4.714c0.83-2.311,1.801-4.654,2.766-6.995c3.015,0.887,11.908,3.336,16.51,2.737
			c4.753-0.617,10.634-2.725,13.147-7.132c2.459-4.315,1.152-10.04-3.581-12.136c-6.569-2.911-17.638,3.828-21.911,8.614
			c-0.139,0.157-0.937,1.26-1.871,2.582c1.012-2.256,2.013-4.513,3.115-6.764c3.123-6.39,6.502-12.8,9.861-19.239
			c0.701-1.341,1.38-2.691,2.075-4.036c2.534,0.759,12.144,3.498,16.967,2.871c4.751-0.617,10.636-2.726,13.146-7.132
			c2.459-4.315,1.153-10.04-3.582-12.136c-6.568-2.911-17.637,3.826-21.91,8.613c-0.152,0.171-1.102,1.494-2.152,2.982
			c1.775-3.523,3.501-7.059,5.104-10.62c2.811-6.224,5.243-12.508,7.117-18.781c0.891,0.278,12.094,3.715,17.454,3.018
			c4.751-0.618,10.632-2.725,13.145-7.132c2.46-4.315,1.152-10.04-3.581-12.138c-6.57-2.909-17.638,3.828-21.91,8.615
			c-0.303,0.34-3.705,5.147-4.863,6.906c0.022-0.074,0.054-0.15,0.076-0.224c1.908-6.603,2.911-13.143,3.564-19.39
			c0.659-6.232,0.749-12.158,0.692-17.61c-0.043-5.456-0.419-10.443-0.788-14.854c-0.218-2.387-0.461-4.568-0.712-6.597
			c0.023,0.017,0.124,0.088,0.124,0.088c0.108,0.074,2.648-8.277,2.749-8.822c1.152-6.312-0.328-19.186-6.66-22.583
			c-4.56-2.447-9.882,0.037-11.777,4.629c-1.935,4.688,0.014,10.624,2.445,14.754c2.491,4.231,10.709,10.225,12.766,11.687
			c0.217,2.113,0.426,4.375,0.601,6.882c0.272,4.408,0.538,9.388,0.465,14.821c-0.016,1.447-0.093,3.004-0.14,4.513
			c-0.448-2.56-1.115-6.066-1.218-6.4c-1.884-6.133-9.131-16.876-16.316-16.973c-5.175-0.071-8.753,4.587-8.319,9.535
			c0.443,5.052,4.908,9.422,8.97,11.968c4.236,2.655,14.544,4.19,16.803,4.501c-0.155,3.342-0.391,6.772-0.847,10.332
			c-0.772,6.132-1.916,12.624-3.93,19.066c-0.112,0.357-0.272,0.715-0.388,1.072c-0.003-1.302-0.534-8.455-0.628-8.95
			c-1.199-6.303-7.221-17.777-14.352-18.662c-5.138-0.639-9.206,3.597-9.317,8.562c-0.115,5.071,3.843,9.906,7.6,12.881
			c4.329,3.428,16.161,6.311,16.608,6.419c-1.964,6.008-4.436,12.027-7.292,18c-2.065,4.333-4.333,8.635-6.65,12.93
			c-0.044-1.696-0.541-8.343-0.63-8.819c-1.2-6.303-7.223-17.776-14.353-18.662c-5.137-0.639-9.204,3.597-9.316,8.562
			c-0.114,5.071,3.844,9.906,7.6,12.881c4.227,3.348,15.551,6.16,16.508,6.395c-1.053,1.95-2.097,3.902-3.168,5.848
			c-3.495,6.355-7.024,12.71-10.315,19.091c-1.141,2.21-2.183,4.43-3.238,6.648c-0.145-2.541-0.497-7.16-0.571-7.554
			c-1.199-6.303-7.223-17.777-14.353-18.663c-5.137-0.639-9.204,3.598-9.316,8.563c-0.114,5.07,3.844,9.906,7.601,12.881
			c3.773,2.99,13.245,5.56,15.923,6.246c-1.727,3.704-3.358,7.418-4.79,11.151c-0.583,1.622-1.282,3.241-1.753,4.83
			c-0.509,1.593-1.013,3.168-1.511,4.728c-0.916,3.265-1.78,6.295-2.556,9.354c-0.403,1.544-0.746,3.009-1.12,4.514
			c0.239-2.597,0.55-6.717,0.536-7.095c-0.229-6.411-4.444-18.665-11.358-20.621c-4.982-1.409-9.644,2.161-10.508,7.052
			c-0.11,0.622-0.156,1.249-0.147,1.878c-3.088,4.824-4.708,11.729-4.675,15.991c0.003,0.41,0.588,5.26,0.938,7.73
			c-0.738-1.919-1.479-3.823-2.215-5.835c-1.081-2.884-2.128-5.969-3.162-8.952c-0.479-1.566-0.962-3.149-1.451-4.746
			c-0.527-1.604-0.833-3.193-1.269-4.813c-0.583-2.386-1.065-4.875-1.551-7.361c3.004-0.923,11.774-3.787,15.28-6.825
			c3.623-3.136,7.368-8.14,7.031-13.199c-0.329-4.957-4.578-9.01-9.684-8.149c-7.084,1.197-12.598,12.923-13.521,19.273
			c-0.029,0.206-0.086,1.567-0.136,3.183c-0.401-2.438-0.811-4.873-1.133-7.358c-0.921-7.052-1.638-14.263-2.388-21.486
			c-0.156-1.505-0.334-3.007-0.496-4.512c2.531-0.764,12.058-3.783,15.735-6.965c3.622-3.137,7.366-8.139,7.029-13.201
			c-0.328-4.955-4.577-9.01-9.681-8.147c-7.086,1.198-12.6,12.922-13.523,19.272c-0.034,0.226-0.096,1.853-0.151,3.674
			c-0.463-3.919-0.974-7.82-1.601-11.674c-1.09-6.741-2.527-13.324-4.425-19.589c0.895-0.262,12.136-3.575,16.221-7.113
			c3.624-3.138,7.366-8.14,7.031-13.201c-0.33-4.956-4.579-9.009-9.682-8.148c-7.086,1.197-12.6,12.924-13.523,19.273
			c-0.066,0.45-0.25,6.336-0.245,8.442c-0.024-0.075-0.038-0.155-0.061-0.229c-2.053-6.56-4.821-12.568-7.724-18.139
			c-2.889-5.561-6.082-10.553-9.139-15.069c-3.045-4.526-6.11-8.478-8.852-11.954c-1.5-1.871-2.904-3.554-4.234-5.11
			c0.03,0.001,0.152,0.004,0.152,0.004c0.132,0.003-2.358-8.363-2.574-8.874c-2.519-5.901-10.857-15.821-18.012-15.162
			c-5.154,0.474-8.222,5.482-7.271,10.357c0.973,4.979,5.875,8.854,10.18,10.958c4.412,2.155,14.574,2.62,17.095,2.703
			c1.349,1.644,2.769,3.417,4.297,5.409c2.659,3.527,5.629,7.533,8.564,12.106c0.785,1.215,1.58,2.556,2.373,3.841
			c-1.787-1.888-4.276-4.445-4.545-4.666c-4.955-4.076-16.925-9.039-22.972-5.157c-4.355,2.797-4.771,8.655-1.679,12.542
			C310.173,289.323,316.31,290.505,321.1,290.388z"/>
		<path d="M337.91,283.538c-0.112,0.068-2.164-8.417-2.233-8.966c-0.786-6.367,1.437-19.134,7.955-22.16
			c4.695-2.18,9.863,0.609,11.488,5.303c1.661,4.791-0.628,10.605-3.294,14.588C348.697,276.978,337.918,283.532,337.91,283.538z"/>
	</g>
</g>
<g id="Banknotes">
	<g style="opacity:0.3;">
		
			<rect x="108.538" y="118.967" transform="matrix(-0.6731 0.7396 -0.7396 -0.6731 320.7213 156.1151)" style="fill:none;stroke:#000000;stroke-miterlimit:10;" width="34.632" height="59.96"/>
		<path style="fill:none;stroke:#000000;stroke-miterlimit:10;" d="M132.294,173.678c1.553-1.707,4.196-1.831,5.902-0.278
			c0.13,0.118,0.247,0.244,0.359,0.374l13.383-14.707c-0.14-0.099-0.276-0.204-0.406-0.322c-1.707-1.553-1.831-4.196-0.278-5.902
			c0.059-0.064,0.122-0.122,0.184-0.182l-31.686-28.835c-0.054,0.067-0.105,0.135-0.164,0.2c-1.553,1.707-4.196,1.831-5.902,0.278
			c-0.13-0.118-0.247-0.244-0.358-0.374l-13.384,14.707c0.14,0.099,0.276,0.204,0.406,0.322c1.707,1.553,1.831,4.196,0.278,5.902
			c-0.118,0.13-0.244,0.247-0.374,0.359l31.719,28.865C132.071,173.944,132.176,173.808,132.294,173.678z M120.789,144.338
			c2.546-2.798,6.877-3.002,9.675-0.456c2.798,2.546,3.002,6.877,0.456,9.675c-2.546,2.798-6.878,3.002-9.675,0.456
			C118.447,151.467,118.243,147.135,120.789,144.338z"/>
	</g>
	<g style="opacity:0.3;">
		
			<rect x="255.336" y="15.188" transform="matrix(0.2551 0.9669 -0.9669 0.2551 246.7626 -229.9851)" style="fill:none;stroke:#000000;stroke-miterlimit:10;" width="34.632" height="59.96"/>
		<path style="fill:none;stroke:#000000;stroke-miterlimit:10;" d="M296.913,53.2c-0.589-2.231,0.743-4.517,2.974-5.106
			c0.17-0.045,0.339-0.075,0.509-0.098l-5.073-19.227c-0.159,0.064-0.321,0.121-0.491,0.166c-2.231,0.589-4.517-0.743-5.106-2.974
			c-0.022-0.084-0.036-0.169-0.053-0.253l-41.424,10.931c0.027,0.082,0.056,0.162,0.079,0.247c0.589,2.231-0.743,4.517-2.974,5.106
			c-0.17,0.045-0.339,0.075-0.509,0.098l5.073,19.227c0.159-0.064,0.321-0.121,0.491-0.166c2.231-0.589,4.517,0.743,5.106,2.974
			c0.045,0.17,0.075,0.339,0.098,0.509l41.467-10.942C297.015,53.532,296.957,53.37,296.913,53.2z M266.03,46.915
			c-0.965-3.657,1.217-7.405,4.875-8.37c3.657-0.965,7.405,1.217,8.37,4.875c0.965,3.657-1.217,7.404-4.875,8.37
			C270.742,52.755,266.995,50.573,266.03,46.915z"/>
	</g>
	<g style="opacity:0.3;">
		
			<rect x="358.277" y="207.976" transform="matrix(-0.587 -0.8096 0.8096 -0.587 403.3965 681.7134)" style="fill:none;stroke:#000000;stroke-miterlimit:10;" width="34.632" height="59.96"/>
		<path style="fill:none;stroke:#000000;stroke-miterlimit:10;" d="M350.069,239.223c1.355,1.868,0.938,4.481-0.93,5.835
			c-0.142,0.103-0.289,0.192-0.439,0.275l11.672,16.099c0.125-0.117,0.256-0.229,0.398-0.332c1.868-1.354,4.481-0.938,5.835,0.93
			c0.051,0.071,0.095,0.144,0.141,0.217l34.686-25.146c-0.055-0.066-0.111-0.131-0.162-0.202c-1.354-1.868-0.938-4.481,0.93-5.835
			c0.142-0.103,0.289-0.192,0.439-0.275l-11.672-16.099c-0.125,0.117-0.256,0.229-0.398,0.332c-1.868,1.354-4.481,0.938-5.835-0.93
			c-0.103-0.142-0.192-0.29-0.275-0.439l-34.722,25.173C349.854,238.95,349.966,239.081,350.069,239.223z M381.138,233.936
			c2.22,3.062,1.537,7.345-1.525,9.565s-7.345,1.537-9.565-1.525c-2.22-3.063-1.537-7.345,1.525-9.565
			C374.636,230.191,378.918,230.874,381.138,233.936z"/>
	</g>
	<g style="opacity:0.3;">
		
			<rect x="390.809" y="106.315" transform="matrix(0.6333 -0.7739 0.7739 0.6333 44.1684 365.8114)" style="fill:none;stroke:#000000;stroke-miterlimit:10;" width="34.632" height="59.96"/>
		<path style="fill:none;stroke:#000000;stroke-miterlimit:10;" d="M400.397,111.936c-1.462,1.786-4.094,2.049-5.88,0.587
			c-0.136-0.111-0.26-0.231-0.378-0.355l-12.594,15.388c0.145,0.091,0.287,0.189,0.422,0.3c1.786,1.462,2.049,4.094,0.587,5.88
			c-0.055,0.067-0.115,0.128-0.174,0.192l33.155,27.134c0.05-0.07,0.098-0.141,0.153-0.208c1.462-1.786,4.094-2.049,5.88-0.587
			c0.136,0.111,0.26,0.231,0.378,0.355l12.594-15.389c-0.145-0.091-0.287-0.189-0.422-0.3c-1.786-1.461-2.049-4.094-0.587-5.88
			c0.111-0.136,0.231-0.26,0.355-0.378l-33.189-27.162C400.606,111.658,400.508,111.8,400.397,111.936z M413.425,140.633
			c-2.396,2.927-6.711,3.358-9.638,0.962c-2.927-2.396-3.358-6.711-0.962-9.638c2.396-2.927,6.711-3.358,9.638-0.962
			C415.39,133.39,415.821,137.705,413.425,140.633z"/>
	</g>
	<g style="opacity:0.3;">
		
			<rect x="38.485" y="326.661" transform="matrix(-0.587 -0.8096 0.8096 -0.587 -200.1895 611.1512)" style="fill:none;stroke:#000000;stroke-miterlimit:10;" width="34.632" height="59.96"/>
		<path style="fill:none;stroke:#000000;stroke-miterlimit:10;" d="M30.277,357.908c1.354,1.868,0.938,4.481-0.93,5.835
			c-0.142,0.103-0.289,0.192-0.439,0.275l11.672,16.099c0.125-0.117,0.256-0.229,0.398-0.332c1.868-1.354,4.481-0.938,5.835,0.93
			c0.051,0.071,0.095,0.144,0.141,0.217l34.686-25.146c-0.055-0.067-0.111-0.131-0.162-0.202c-1.354-1.868-0.938-4.481,0.93-5.835
			c0.142-0.103,0.289-0.192,0.439-0.275l-11.671-16.099c-0.125,0.117-0.256,0.229-0.398,0.332c-1.868,1.355-4.481,0.938-5.835-0.93
			c-0.103-0.142-0.192-0.289-0.275-0.439L29.945,357.51C30.062,357.635,30.174,357.766,30.277,357.908z M61.346,352.621
			c2.22,3.062,1.537,7.345-1.525,9.565c-3.062,2.22-7.345,1.537-9.565-1.525c-2.22-3.062-1.537-7.345,1.525-9.565
			C54.844,348.876,59.126,349.559,61.346,352.621z"/>
	</g>
</g>
<g id="Character_1_">
	<g>
		<g>
			<path style="fill:#92E3A9;stroke:#263238;stroke-miterlimit:10;" d="M89.22,228.333l27.982,12.893l23.068-31.077
				c0,0-0.326-7.835,0-8.977c0.326-1.143,3.101-5.223,3.591-5.876c0.49-0.653,1.469,0,1.632,0.979
				c0.163,0.979-0.49,1.796-0.816,2.612c-0.326,0.816-0.979,2.612-0.979,2.612l0.816,2.448l8.651-6.855c0,0,1.959-2.612,2.611-1.469
				l0,0c0.397,0.694,0.345,1.557-0.132,2.199l-3.948,5.31l2.612,0.163l6.366-5.386c0,0,1.143-0.49,1.306,0.979l0,0
				c0.103,0.924-0.237,1.843-0.917,2.477l-3.903,3.643l-2.524,1.551l7.508-3.101c0,0,0.979,0.979,0.653,1.469l-8.161,6.366
				l6.039-0.979c0,0,0.816,1.143,0.327,1.796l-16.649,4.733c0,0-23.231,43.646-23.558,44.299s-3.754,2.122-6.366,1.306
				c-2.612-0.816-35.98-15.342-35.98-15.342"/>
			<path style="fill:#FFFFFF;stroke:#263238;stroke-miterlimit:10;" d="M132.143,239.78c6.029-11.332,12.207-22.939,12.207-22.939
				l16.649-4.733c0.49-0.653-0.326-1.796-0.326-1.796l-6.039,0.979l8.161-6.366c0.326-0.49-0.653-1.469-0.653-1.469l-7.508,3.101
				l2.524-1.551l3.903-3.643c0.68-0.635,1.02-1.553,0.917-2.478c-0.163-1.469-1.306-0.979-1.306-0.979l-6.366,5.386l-2.612-0.163
				l3.948-5.31c0.477-0.641,0.529-1.505,0.132-2.199h0c-0.653-1.143-2.611,1.469-2.611,1.469l-8.651,6.855l-0.816-2.448
				c0,0,0.653-1.795,0.979-2.612c0.327-0.816,0.979-1.632,0.816-2.611c-0.163-0.979-1.143-1.632-1.632-0.979
				c-0.49,0.653-3.264,4.733-3.591,5.876c-0.327,1.143,0,8.977,0,8.977l-17.118,23.061L132.143,239.78z"/>
			<path style="fill:none;stroke:#263238;stroke-miterlimit:10;" d="M144.513,203.946c0,0,1.629,1.372,2.141,2.652
				c0.512,1.28-1.792,4.353-2.817,4.865"/>
		</g>
		<g>
			<g>
				
					<ellipse transform="matrix(0.7071 -0.7071 0.7071 0.7071 -76.6033 176.1789)" style="fill:#FFFFFF;stroke:#263238;stroke-miterlimit:10;" cx="174.365" cy="180.558" rx="44.988" ry="44.988"/>
			</g>
			<g>
				
					<ellipse transform="matrix(0.9081 -0.4187 0.4187 0.9081 -59.5772 89.5889)" style="fill:#FFFFFF;stroke:#263238;stroke-miterlimit:10;" cx="174.365" cy="180.558" rx="37.783" ry="37.783"/>
			</g>
			<g>
				<path style="fill:#263238;" d="M182.125,214.94l-1.28-6.016c-4.478,0.772-8.101,0.057-10.871-2.15
					c-2.768-2.205-4.802-5.942-6.102-11.21l8.79-3.492c0.545,2.139,1.155,3.89,1.828,5.257c0.673,1.367,1.453,2.327,2.338,2.883
					c0.883,0.556,1.908,0.71,3.073,0.462c1.335-0.284,2.161-0.91,2.473-1.878c0.313-0.968,0.351-2.012,0.112-3.134
					c-0.468-2.199-1.368-3.934-2.698-5.206c-1.33-1.272-3.039-2.474-5.127-3.608l-6.503-3.552c-1.499-0.898-2.872-1.845-4.119-2.842
					c-1.249-0.995-2.329-2.209-3.242-3.637c-0.913-1.428-1.593-3.198-2.043-5.312c-0.862-4.053-0.382-7.458,1.444-10.212
					c1.826-2.755,4.646-4.695,8.463-5.823l-1.225-5.757l3.105-0.661l1.225,5.757c2.357-0.366,4.377-0.243,6.061,0.367
					c1.685,0.611,3.066,1.535,4.14,2.77c1.074,1.237,1.959,2.649,2.657,4.234c0.699,1.587,1.256,3.147,1.672,4.681l-8.96,3.326
					c-0.382-1.586-0.813-2.971-1.289-4.154c-0.477-1.183-1.07-2.059-1.776-2.631c-0.707-0.57-1.638-0.71-2.793-0.42
					c-1.199,0.301-2.014,0.969-2.447,2.008c-0.432,1.038-0.53,2.119-0.292,3.24c0.422,1.984,1.236,3.479,2.441,4.484
					c1.206,1.006,2.531,1.941,3.977,2.805l6.359,3.515c1.698,0.991,3.313,2.113,4.841,3.365c1.527,1.253,2.853,2.717,3.977,4.394
					c1.122,1.678,1.936,3.701,2.441,6.073c0.486,2.286,0.465,4.465-0.063,6.537c-0.529,2.073-1.541,3.877-3.04,5.413
					c-1.499,1.536-3.412,2.663-5.738,3.384l1.293,6.08L182.125,214.94z"/>
			</g>
		</g>
		<g>
			<g>
				<path style="fill:#FFFFFF;stroke:#263238;stroke-miterlimit:10;" d="M139.313,424.506l11.872,8.408c0,0,7.156,1.468,8.073,2.202
					c0.917,0.734,0.917,3.853,0.917,3.853s-7.339,0.917-14.128,1.101c-6.789,0.184-10.275,0-15.596-0.183
					c-5.321-0.183-9.724,0.183-10.825-1.101c-1.101-1.284-0.03-12.487-0.03-12.487S132.028,419.585,139.313,424.506z"/>
				<path style="fill:#FFFFFF;stroke:#263238;stroke-miterlimit:10;" d="M146.047,440.069c6.789-0.184,14.128-1.101,14.128-1.101
					s-0.001-0.971-0.16-1.957c-7.598,0.62-21.697,1.597-25.527,0.673c-4.355-1.051-12.519-1.488-15.339-1.612
					c0.047,1.336,0.186,2.373,0.477,2.712c1.101,1.284,5.504,0.917,10.825,1.101C135.772,440.069,139.258,440.253,146.047,440.069z"
					/>
			</g>
			<g>
				<path style="fill:#FFFFFF;stroke:#263238;stroke-miterlimit:10;" d="M71.277,429.611l6.238,7.89l10.825,6.789
					c0.734,2.202,0.367,2.752,0.183,3.486c-0.183,0.734-3.486,0.917-7.523,0.734c-4.036-0.184-13.944,1.101-16.88,0.183
					c-2.936-0.917-12.293-3.486-13.394-4.036c-1.101-0.55-2.936-1.101-2.385-3.119c0.55-2.018,2.169-9.093,2.169-9.093
					S59.535,425.942,71.277,429.611z"/>
				<path style="fill:#FFFFFF;stroke:#263238;stroke-miterlimit:10;" d="M81.002,448.509c4.037,0.184,7.339,0,7.523-0.734
					c0.129-0.517,0.341-0.954,0.204-1.928c-5.008,0.217-17.994,0.718-21.672,0.277c-4.195-0.503-16.365-4.995-18.414-5.759
					c-0.117,0.47-0.221,0.878-0.301,1.172c-0.55,2.018,1.284,2.569,2.385,3.119c1.101,0.55,10.458,3.119,13.394,4.036
					C67.057,449.61,76.965,448.326,81.002,448.509z"/>
			</g>
			<path style="fill:#263238;stroke:#263238;stroke-miterlimit:10;" d="M63.362,302.158l5.194,62.942l-16.132,58.126l-2.305,9.218
				c0,0,1.792,1.536,6.658,1.28c4.865-0.256,14.596-2.561,14.596-2.561s1.28-2.305,1.024-4.353c-0.256-2.048-1.28-2.817-1.28-3.585
				S92.626,365.1,92.626,365.1l2.049-33.288l14.595,37.129l9.474,57.358c0,0,0.512,2.817,1.28,2.561
				c0.768-0.256,13.571-4.865,13.571-4.865l4.865,0.512c0,0,0.512-7.426-1.536-8.962c-2.049-1.536-2.817-3.073-2.817-3.073
				l-2.048-54.541l-19.973-56.077l-1.792-6.914L64.203,297.5L63.362,302.158z"/>
			<polygon style="fill:#92E3A9;stroke:#263238;stroke-miterlimit:10;" points="63.362,302.158 63.775,305.592 112.086,301.853 
				110.01,297.344 			"/>
			<path style="fill:#92E3A9;stroke:#263238;stroke-miterlimit:10;" d="M57.976,223.647c0,0-2.938,9.957-2.612,14.527
				c0.326,4.57,6.039,40.643,6.039,40.643l2.122,13.874c0,0-1.632,4.244-1.469,5.223c0.163,0.979-0.163,3.591,1.306,4.244
				c1.469,0.653,13.874-0.163,26.605-0.49c12.731-0.327,17.628-0.816,19.26-1.469c1.632-0.653,3.591-2.938,3.264-4.733
				c-0.326-1.796-1.632-5.06-1.632-5.06s-0.653-43.581-1.632-50.273c-0.979-6.692-2.122-15.833-5.55-19.26s-9.14-4.897-9.14-4.897
				l-4.57,8.488c0,0-15.67-6.366-21.382-7.019C62.872,216.792,57.976,223.647,57.976,223.647z"/>
			<path style="fill:none;stroke:#263238;stroke-miterlimit:10;" d="M67.554,255.436c-2.119,0.658-3.875,1.158-4.726,1.3"/>
			<path style="fill:none;stroke:#263238;stroke-miterlimit:10;" d="M82.021,250.604c0,0-6.085,2.13-11.499,3.887"/>
			<path style="fill:none;stroke:#263238;stroke-miterlimit:10;" d="M66.801,267.361c-0.98,0.691-1.875,1.254-2.64,1.636"/>
			<path style="fill:none;stroke:#263238;stroke-miterlimit:10;" d="M83.621,252.47c0,0-7.72,7.72-14.035,12.78"/>
			<g>
				<path style="fill:#92E3A9;stroke:#263238;stroke-miterlimit:10;" d="M92.253,232.951c0,0-13.221-7.019-19.587-8.977
					c-6.366-1.959-8.651-2.285-10.12-1.959c-1.469,0.326-7.182,6.202-7.671,4.57c-0.49-1.632,1.795-12.078,2.448-14.364
					c0.653-2.285,10.609-5.06,13.384-5.876s16.649,4.57,19.75,5.55c3.101,0.979,6.039,4.57,6.039,7.019
					C96.496,221.362,92.253,232.951,92.253,232.951z"/>
				<path style="fill:none;stroke:#263238;stroke-miterlimit:10;" d="M58.563,215.683c0,0,2.666-2.133,4.265-1.066
					c1.599,1.066,28.489,16.216,28.489,16.216l1.367-14.084"/>
			</g>
			<g>
				<g>
					<path style="fill:#FFFFFF;stroke:#263238;stroke-miterlimit:10;" d="M96.504,172.831c0,0,2.32,6.96,2.32,8.734
						c0,1.774-0.819,4.64-0.273,5.732c0.546,1.092,3.821,6.141,3.275,6.96c-0.546,0.819-2.593,3.821-2.593,3.821
						s-0.546,10.236-1.092,11.327c-0.546,1.092-4.094,0.955-5.732,0.955c-1.638,0-3.412,0-3.412,0s3.003,20.198,2.32,20.471
						c-0.682,0.273-20.198-19.652-20.198-19.652l0.682-14.603c0,0-6.824-10.099-5.732-14.603c1.092-4.504,11.737-8.052,17.469-9.553
						C89.27,170.92,96.504,172.831,96.504,172.831z"/>
					<path style="fill:#263238;" d="M94.985,188.202c0.193,1.037-0.101,1.962-0.657,2.066c-0.556,0.104-1.163-0.654-1.356-1.691
						s0.101-1.962,0.657-2.066C94.185,186.407,94.792,187.164,94.985,188.202z"/>
					<path style="fill:none;stroke:#263238;stroke-miterlimit:10;" d="M91.317,184.568c0,0,2.047-2.456,4.913-1.365"/>
					<path style="fill:none;stroke:#263238;stroke-miterlimit:10;" d="M89.27,195.759c0,0,2.047,3.002,5.732,3.548"/>
				</g>
				<path style="fill:#263238;stroke:#263238;stroke-miterlimit:10;" d="M74.258,191.255c0,0,3.548,0.546,3.548-0.409
					c0-0.955-0.409-4.504-0.409-4.504s4.777-3.821,4.64-5.596c-0.137-1.774-2.32-3.275-2.184-3.821s6.551-2.456,11.737-2.456
					c5.186,0,6.278,1.092,7.915-1.365c1.638-2.457,2.866-5.732-0.273-9.144c-3.139-3.412-4.64-1.911-6.278-2.32
					c-1.638-0.409-6.414-5.186-9.69-4.094c-3.275,1.092-3.685,4.094-3.685,4.094s-6.141-4.094-8.734-1.911
					c-2.593,2.184-2.866,4.64-2.866,4.64s-3.958,0.137-5.732,3.821s-1.638,5.732-1.638,5.732s-3.412,2.047-3.275,5.049
					c0.137,3.003,1.092,4.367,1.092,4.367s-2.866,1.228,0,5.596c2.866,4.367,3.958,4.913,3.958,4.913s-3.275,0.41,0,3.139
					c3.275,2.73,9.28,3.821,10.645,4.504c1.365,0.682,1.638-3.821,1.638-6.551C74.668,192.21,74.258,191.255,74.258,191.255z"/>
				<path style="fill:#FFFFFF;stroke:#263238;stroke-miterlimit:10;" d="M76.442,192.62c0,0-3.548-4.64-5.459-3.139
					c-1.911,1.501-0.682,8.052,1.365,10.099c2.047,2.047,5.05-1.501,5.05-1.501"/>
				<polygon style="fill:#263238;stroke:#263238;stroke-miterlimit:10;" points="88.997,210.361 83.112,210.263 89.967,217.281 				
					"/>
			</g>
			<g>
				<path style="fill:#92E3A9;stroke:#263238;stroke-miterlimit:10;" d="M74.624,227.564l27.982,12.893l23.068-31.077
					c0,0-0.326-7.835,0-8.977c0.326-1.143,3.101-5.223,3.591-5.876c0.49-0.653,1.469,0,1.632,0.979
					c0.163,0.979-0.49,1.795-0.816,2.612c-0.327,0.816-0.979,2.611-0.979,2.611l0.816,2.448l8.651-6.855
					c0,0,1.959-2.612,2.612-1.469l0,0c0.397,0.694,0.345,1.557-0.132,2.199l-3.948,5.31l2.612,0.163l6.366-5.386
					c0,0,1.143-0.49,1.306,0.979l0,0c0.103,0.924-0.237,1.843-0.917,2.477l-3.903,3.643l-2.524,1.551l7.508-3.101
					c0,0,0.979,0.979,0.653,1.469l-8.161,6.366l6.039-0.979c0,0,0.816,1.143,0.326,1.796l-16.649,4.733
					c0,0-23.231,43.646-23.558,44.298c-0.326,0.653-3.754,2.122-6.366,1.306c-2.612-0.816-35.98-15.342-35.98-15.342"/>
				<path style="fill:#FFFFFF;stroke:#263238;stroke-miterlimit:10;" d="M117.548,239.012c6.029-11.332,12.207-22.939,12.207-22.939
					l16.649-4.733c0.49-0.653-0.326-1.796-0.326-1.796l-6.039,0.979l8.161-6.366c0.326-0.49-0.653-1.469-0.653-1.469l-7.508,3.101
					l2.524-1.551l3.903-3.643c0.68-0.635,1.02-1.553,0.917-2.478c-0.163-1.469-1.306-0.979-1.306-0.979l-6.366,5.386l-2.612-0.163
					l3.948-5.31c0.477-0.641,0.529-1.504,0.132-2.198l0,0c-0.653-1.143-2.612,1.469-2.612,1.469l-8.651,6.855l-0.816-2.448
					c0,0,0.653-1.795,0.979-2.612c0.326-0.816,0.979-1.632,0.816-2.611c-0.163-0.979-1.143-1.632-1.632-0.979
					c-0.49,0.653-3.264,4.734-3.591,5.876c-0.326,1.143,0,8.977,0,8.977l-17.118,23.061L117.548,239.012z"/>
			</g>
		</g>
	</g>
</g>
<g id="Device">
	<g>
		<g>
			<path style="fill:#FFFFFF;stroke:#263238;stroke-linecap:round;stroke-linejoin:round;stroke-miterlimit:10;" d="
				M353.034,107.495v303.052c0,8.318-6.743,15.061-15.061,15.061H207.027c-8.318,0-15.061-6.743-15.061-15.061V107.487
				c0-8.314,6.74-15.053,15.053-15.053h56.205l0.047,0.172c1.401,5.041,4.626,8.32,8.203,8.32h2.051c3.577,0,6.802-3.28,8.203-8.32
				l0.055-0.172h56.19C346.291,92.434,353.034,99.177,353.034,107.495z"/>
		</g>
		<g>
			<path style="fill:#263238;stroke:#263238;stroke-miterlimit:10;" d="M353.034,116.072v-8.577c0-8.318-6.743-15.061-15.061-15.061
				h-56.19l-0.055,0.172c-1.401,5.041-4.626,8.32-8.203,8.32h-2.051c-3.577,0-6.802-3.28-8.203-8.32l-0.047-0.172H207.02
				c-8.314,0-15.053,6.74-15.053,15.053v8.585H353.034z"/>
			<path style="fill:#263238;stroke:#263238;stroke-miterlimit:10;" d="M191.966,402.453v8.094c0,8.318,6.743,15.061,15.061,15.061
				h130.945c8.318,0,15.061-6.743,15.061-15.061v-8.094H191.966z"/>
		</g>
		<g>
			<path style="fill:#92E3A9;stroke:#263238;stroke-linecap:round;stroke-linejoin:round;stroke-miterlimit:10;" d="
				M363.276,179.877v-30.269h-2.738v-38.751c0-13.192-10.694-23.886-23.886-23.886H208.349c-13.192,0-23.886,10.694-23.886,23.886
				v307.925c0,13.192,10.694,23.886,23.886,23.886h128.303c13.192,0,23.886-10.694,23.886-23.886V205.674h2.738v-17.886h-2.738
				v-7.911H363.276z M353.034,401.719c0,13.197-10.7,23.889-23.889,23.889h-113.29c-13.189,0-23.889-10.692-23.889-23.889V116.314
				c0-13.189,10.7-23.881,23.889-23.881h47.37l0.047,0.172c1.401,5.041,4.626,8.32,8.203,8.32h2.051c3.577,0,6.802-3.28,8.203-8.32
				l0.055-0.172h47.362c13.189,0,23.889,10.692,23.889,23.881V401.719z"/>
			<path style="fill:#263238;stroke:#263238;stroke-linecap:round;stroke-linejoin:round;stroke-miterlimit:10;" d="M334.736,90.261
				H210.265c-12.723,0-23.037,10.314-23.037,23.037v303.043c0,12.723,10.314,23.037,23.037,23.037h124.471
				c12.723,0,23.037-10.314,23.037-23.037V113.298C357.773,100.575,347.459,90.261,334.736,90.261z M353.034,402.569
				c0,12.724-10.315,23.039-23.039,23.039H215.005c-12.724,0-23.039-10.315-23.039-23.039V115.465
				c0-12.72,10.311-23.031,23.031-23.031h48.227l0.047,0.172c1.401,5.041,4.626,8.32,8.203,8.32h2.051
				c3.577,0,6.802-3.28,8.203-8.32l0.055-0.172h48.212c12.724,0,23.039,10.315,23.039,23.039V402.569z"/>
			<path style="fill:#FFFFFF;" d="M274.251,93.576c0-1.239-1.004-2.243-2.243-2.243c-1.239,0-2.243,1.004-2.243,2.243
				c0,1.239,1.004,2.243,2.243,2.243C273.247,95.818,274.251,94.814,274.251,93.576z"/>
			<g>
				<g>
					<path style="fill:#FFFFFF;" d="M206.283,102.169c0,2.269-2.548,3.086-2.559,4.817v0.118h2.473v0.764h-3.3v-0.645
						c0-2.43,2.548-2.903,2.548-5.021c0-0.774-0.259-1.182-0.882-1.182c-0.613,0-0.882,0.44-0.882,1.107v0.667h-0.785v-0.613
						c0-1.15,0.527-1.914,1.687-1.914C205.756,100.266,206.283,101.019,206.283,102.169z"/>
					<path style="fill:#FFFFFF;" d="M210.402,102.158v0.193c0,0.774-0.311,1.323-0.913,1.549c0.634,0.237,0.913,0.806,0.913,1.559
						v0.581c0,1.15-0.537,1.903-1.699,1.903c-1.15,0-1.687-0.753-1.687-1.903v-0.516h0.785v0.57c0,0.678,0.279,1.086,0.882,1.086
						c0.613,0,0.882-0.398,0.882-1.161v-0.581c0-0.742-0.312-1.097-0.947-1.118h-0.451v-0.753h0.494
						c0.559-0.021,0.904-0.376,0.904-1.032v-0.344c0-0.774-0.269-1.171-0.882-1.171c-0.602,0-0.882,0.419-0.882,1.097v0.387h-0.785
						v-0.344c0-1.151,0.537-1.893,1.687-1.893C209.864,100.266,210.402,101.008,210.402,102.158z"/>
					<path style="fill:#FFFFFF;" d="M212.027,102.728v1.043h-0.806v-1.043H212.027z M212.027,106.824v1.043h-0.806v-1.043H212.027z"
						/>
					<path style="fill:#FFFFFF;" d="M213.725,103.406c0.237-0.409,0.613-0.624,1.118-0.624c0.968,0,1.397,0.71,1.397,1.785v1.473
						c0,1.15-0.548,1.903-1.698,1.903c-1.151,0-1.688-0.753-1.688-1.903v-0.505h0.785v0.559c0,0.678,0.28,1.086,0.882,1.086
						c0.602,0,0.882-0.408,0.882-1.086v-1.462c0-0.677-0.28-1.086-0.882-1.086c-0.462,0-0.774,0.258-0.849,0.807v0.172h-0.785
						l0.204-4.183h2.967v0.753h-2.215L213.725,103.406z"/>
					<path style="fill:#FFFFFF;" d="M220.425,102.147v0.14h-0.785v-0.193c0-0.678-0.28-1.075-0.892-1.075
						c-0.635,0-0.914,0.409-0.914,1.215v1.688c0.204-0.516,0.613-0.806,1.215-0.806c0.968,0,1.398,0.699,1.398,1.785v1.14
						c0,1.15-0.571,1.903-1.721,1.903c-1.161,0-1.731-0.753-1.731-1.903v-3.839c0-1.193,0.538-1.935,1.731-1.935
						C219.888,100.266,220.425,100.997,220.425,102.147z M217.834,104.965v1.129c0,0.678,0.28,1.086,0.892,1.086
						c0.602,0,0.892-0.408,0.892-1.086v-1.129c0-0.678-0.29-1.086-0.892-1.086C218.114,103.879,217.834,104.287,217.834,104.965z"/>
				</g>
				<g>
					<rect x="300.464" y="102.478" style="fill:#FFFFFF;" width="2.125" height="5.313"/>
					<rect x="303.298" y="101.414" style="fill:#FFFFFF;" width="2.125" height="6.377"/>
					<rect x="306.131" y="100.659" style="fill:#FFFFFF;" width="2.125" height="7.133"/>
					<rect x="308.964" y="99.344" style="fill:#FFFFFF;" width="2.125" height="8.447"/>
					<g>
						<g>
							<path style="fill:#FFFFFF;" d="M337.387,107.645h-12.751v-7.792h12.751V107.645z M325.345,106.937h11.334v-6.375h-11.334
								V106.937z"/>
						</g>
						<g>
							<rect x="326.408" y="101.332" style="fill:#FFFFFF;" width="6.729" height="4.833"/>
						</g>
						<g>
							<rect x="336.945" y="102.831" style="fill:#FFFFFF;" width="1.604" height="1.836"/>
						</g>
					</g>
					<g>
						<path style="fill:#FFFFFF;" d="M319.962,105.95c-0.083,0-0.168-0.022-0.244-0.067c-2.595-1.542-4.31-0.111-4.382-0.05
							c-0.198,0.172-0.498,0.15-0.67-0.048c-0.172-0.198-0.153-0.496,0.044-0.669c0.092-0.081,2.285-1.96,5.496-0.052
							c0.226,0.134,0.3,0.427,0.166,0.653C320.282,105.867,320.124,105.95,319.962,105.95z"/>
					</g>
					<g>
						<path style="fill:#FFFFFF;" d="M320.922,104.35c-0.083,0-0.168-0.021-0.244-0.067c-3.752-2.231-6.273-0.073-6.299-0.052
							c-0.197,0.175-0.497,0.154-0.671-0.043c-0.174-0.197-0.155-0.498,0.043-0.672c0.031-0.028,3.072-2.633,7.415-0.052
							c0.226,0.134,0.3,0.427,0.165,0.653C321.241,104.267,321.083,104.35,320.922,104.35z"/>
					</g>
					<g>
						<path style="fill:#FFFFFF;" d="M321.793,102.496c-0.083,0-0.168-0.021-0.244-0.067c-4.752-2.825-7.911-0.166-8.043-0.05
							c-0.198,0.172-0.499,0.151-0.671-0.046c-0.173-0.197-0.153-0.497,0.044-0.67c0.037-0.034,3.791-3.244,9.158-0.052
							c0.226,0.134,0.3,0.427,0.166,0.653C322.113,102.413,321.955,102.496,321.793,102.496z"/>
					</g>
					<g>
						<path style="fill:#FFFFFF;" d="M318.528,106.748c0,0.66-0.535,1.195-1.194,1.195c-0.66,0-1.195-0.535-1.195-1.195
							c0-0.66,0.535-1.195,1.195-1.195C317.993,105.554,318.528,106.088,318.528,106.748z"/>
					</g>
				</g>
			</g>
		</g>
	</g>
</g>
<g id="Credit_Card">
	<g>
		<path style="fill:#92E3A9;stroke:#263238;stroke-linecap:round;stroke-linejoin:round;stroke-miterlimit:10;" d="M333.815,335.396
			h-122.07c-3.96,0-7.17-3.21-7.17-7.17v-70.294c0-3.96,3.21-7.17,7.17-7.17h122.07c3.96,0,7.17,3.21,7.17,7.17v70.294
			C340.985,332.186,337.775,335.396,333.815,335.396z"/>
		<rect x="215.029" y="317.474" style="fill:#263238;" width="14.438" height="5.974"/>
		<rect x="234.196" y="317.474" style="fill:#263238;" width="14.438" height="5.974"/>
		<rect x="253.363" y="317.474" style="fill:#263238;" width="14.438" height="5.974"/>
		<rect x="272.531" y="317.474" style="fill:#263238;" width="14.438" height="5.974"/>
		<rect x="291.698" y="317.474" style="fill:#263238;" width="14.438" height="5.974"/>
		<rect x="310.865" y="317.474" style="fill:#263238;" width="14.438" height="5.974"/>
		<path style="fill:#FFFFFF;stroke:#263238;stroke-linecap:round;stroke-linejoin:round;stroke-miterlimit:10;" d="M243.084,303.534
			h-24.745c-1.828,0-3.31-1.482-3.31-3.31v-16.779c0-1.828,1.482-3.31,3.31-3.31h24.745c1.828,0,3.31,1.482,3.31,3.31v16.779
			C246.394,302.052,244.912,303.534,243.084,303.534z"/>
		<rect x="215.029" y="260.719" style="fill:#263238;" width="68.703" height="3.485"/>
	</g>
</g>
<g id="Symbol">
	<g>
		<g>
			<g>
				
					<ellipse transform="matrix(0.2264 -0.974 0.974 0.2264 28.6124 405.1373)" style="fill:#263238;" cx="269.37" cy="184.555" rx="34.129" ry="34.129"/>
			</g>
			<g>
				<path style="fill:#FFFFFF;stroke:#263238;stroke-linecap:round;stroke-linejoin:round;stroke-miterlimit:10;" d="
					M269.764,216.391v-5.555c-4.102-0.16-7.168-1.473-9.2-3.942c-2.031-2.469-3.126-6.153-3.284-11.051l8.422-1.433
					c0.08,1.992,0.289,3.654,0.627,4.988c0.338,1.334,0.846,2.329,1.524,2.986c0.676,0.657,1.552,0.986,2.628,0.986
					c1.233,0,2.081-0.397,2.538-1.194c0.458-0.796,0.688-1.712,0.688-2.748c0-2.031-0.469-3.733-1.405-5.107
					c-0.936-1.374-2.22-2.757-3.852-4.152l-5.078-4.36c-1.156-1.075-2.19-2.17-3.105-3.285c-0.917-1.114-1.643-2.389-2.181-3.823
					c-0.538-1.433-0.806-3.125-0.806-5.077c0-3.743,1.065-6.661,3.195-8.751c2.131-2.091,4.987-3.275,8.572-3.554v-5.316h2.868
					v5.316c2.151,0.119,3.913,0.607,5.286,1.463c1.374,0.857,2.42,1.932,3.137,3.226c0.717,1.294,1.233,2.708,1.552,4.241
					c0.319,1.534,0.518,3.017,0.598,4.45l-8.542,1.254c-0.039-1.473-0.16-2.778-0.358-3.913c-0.199-1.135-0.559-2.02-1.075-2.658
					c-0.518-0.637-1.314-0.935-2.389-0.896c-1.115,0.04-1.962,0.478-2.539,1.314c-0.577,0.836-0.867,1.773-0.867,2.807
					c0,1.832,0.438,3.306,1.314,4.42c0.876,1.115,1.871,2.191,2.986,3.225l4.958,4.301c1.314,1.195,2.53,2.489,3.645,3.883
					c1.114,1.394,2.01,2.937,2.688,4.63c0.676,1.693,1.015,3.634,1.015,5.824c0,2.111-0.429,4.032-1.284,5.764
					c-0.857,1.732-2.09,3.136-3.703,4.211c-1.613,1.075-3.515,1.712-5.705,1.912v5.615H269.764z"/>
			</g>
		</g>
		
			<circle style="fill:#92E3A9;stroke:#263238;stroke-linecap:round;stroke-linejoin:round;stroke-miterlimit:10;" cx="296.146" cy="166.156" r="9.669"/>
		<g>
			<path style="fill:#263238;" d="M296.116,170.371c-0.012,0-0.025,0-0.037-0.001c-0.399-0.011-0.772-0.201-1.015-0.517
				l-4.772-6.174c-0.449-0.581-0.342-1.416,0.239-1.866c0.58-0.448,1.417-0.342,1.865,0.239l3.778,4.888l9.882-11.401
				c0.481-0.555,1.32-0.616,1.876-0.134c0.555,0.481,0.615,1.321,0.134,1.876l-10.946,12.629
				C296.868,170.204,296.501,170.371,296.116,170.371z"/>
		</g>
	</g>
</g>
</svg>
