<?xml version="1.0" encoding="utf-8"?>
<!-- Generator: Adobe Illustrator 27.5.0, SVG Export Plug-In . SVG Version: 6.00 Build 0)  -->
<svg version="1.1" xmlns="http://www.w3.org/2000/svg" xmlns:xlink="http://www.w3.org/1999/xlink" x="0px" y="0px"
	 viewBox="0 0 500 500" style="enable-background:new 0 0 500 500;" xml:space="preserve">
<g id="Background_Simple">
	<g>
		<path style="fill:#92E3A9;" d="M96.966,92.614c0.186-0.169,0.373-0.338,0.56-0.507c51.569-46.435,120.064-48.528,169.963,1.457
			c26.008,26.052,72.187,21.066,105.227,30.49c113.919,32.49,94.223,187.055,37.951,261.771
			c-50.78,67.423-160.807,82.656-234.731,49.482C110.978,406.156,65.238,341.033,48.96,272.939
			c-1.632-6.829-2.975-13.727-4.001-20.673C36.397,194.299,52.843,132.736,96.966,92.614z"/>
		<path style="opacity:0.7;fill:#FFFFFF;" d="M96.966,92.614c0.186-0.169,0.373-0.338,0.56-0.507
			c51.569-46.435,120.064-48.528,169.963,1.457c26.008,26.052,72.187,21.066,105.227,30.49
			c113.919,32.49,94.223,187.055,37.951,261.771c-50.78,67.423-160.807,82.656-234.731,49.482
			C110.978,406.156,65.238,341.033,48.96,272.939c-1.632-6.829-2.975-13.727-4.001-20.673
			C36.397,194.299,52.843,132.736,96.966,92.614z"/>
	</g>
</g>
<g id="Bubble">
	<g>
		<path style="fill:none;stroke:#263238;stroke-linecap:round;stroke-linejoin:round;stroke-miterlimit:10;" d="M278.783,400.34
			c-4.95,24.745-29.023,40.792-53.768,35.841c-17.695-3.54-30.942-16.858-35.244-33.209"/>
		<path style="fill:none;stroke:#263238;stroke-linecap:round;stroke-linejoin:round;stroke-miterlimit:10;" d="M278.163,379.695
			c1.315,4.96,1.807,10.201,1.349,15.533"/>
		<path style="fill:none;stroke:#263238;stroke-linecap:round;stroke-linejoin:round;stroke-miterlimit:10;" d="M204.585,356.406
			c10.263-8.615,24.196-12.667,38.356-9.834c14.967,2.994,26.752,12.985,32.633,25.888"/>
		<polyline style="fill:none;stroke:#263238;stroke-linecap:round;stroke-linejoin:round;stroke-miterlimit:10;" points="
			191.905,349.198 190.634,345.791 202.681,354.957 		"/>
		<path style="fill:none;stroke:#263238;stroke-linecap:round;stroke-linejoin:round;stroke-miterlimit:10;" d="M189.174,382.414
			c1.385-6.922,4.268-13.162,8.242-18.454l-4.015-10.756"/>
		<path style="fill:none;stroke:#263238;stroke-linecap:round;stroke-linejoin:round;stroke-miterlimit:10;" d="M188.316,393.31
			c-0.076-1.838-0.042-3.696,0.11-5.565"/>
		<g>
			<path style="fill:none;stroke:#263238;stroke-linecap:round;stroke-linejoin:round;stroke-miterlimit:10;" d="M236.144,368.61
				c12.615,1.477,21.643,12.901,20.166,25.516c-1.477,12.615-12.901,21.643-25.516,20.166
				c-12.615-1.477-21.643-12.901-20.166-25.516c1.15-9.816,8.322-17.46,17.391-19.673"/>
			<path style="fill:none;stroke:#263238;stroke-linecap:round;stroke-linejoin:round;stroke-miterlimit:10;" d="M230.506,416.754
				c-13.974-1.637-23.976-14.292-22.339-28.266"/>
			<path style="fill:none;stroke:#263238;stroke-linecap:round;stroke-linejoin:round;stroke-miterlimit:10;" d="M257.852,398.845
				c-2.735,9.057-10.292,15.784-19.404,17.597"/>
			<path style="fill:none;stroke:#263238;stroke-linecap:round;stroke-linejoin:round;stroke-miterlimit:10;" d="M209.79,382.036
				c4.151-10.46,14.934-17.259,26.642-15.888c13.974,1.637,23.976,14.292,22.339,28.266"/>
			
				<line style="fill:none;stroke:#263238;stroke-width:2;stroke-linecap:round;stroke-linejoin:round;stroke-miterlimit:10;" x1="248.259" y1="381.489" x2="248.534" y2="381.159"/>
			
				<line style="fill:none;stroke:#263238;stroke-width:2;stroke-linecap:round;stroke-linejoin:round;stroke-miterlimit:10;" x1="244.413" y1="386.092" x2="246.329" y2="383.799"/>
			
				<polyline style="fill:none;stroke:#263238;stroke-width:2;stroke-linecap:round;stroke-linejoin:round;stroke-miterlimit:10;" points="
				219.708,390.607 230.185,403.123 242.734,388.101 			"/>
		</g>
	</g>
</g>
<g id="Character">
	<path style="fill:#FFFFFF;stroke:#263238;stroke-linecap:round;stroke-linejoin:round;stroke-miterlimit:10;" d="M407.624,349.392
		H297.759c-25.511,0-46.192-20.681-46.192-46.192V193.336c0-25.511,20.681-46.192,46.192-46.192h109.865
		c25.511,0,46.192,20.681,46.192,46.192V303.2C453.815,328.711,433.135,349.392,407.624,349.392z"/>
	<g>
		<g>
			<g>
				<defs>
					<path id="XMLID_744_" d="M313.52,236.191c-3.066-5.062-17.79-4.979-19.123-2.73c0,0,7.295,23.582,15.425,21.138
						C317.952,252.154,313.52,236.191,313.52,236.191z"/>
				</defs>
				<use xlink:href="#XMLID_744_"  style="overflow:visible;fill:#92E3A9;"/>
				<clipPath id="XMLID_00000131367685855185074280000010469173491926888093_">
					<use xlink:href="#XMLID_744_"  style="overflow:visible;"/>
				</clipPath>
				<path style="opacity:0.3;clip-path:url(#XMLID_00000131367685855185074280000010469173491926888093_);fill-opacity:0.7;" d="
					M313.52,236.191c-3.066-5.062-17.79-4.979-19.123-2.73c0,0,7.295,23.582,15.425,21.138
					C317.952,252.154,313.52,236.191,313.52,236.191z"/>
				
					<use xlink:href="#XMLID_744_"  style="overflow:visible;fill:none;stroke:#263238;stroke-linecap:round;stroke-linejoin:round;stroke-miterlimit:10;"/>
			</g>
			<g>
				<defs>
					<path id="XMLID_743_" d="M295.954,248.191c0,0-1.559,1.778-1.559,4.449c0,2.199,4.196,46.131,17.147,61.424
						c2.713,3.21,5.814,5.157,9.344,5.199c10.962,0.118,16.27-8.577,23.247-28.749c0.868-2.511,1.769-5.207,2.705-8.089
						c6.783-20.82,15.116-64.247,15.116-64.247s-14.787,3.429-23.559,12.125c-3.834,3.8-7.828,14.585-10.381,22.505
						c-1.256,3.893-2.165,7.086-2.545,8.434c-0.118,0.446-0.185,0.691-0.185,0.691c-0.337-1.306-0.893-2.637-1.55-3.935
						c-0.008-0.017-0.008-0.025-0.017-0.034c-0.025-0.034-0.042-0.067-0.051-0.101c-2.646-5.081-6.951-9.563-6.951-9.563
						l-3.193-12.108c0,0-1.129,2.208-6.235,2.991c-5.114,0.784-12.891-5.721-12.891-5.721L295.954,248.191z"/>
				</defs>
				<use xlink:href="#XMLID_743_"  style="overflow:visible;fill:#92E3A9;"/>
				<clipPath id="XMLID_00000176747305276306027340000006160841424748491695_">
					<use xlink:href="#XMLID_743_"  style="overflow:visible;"/>
				</clipPath>
				<path style="opacity:0.3;clip-path:url(#XMLID_00000176747305276306027340000006160841424748491695_);fill-opacity:0.7;" d="
					M311.542,314.064c2.713,3.21,5.814,5.157,9.344,5.199c10.962,0.118,16.27-8.577,23.247-28.749l-0.152-46.881
					c0,0-8.241,1.601-15.967,9.176c-1.256,3.893-2.165,7.086-2.545,8.434c3.084,6.42,8.46,21.182,2.292,36.913
					C323.76,308.36,317.213,312.505,311.542,314.064z"/>
				
					<use xlink:href="#XMLID_743_"  style="overflow:visible;fill:none;stroke:#263238;stroke-linecap:round;stroke-linejoin:round;stroke-miterlimit:10;"/>
			</g>
			<path style="fill:none;stroke:#263238;stroke-linecap:round;stroke-linejoin:round;stroke-miterlimit:10;" d="M330.815,276.245
				c0.786,4.116,0.817,8.579-1.086,12.408"/>
			<path style="fill:none;stroke:#263238;stroke-linecap:round;stroke-linejoin:round;stroke-miterlimit:10;" d="M325.285,261.932
				c2.165,3.654,3.851,7.678,4.948,11.777"/>
			<path style="fill:none;stroke:#263238;stroke-linecap:round;stroke-linejoin:round;stroke-miterlimit:10;" d="M332.271,267.117
				c0,0-1.542-4.241-5.709-5.186"/>
			<path style="fill:none;stroke:#263238;stroke-linecap:round;stroke-linejoin:round;stroke-miterlimit:10;" d="M310.992,251.619
				c1.004-0.541,1.94-1.208,2.793-1.965"/>
			<path style="fill:none;stroke:#263238;stroke-linecap:round;stroke-linejoin:round;stroke-miterlimit:10;" d="M295.952,248.191
				c3.264,3.491,8.354,5.773,13.099,4.253"/>
			<path style="fill:#92E3A9;stroke:#263238;stroke-linecap:round;stroke-linejoin:round;stroke-miterlimit:10;" d="
				M323.659,257.872c0,0,0.017,0.034,0.059,0.093c-0.025-0.034-0.042-0.067-0.051-0.101
				C323.659,257.864,323.659,257.872,323.659,257.872z"/>
		</g>
		<g>
			<defs>
				<path id="XMLID_741_" d="M420.238,347.432c0,0,1.865-14.718,3.002-19.524c5.119-21.637,23.151-71.769,20.243-86.603
					c-2.988-15.245-21.265-28.585-50.764-30.051c-27.359-1.365-49.914,8.333-55.307,19.607c-5.148,10.76-4.938,85.021-3.632,118.531
					c0,0,56.366,0,75.154,0C414.868,349.392,420.238,347.432,420.238,347.432z"/>
			</defs>
			<use xlink:href="#XMLID_741_"  style="overflow:visible;fill:#92E3A9;"/>
			<clipPath id="XMLID_00000155103982886914743860000009210024763277339268_">
				<use xlink:href="#XMLID_741_"  style="overflow:visible;"/>
			</clipPath>
			<path style="opacity:0.3;clip-path:url(#XMLID_00000155103982886914743860000009210024763277339268_);fill-opacity:0.7;" d="
				M414.363,257.972c-14.171,19.425-29.62,48.495-29.62,48.495l-42.204-52.599c0,0,9.665,66.808,14.937,74.04
				c5.272,7.232,5.037,10.554,5.037,10.554s13.377,14.406,23.411,12.45c8.51-1.658,39.116-35.814,48.663-75.408L414.363,257.972z"/>
			
				<use xlink:href="#XMLID_741_"  style="overflow:visible;fill:none;stroke:#263238;stroke-linecap:round;stroke-linejoin:round;stroke-miterlimit:10;"/>
		</g>
		<g>
			<path style="fill:#FFFFFF;stroke:#263238;stroke-linecap:round;stroke-linejoin:round;stroke-miterlimit:10;" d="M404.63,214.225
				c0,0-14.71,6.31-30.63,1.08c0,0,2.05-4.98,2.06-9.09c0.01-2.06-0.51-3.91-2.06-4.79c0,0,0.72-0.79,1.94-2.04
				c0.01,0,0.01,0,0.01,0c6.03-6.14,24.34-23.4,30.3-13.11C406.25,186.275,400.01,186.865,404.63,214.225z"/>
			<path style="fill:#263238;" d="M388,195.165c0,0-2.42,8.87-11.94,11.05c0.01-2.06-0.51-3.91-2.06-4.79c0,0,0.72-0.79,1.94-2.04
				c0.01,0,0.01,0,0.01,0C381.78,197.096,388,195.165,388,195.165z"/>
			<path style="fill:#FFFFFF;stroke:#263238;stroke-linecap:round;stroke-linejoin:round;stroke-miterlimit:10;" d="
				M410.392,171.794c6.318-25.176-7.29-33.793-15.865-37.092c-13.736-5.285-31.069,0.728-35.131,14.714
				c-4.062,13.986-0.401,17.171-0.591,22.893c-0.133,4.013-2.794,5.989,0.14,16.06c1.935,6.644,5.531,14.265,9.723,14.509
				c11.346,0.659,22.088-5.802,21.491-8.835"/>
			<path style="fill:none;stroke:#263238;stroke-linecap:round;stroke-linejoin:round;stroke-miterlimit:10;" d="M374.74,159.458
				c0,0,5.079-1.755,7.792,3.785"/>
			<path style="fill:none;stroke:#263238;stroke-linecap:round;stroke-linejoin:round;stroke-miterlimit:10;" d="M357.475,158.631
				c0,0,3.777-3.207,7.562,1.33"/>
			<ellipse style="fill:#263238;" cx="377.01" cy="170.118" rx="1.26" ry="2.119"/>
			<path style="fill:#263238;" d="M361.253,168.959c0,1.17,0.564,2.119,1.26,2.119c0.696,0,1.26-0.949,1.26-2.119
				c0-1.17-0.564-2.119-1.26-2.119C361.816,166.84,361.253,167.789,361.253,168.959z"/>
			<path style="fill:#FFFFFF;stroke:#263238;stroke-linecap:round;stroke-linejoin:round;stroke-miterlimit:10;" d="
				M365.038,164.108c0,0,0.782,5.829,0.434,6.97s-4.293,4.701-4.448,6.283s3.298,3.18,3.298,3.18"/>
			<path style="fill:#263238;" d="M362.512,183.888c0,0,7.877,1.978,14.498,0c0,0-3.12,9.77-9.285,8.775
				c-4.084-0.659-3.044-7.062-3.044-7.062L362.512,183.888z"/>
			<path style="fill:#263238;" d="M384.229,145.35c0,0-3.257-2.242-7.788-1.187c-4.532,1.055-5.244,10.584-5.244,10.584
				s-2.421-2.145-2.849-4.782l-1.424,4.088l-3.778-3.56l-1.265,4.255l-1.501-3.068l-2.907,5.663c0,0-4.369-5.63-3.692-9.982
				c1.846-11.868,11.264-21.619,30.962-20.571c9.917,0.527,13.617,7.325,13.617,7.325s9.698-1.312,14,3.719
				c14.647,17.131,5.461,35.734-8.448,53.357l-4.768-16.797l-4.615-0.527c0,0,0.172-2.538,0.029-5.176
				c-0.143-2.637-1.71-6.497-1.71-6.497l-1.709,0.767l0.712-3.217l-3.904,2.002c0,0,1.651-13.232,0-15.474
				C386.294,144.031,384.229,145.35,384.229,145.35z"/>
			<path style="fill:#FFFFFF;stroke:#263238;stroke-linecap:round;stroke-linejoin:round;stroke-miterlimit:10;" d="M396.242,176.2
				c0,0,4.616-8.602,9.441-6.504c4.826,2.098,1.469,12.378-2.727,15.735c-4.196,3.357-6.714,0-6.714,0"/>
			<g style="opacity:0.2;">
				<path style="fill:none;stroke:#FFFFFF;stroke-linecap:round;stroke-linejoin:round;stroke-miterlimit:10;" d="M388.415,141.81
					c0,0-1.722-4.823-7.371-5.194c-5.649-0.371-9.708,5.751-9.837,10.017"/>
				<path style="fill:none;stroke:#FFFFFF;stroke-linecap:round;stroke-linejoin:round;stroke-miterlimit:10;" d="M392.236,141.616
					c0,0,3.871-2.968,6.117,0c3.797,5.017,0.653,17.13,0.653,17.13"/>
				<path style="fill:none;stroke:#FFFFFF;stroke-linecap:round;stroke-linejoin:round;stroke-miterlimit:10;" d="M397.504,138.079
					c0,0,4.028-2.475,7.479,2.298c3.451,4.773,3.075,16.368,3.075,16.368"/>
				<path style="fill:none;stroke:#FFFFFF;stroke-linecap:round;stroke-linejoin:round;stroke-miterlimit:10;" d="M408.916,137.437
					c0,0,6.974,2.939,7.37,16.987"/>
				<path style="fill:none;stroke:#FFFFFF;stroke-linecap:round;stroke-linejoin:round;stroke-miterlimit:10;" d="M392.706,138.079
					c0,0-3.923-6.656-15.537-4.43c-11.614,2.226-13.358,14.098-13.358,14.098"/>
				<path style="fill:none;stroke:#FFFFFF;stroke-linecap:round;stroke-linejoin:round;stroke-miterlimit:10;" d="M395.596,136.059
					c0,0-4.677-6.492-18.893-5.194c-14.216,1.298-19.934,13.727-18.489,19.663"/>
			</g>
		</g>
		<g>
			<g>
				<path style="fill:#757575;stroke:#263238;stroke-linecap:round;stroke-linejoin:round;stroke-miterlimit:10;" d="
					M279.097,219.302c0,0,16.909-13.015,24.279-14.333s32.73,4.22,32.73,4.22v30.033c0,0-15.866,1.741-22.987,6.953
					c-7.121,5.212-31.648,6.048-31.648,6.048L279.097,219.302z"/>
				<path style="fill:#FFFFFF;stroke:#263238;stroke-linecap:round;stroke-linejoin:round;stroke-miterlimit:10;" d="
					M294.967,209.998c0,0,0.388-3.824,0.985-5.934c0.598-2.11,4.685-1.884,5.608-1.14c0.923,0.744,1.815,2.044,1.815,2.044
					s-1.419,0.414-1.815,0.546C301.165,205.646,300.769,213.295,294.967,209.998z"/>
				<g>
					<defs>
						
							<rect id="XMLID_737_" x="294.396" y="179.941" transform="matrix(0.3261 -0.9453 0.9453 0.3261 33.6043 432.6078)" width="51.667" height="25.585"/>
					</defs>
					<use xlink:href="#XMLID_737_"  style="overflow:visible;fill:#92E3A9;"/>
					<clipPath id="XMLID_00000070836374752624223260000014893150538453565337_">
						<use xlink:href="#XMLID_737_"  style="overflow:visible;"/>
					</clipPath>
					<path style="opacity:0.5;clip-path:url(#XMLID_00000070836374752624223260000014893150538453565337_);fill-opacity:0.7;" d="
						M299.711,212.984l24.187,8.343l16.849-48.842l-24.187-8.343L299.711,212.984z M338.204,173.723l-15.544,45.061l-20.406-7.039
						l15.544-45.061L338.204,173.723z"/>
					<path style="opacity:0.5;clip-path:url(#XMLID_00000070836374752624223260000014893150538453565337_);fill-opacity:0.7;" d="
						M320.152,170.501l-2.081,6.032c-0.233,0.675-0.969,1.034-1.644,0.801l0,0c-0.675-0.233-1.034-0.969-0.801-1.644l2.081-6.032
						c0.233-0.675,0.969-1.034,1.644-0.801l0,0C320.027,169.09,320.385,169.826,320.152,170.501z"/>
					<path style="opacity:0.5;clip-path:url(#XMLID_00000070836374752624223260000014893150538453565337_);fill-opacity:0.7;" d="
						M324.832,209.779l-2.081,6.032c-0.233,0.675-0.969,1.034-1.644,0.801h0c-0.675-0.233-1.033-0.969-0.801-1.644l2.081-6.032
						c0.233-0.675,0.969-1.034,1.644-0.801l0,0C324.706,208.367,325.065,209.103,324.832,209.779z"/>
					<path style="opacity:0.5;clip-path:url(#XMLID_00000070836374752624223260000014893150538453565337_);fill-opacity:0.7;" d="
						M312.652,190.12c-1.444,4.185,0.779,8.747,4.963,10.191c4.185,1.443,8.747-0.779,10.191-4.963
						c1.444-4.185-0.779-8.747-4.963-10.191S314.096,185.936,312.652,190.12z M324.44,193.596l0.598,0.206l-0.364,1.055
						l-0.598-0.206c-0.507,0.861-1.384,1.084-2.498,0.699l-0.563-0.194l0.421-1.219l0.645,0.222
						c0.586,0.202,0.886,0.017,1.028-0.393c0.142-0.41,0.02-0.741-0.567-0.943c-0.586-0.202-1.089-0.113-2.068,0.52
						c-1.196,0.768-1.978,0.905-2.916,0.581c-1.102-0.38-1.648-1.08-1.536-2.051l-0.61-0.21l0.364-1.055l0.61,0.21
						c0.503-0.85,1.368-1.076,2.482-0.692l0.258,0.089l-0.421,1.219l-0.34-0.117c-0.586-0.202-0.89-0.045-1.031,0.366
						c-0.142,0.41,0,0.722,0.587,0.924c0.586,0.202,1.077,0.109,2.068-0.52c1.208-0.764,1.978-0.905,2.916-0.581
						C324.018,191.89,324.567,192.617,324.44,193.596z"/>
					
						<use xlink:href="#XMLID_737_"  style="overflow:visible;fill:none;stroke:#263238;stroke-linecap:round;stroke-linejoin:round;stroke-miterlimit:10;"/>
				</g>
				<g>
					<defs>
						
							<rect id="XMLID_740_" x="273.338" y="101.825" transform="matrix(0.2569 0.9664 -0.9664 0.2569 333.0997 -203.9564)" width="51.667" height="25.585"/>
					</defs>
					<use xlink:href="#XMLID_740_"  style="overflow:visible;fill:#92E3A9;"/>
					<clipPath id="XMLID_00000023997280817639676780000003119047366293692346_">
						<use xlink:href="#XMLID_740_"  style="overflow:visible;"/>
					</clipPath>
					<path style="opacity:0.5;clip-path:url(#XMLID_00000023997280817639676780000003119047366293692346_);fill-opacity:0.7;" d="
						M304.899,86.365l-24.727,6.572l13.271,49.933l24.727-6.572L304.899,86.365z M294.862,140.424l-12.244-46.068l20.861-5.544
						l12.243,46.068L294.862,140.424z"/>
					<path style="opacity:0.5;clip-path:url(#XMLID_00000023997280817639676780000003119047366293692346_);fill-opacity:0.7;" d="
						M311.641,133.025l-1.639-6.167c-0.183-0.69,0.227-1.398,0.918-1.582l0,0c0.69-0.183,1.398,0.227,1.582,0.918l1.639,6.167
						c0.183,0.69-0.227,1.398-0.918,1.582l0,0C312.532,134.126,311.824,133.715,311.641,133.025z"/>
					<path style="opacity:0.5;clip-path:url(#XMLID_00000023997280817639676780000003119047366293692346_);fill-opacity:0.7;" d="
						M285.841,103.041l-1.639-6.167c-0.183-0.69,0.227-1.398,0.918-1.582l0,0c0.69-0.184,1.398,0.227,1.582,0.917l1.639,6.167
						c0.183,0.69-0.227,1.398-0.918,1.582l0,0C286.733,104.142,286.025,103.732,285.841,103.041z"/>
					<path style="opacity:0.5;clip-path:url(#XMLID_00000023997280817639676780000003119047366293692346_);fill-opacity:0.7;" d="
						M306.917,112.559c-1.137-4.278-5.527-6.825-9.805-5.688s-6.824,5.527-5.688,9.805s5.527,6.825,9.805,5.687
						C305.508,121.227,308.054,116.837,306.917,112.559z M295.196,116.252l-0.611,0.162l-0.287-1.079l0.611-0.163
						c-0.06-0.998,0.544-1.671,1.683-1.974l0.575-0.153l0.331,1.246l-0.659,0.175c-0.599,0.159-0.745,0.48-0.633,0.9
						c0.111,0.419,0.397,0.626,0.997,0.466c0.599-0.159,0.967-0.514,1.426-1.585c0.564-1.305,1.137-1.855,2.096-2.11
						c1.127-0.299,1.97-0.023,2.419,0.845l0.623-0.166l0.287,1.079l-0.623,0.166c0.057,0.986-0.535,1.656-1.674,1.959l-0.264,0.07
						l-0.331-1.246l0.348-0.092c0.599-0.159,0.763-0.46,0.652-0.879c-0.112-0.419-0.403-0.599-1.002-0.439
						c-0.599,0.159-0.955,0.511-1.426,1.585c-0.576,1.308-1.137,1.855-2.096,2.11C296.498,117.433,295.637,117.136,295.196,116.252z
						"/>
					
						<use xlink:href="#XMLID_740_"  style="overflow:visible;fill:none;stroke:#263238;stroke-linecap:round;stroke-linejoin:round;stroke-miterlimit:10;"/>
				</g>
				<path style="fill:#999999;stroke:#263238;stroke-linecap:round;stroke-linejoin:round;stroke-miterlimit:10;" d="
					M279.097,219.302c0,0,24.527-8.268,31.121-9.454c6.593-1.187,25.888-0.659,25.888-0.659v30.033c0,0-20.142,6.112-23.25,8.557
					s-31.385,4.444-31.385,4.444L279.097,219.302z"/>
				<path style="fill:none;stroke:#263238;stroke-linecap:round;stroke-linejoin:round;stroke-miterlimit:10;" d="M312.568,222.878
					c-1.292,6.953-0.364,16.274-4.967,21.915"/>
				<path style="fill:none;stroke:#263238;stroke-linecap:round;stroke-linejoin:round;stroke-miterlimit:10;" d="M314.704,212.353
					c-0.499,2.269-0.971,4.545-1.424,6.824"/>
				<g>
					<path style="fill:#BFBFBF;stroke:#263238;stroke-linecap:round;stroke-linejoin:round;stroke-miterlimit:10;" d="
						M339.117,112.712c0,3.034-2.46,5.494-5.494,5.494c-3.034,0-5.494-2.46-5.494-5.494c0-3.034,2.46-5.494,5.494-5.494
						C336.657,107.217,339.117,109.677,339.117,112.712z"/>
					<path style="opacity:0.5;fill-opacity:0.7;" d="M336.691,116.134c1.89-1.695,2.048-4.601,0.354-6.491
						c-1.695-1.89-4.601-2.048-6.491-0.354c-1.89,1.695-2.048,4.601-0.354,6.491C331.895,117.67,334.801,117.829,336.691,116.134z
						 M331.753,111.106l-0.242-0.27l0.477-0.427l0.242,0.27c0.494-0.29,0.996-0.157,1.447,0.346l0.228,0.254l-0.551,0.494
						l-0.261-0.291c-0.237-0.265-0.439-0.256-0.625-0.089c-0.185,0.166-0.216,0.366,0.021,0.631c0.237,0.265,0.514,0.36,1.181,0.316
						c0.814-0.051,1.244,0.098,1.623,0.522c0.446,0.498,0.525,1.001,0.198,1.456l0.247,0.275l-0.477,0.427l-0.247-0.275
						c-0.489,0.286-0.986,0.158-1.437-0.345l-0.104-0.117l0.551-0.494l0.138,0.154c0.237,0.265,0.434,0.27,0.619,0.104
						c0.185-0.166,0.201-0.362-0.036-0.626s-0.509-0.355-1.181-0.316c-0.818,0.046-1.244-0.098-1.624-0.522
						C331.488,112.079,331.416,111.561,331.753,111.106z"/>
				</g>
				<g>
					<path style="fill:#BFBFBF;stroke:#263238;stroke-linecap:round;stroke-linejoin:round;stroke-miterlimit:10;" d="
						M313.095,69.298c0,3.034-2.46,5.494-5.494,5.494c-3.034,0-5.494-2.46-5.494-5.494c0-3.034,2.46-5.494,5.494-5.494
						C310.635,63.804,313.095,66.264,313.095,69.298z"/>
					<path style="opacity:0.5;fill-opacity:0.7;" d="M310.669,72.72c1.89-1.695,2.048-4.601,0.354-6.491
						c-1.695-1.89-4.601-2.048-6.491-0.354c-1.89,1.695-2.048,4.601-0.354,6.491C305.873,74.257,308.779,74.415,310.669,72.72z
						 M305.731,67.692l-0.242-0.27l0.477-0.427l0.242,0.27c0.494-0.29,0.996-0.157,1.447,0.346l0.228,0.254l-0.551,0.494
						l-0.261-0.291c-0.237-0.265-0.439-0.256-0.625-0.089c-0.185,0.166-0.216,0.366,0.021,0.631c0.237,0.265,0.514,0.36,1.181,0.316
						c0.814-0.051,1.244,0.098,1.624,0.522c0.446,0.498,0.525,1.001,0.198,1.456l0.247,0.275l-0.477,0.427l-0.247-0.275
						c-0.489,0.286-0.986,0.158-1.437-0.345l-0.104-0.116l0.551-0.494l0.138,0.154c0.237,0.265,0.434,0.27,0.619,0.104
						c0.185-0.166,0.201-0.362-0.036-0.627c-0.237-0.265-0.509-0.355-1.181-0.316c-0.819,0.046-1.244-0.098-1.624-0.522
						C305.467,68.665,305.394,68.147,305.731,67.692z"/>
				</g>
				<g>
					<path style="fill:#BFBFBF;stroke:#263238;stroke-linecap:round;stroke-linejoin:round;stroke-miterlimit:10;" d="
						M287.589,175.454c-2.947-0.724-4.749-3.7-4.025-6.647c0.724-2.947,3.7-4.748,6.647-4.024c2.947,0.724,4.748,3.7,4.024,6.646
						C293.512,174.376,290.536,176.178,287.589,175.454z"/>
					<path style="opacity:0.5;fill-opacity:0.7;" d="M284.845,172.282c1.195,2.24,3.979,3.087,6.219,1.892
						c2.24-1.195,3.087-3.979,1.892-6.219c-1.195-2.24-3.979-3.087-6.219-1.892C284.497,167.258,283.65,170.042,284.845,172.282z
						 M290.906,168.686l0.32-0.171l0.301,0.565l-0.32,0.171c0.164,0.549-0.085,1.005-0.681,1.323l-0.301,0.161l-0.348-0.653
						l0.345-0.184c0.314-0.167,0.353-0.366,0.236-0.585c-0.117-0.22-0.304-0.297-0.618-0.13c-0.314,0.167-0.473,0.413-0.589,1.072
						c-0.144,0.802-0.392,1.184-0.894,1.452c-0.59,0.315-1.097,0.271-1.461-0.155l-0.326,0.174l-0.301-0.565l0.326-0.174
						c-0.161-0.543,0.082-0.995,0.678-1.313l0.138-0.074l0.348,0.653l-0.182,0.097c-0.314,0.167-0.366,0.356-0.249,0.576
						c0.117,0.22,0.303,0.282,0.617,0.114c0.314-0.167,0.466-0.41,0.589-1.072c0.151-0.806,0.392-1.184,0.894-1.452
						C290.024,168.197,290.544,168.25,290.906,168.686z"/>
				</g>
			</g>
			<g>
				<defs>
					<path id="XMLID_738_" d="M353.462,224.283c-1.4-2.536-5.4-1.314-10.066,6.019c-4.667,7.333-6.572,15.885-5.444,19
						c1.128,3.115,16.222,6.889,16.222,6.889l3.111-7.889L353.462,224.283z"/>
				</defs>
				<use xlink:href="#XMLID_738_"  style="overflow:visible;fill:#92E3A9;"/>
				<clipPath id="XMLID_00000132087819939967543000000006940763135361365142_">
					<use xlink:href="#XMLID_738_"  style="overflow:visible;"/>
				</clipPath>
				<path style="opacity:0.5;clip-path:url(#XMLID_00000132087819939967543000000006940763135361365142_);fill-opacity:0.7;" d="
					M353.462,224.283c-1.4-2.536-5.4-1.314-10.066,6.019c-4.667,7.333-6.572,15.885-5.444,19c1.128,3.115,16.222,6.889,16.222,6.889
					l3.111-7.889L353.462,224.283z"/>
				
					<use xlink:href="#XMLID_738_"  style="overflow:visible;fill:none;stroke:#263238;stroke-linecap:round;stroke-linejoin:round;stroke-miterlimit:10;"/>
			</g>
			<g>
				<path style="fill:#FFFFFF;stroke:#263238;stroke-linecap:round;stroke-linejoin:round;stroke-miterlimit:10;" d="
					M359.846,239.635l-8.659-18.946c0,0-5.641-8.074-6.753-11.152c-1.111-3.078-13.521-5.473-16.324-5.473
					c-2.802,0-5.767,5.008-5.767,5.008l5.83,0.003c0,0,2.174,2.286,2.448,3.654c0.274,1.368-7.707,8.171-8.848,8.817
					c-1.14,0.646-4.149,1.649-7.319,3.998c-3.17,2.349-10.315,4.181-11.645,6.286c-1.33,2.105-0.39,2.504,0.565,2.989
					c0.955,0.485,2.551,0.599,2.551,0.599s-0.57,2.394,0,3.648c0.57,1.254,3.892,1.14,3.892,1.14s0.156,1.741,1.78,2.01
					c1.624,0.27,2.856,0.757,2.856,0.757s6.863,1.161,9.941,0.508c3.078-0.653,12.419-5.628,14.704-5.421
					c2.284,0.207,8.598,14.862,8.598,14.862S358.478,251.097,359.846,239.635z"/>
				<path style="fill:none;stroke:#263238;stroke-linecap:round;stroke-linejoin:round;stroke-miterlimit:10;" d="M305.927,235.418
					c0,0,8.963-1.938,9.555-2.622c0.592-0.684,6.863-2.633,6.863-2.633"/>
				<path style="fill:none;stroke:#263238;stroke-linecap:round;stroke-linejoin:round;stroke-miterlimit:10;" d="M309.819,240.207
					c0,0,5.033-1.026,6.784-1.254c1.751-0.228,8.934-3.534,8.934-3.534"/>
				<path style="fill:none;stroke:#263238;stroke-linecap:round;stroke-linejoin:round;stroke-miterlimit:10;" d="M314.456,242.974
					c0,0,7.091-0.601,8.573-1.285s5.815-2.052,5.815-2.052"/>
			</g>
			<path style="fill:#92E3A9;stroke:#263238;stroke-linecap:round;stroke-linejoin:round;stroke-miterlimit:10;" d="
				M419.222,231.286c-10.521,6.934-16.876,23.683-16.876,23.683l-16.423,30.548c0,0-13.81-34.002-17.723-34.437l-14.738-26.797
				c0,0,1.743,15.705-4.4,22.371c-6.142,6.667-11.111,2.648-11.111,2.648l4.587,12.667l1.142,6.018c0,0,19.373,58.119,25.706,61.716
				c6.333,3.598,20.743,5.211,32.96-3.736c12.217-8.947,33.12-42.781,35.099-53.849"/>
			<path style="fill:none;stroke:#263238;stroke-linecap:round;stroke-linejoin:round;stroke-miterlimit:10;" d="M362.27,255.101
				c0.532-0.796,1.022-1.62,1.471-2.465"/>
			<path style="fill:none;stroke:#263238;stroke-linecap:round;stroke-linejoin:round;stroke-miterlimit:10;" d="M349.856,263.044
				c4.217-0.448,8.142-2.651,10.865-5.88"/>
			<path style="fill:none;stroke:#263238;stroke-linecap:round;stroke-linejoin:round;stroke-miterlimit:10;" d="M342.538,261.969
				c1.635,0.689,3.387,1.079,5.16,1.148"/>
			<path style="fill:none;stroke:#263238;stroke-linecap:round;stroke-linejoin:round;stroke-miterlimit:10;" d="M390.231,298.987
				c0.068,1.396-0.02,2.803-0.336,4.167"/>
			<path style="fill:none;stroke:#263238;stroke-linecap:round;stroke-linejoin:round;stroke-miterlimit:10;" d="M385.923,285.517
				c1.927,3.36,3.377,7.131,4.028,10.951"/>
			<path style="fill:none;stroke:#263238;stroke-linecap:round;stroke-linejoin:round;stroke-miterlimit:10;" d="M395.006,290.987
				c0,0-2.986-3.741-6.391-5.47"/>
			<path style="fill:none;stroke:#263238;stroke-linecap:round;stroke-linejoin:round;stroke-miterlimit:10;" d="M420.968,246.651
				c0,0-9.24-1.236-16.573,7.217"/>
			<path style="fill:none;stroke:#263238;stroke-linecap:round;stroke-linejoin:round;stroke-miterlimit:10;" d="M430.74,272.494
				c-1.772,0.25-3.582-0.022-5.179-0.84"/>
			<path style="fill:none;stroke:#263238;stroke-linecap:round;stroke-linejoin:round;stroke-miterlimit:10;" d="M441.835,260.104
				c-1.454,7.013-5.368,10.572-8.78,11.808"/>
		</g>
		<path style="fill:none;stroke:#263238;stroke-linecap:round;stroke-linejoin:round;stroke-miterlimit:10;" d="M398.272,220.242
			c0,0-15.34,3.565-23.886-2.15"/>
		<path style="fill:none;stroke:#263238;stroke-linecap:round;stroke-linejoin:round;stroke-miterlimit:10;" d="M343.26,314.109
			c0,0,8.358,23.6,27.691,27.6"/>
		<path style="fill:none;stroke:#263238;stroke-linecap:round;stroke-linejoin:round;stroke-miterlimit:10;" d="M399.133,346.82
			c-0.995,0.75-2.037,1.437-3.097,2.091"/>
		<g>
			<g>
				
					<line style="fill:none;stroke:#263238;stroke-linecap:round;stroke-linejoin:round;stroke-miterlimit:10;" x1="292.465" y1="61.008" x2="292.465" y2="81.755"/>
				
					<line style="fill:none;stroke:#263238;stroke-linecap:round;stroke-linejoin:round;stroke-miterlimit:10;" x1="292.465" y1="48.56" x2="292.465" y2="56.859"/>
				
					<line style="fill:none;stroke:#263238;stroke-linecap:round;stroke-linejoin:round;stroke-miterlimit:10;" x1="292.465" y1="40.805" x2="292.465" y2="45.244"/>
				<polyline style="fill:none;stroke:#263238;stroke-linecap:round;stroke-linejoin:round;stroke-miterlimit:10;" points="
					288.547,79.33 292.465,84.18 296.384,79.33 				"/>
			</g>
			<g>
				
					<line style="fill:none;stroke:#263238;stroke-linecap:round;stroke-linejoin:round;stroke-miterlimit:10;" x1="302.837" y1="164.897" x2="302.837" y2="185.645"/>
				
					<line style="fill:none;stroke:#263238;stroke-linecap:round;stroke-linejoin:round;stroke-miterlimit:10;" x1="302.837" y1="152.449" x2="302.837" y2="160.748"/>
				
					<line style="fill:none;stroke:#263238;stroke-linecap:round;stroke-linejoin:round;stroke-miterlimit:10;" x1="302.837" y1="144.694" x2="302.837" y2="149.133"/>
				<polyline style="fill:none;stroke:#263238;stroke-linecap:round;stroke-linejoin:round;stroke-miterlimit:10;" points="
					298.919,183.219 302.837,188.07 306.755,183.219 				"/>
			</g>
			<g>
				
					<line style="fill:none;stroke:#263238;stroke-linecap:round;stroke-linejoin:round;stroke-miterlimit:10;" x1="323.332" y1="102.459" x2="323.332" y2="123.206"/>
				
					<line style="fill:none;stroke:#263238;stroke-linecap:round;stroke-linejoin:round;stroke-miterlimit:10;" x1="323.332" y1="90.01" x2="323.332" y2="98.309"/>
				
					<line style="fill:none;stroke:#263238;stroke-linecap:round;stroke-linejoin:round;stroke-miterlimit:10;" x1="323.332" y1="82.255" x2="323.332" y2="86.694"/>
				<polyline style="fill:none;stroke:#263238;stroke-linecap:round;stroke-linejoin:round;stroke-miterlimit:10;" points="
					319.413,120.781 323.332,125.631 327.25,120.781 				"/>
			</g>
		</g>
	</g>
</g>
<g id="Hand">
	<g>
		<g>
			<path style="fill:#FFFFFF;" d="M142.769,331.019c-0.326,13.024,6.121,11.972,6.121,11.972c0.399-1.076,1.32-2.559,2.429-4.279
				c3.374-5.192,8.541-12.47,6.602-16.781c-0.88-1.956-2.526-4.686-4.311-7.433c-3.456-5.297-7.425-10.652-7.425-10.652
				l17.213-2.852c0,0,12.258,5.069,21.932,5.656c0.253,0.016,0.505,0.024,0.75,0.024c8.835,0.171,7.408-6.756,7.408-8.989
				c0-0.954-2.388-2.698-5.183-4.417c-3.985-2.445-8.818-4.849-8.818-4.849l2.616-5.42c1.817,0.326,3.325,0.391,4.572,0.245
				c6.699-0.734,5.778-7.327,4.694-10.204c-0.31-0.823-1.85-2.07-4.026-3.505c-6.887-4.54-20.074-10.864-20.074-10.864h-19.34
				l-19.03,51.948C128.897,310.62,143.087,317.996,142.769,331.019z"/>
			<path style="opacity:0.4;fill:#92E3A9;" d="M142.769,331.019c-0.326,13.024,6.121,11.972,6.121,11.972
				c0.399-1.076,1.32-2.559,2.429-4.279c3.374-5.192,8.541-12.47,6.602-16.781c-0.88-1.956-2.526-4.686-4.311-7.433
				c-3.456-5.297-7.425-10.652-7.425-10.652l17.213-2.852c0,0,12.258,5.069,21.932,5.656c0.253,0.016,0.505,0.024,0.75,0.024
				c8.835,0.171,7.408-6.756,7.408-8.989c0-0.954-2.388-2.698-5.183-4.417c-3.985-2.445-8.818-4.849-8.818-4.849l2.616-5.42
				c1.817,0.326,3.325,0.391,4.572,0.245c6.699-0.734,5.778-7.327,4.694-10.204c-0.31-0.823-1.85-2.07-4.026-3.505
				c-6.887-4.54-20.074-10.864-20.074-10.864h-19.34l-19.03,51.948C128.897,310.62,143.087,317.996,142.769,331.019z"/>
			<path style="opacity:0.4;fill:#92E3A9;" d="M142.769,331.019c-0.326,13.024,6.121,11.972,6.121,11.972
				c0.399-1.076,1.32-2.559,2.429-4.279c-0.228-1.206-0.375-2.51-0.35-3.79c0.082-4.458,3.741-12.991,3.741-12.991l-3.741-5.917
				c0.546-0.562,1.483-1.068,2.641-1.516c-3.456-5.297-7.425-10.652-7.425-10.652l17.213-2.852c0,0,12.258,5.069,21.932,5.656
				c0.253,0.016,0.505,0.024,0.75,0.024c-0.562-4.849,1.353-10.962,2.225-13.407c-3.985-2.445-8.818-4.849-8.818-4.849l2.616-5.42
				c1.817,0.326,3.325,0.391,4.572,0.245c-0.88-4.23-0.041-10.098,0.668-13.708c-6.887-4.54-20.074-10.864-20.074-10.864h-19.34
				l-19.03,51.948C128.897,310.62,143.087,317.996,142.769,331.019z"/>
			<g>
				<path style="fill:none;stroke:#263238;stroke-linecap:round;stroke-linejoin:round;stroke-miterlimit:10;" d="M147.924,258.671
					h19.345c0,0,22.809,10.944,24.098,14.366c1.29,3.422,2.34,12.05-9.267,9.965l-2.615,5.416c0,0,14.001,6.961,14.001,9.265
					c0,2.305,1.511,9.547-8.161,8.965c-9.673-0.582-21.924-5.656-21.924-5.656l-17.214,2.852c0,0,9.154,12.349,11.733,18.087
					c2.579,5.738-7.416,16.725-9.028,21.065c0,0-6.448,1.046-6.126-11.977c0.322-13.023-13.864-20.4-13.864-20.4"/>
				<path style="fill:none;stroke:#263238;stroke-linecap:round;stroke-linejoin:round;stroke-miterlimit:10;" d="M152.51,319.608
					c0,0-4.848-2.715-7.488,2.323"/>
			</g>
		</g>
		<g>
			<path style="fill:#92E3A9;stroke:#263238;stroke-linecap:round;stroke-linejoin:round;stroke-miterlimit:10;" d="M211.76,324.899
				h-95.844c-5.115,0-9.262-4.147-9.262-9.262V135.948c0-5.115,4.147-9.262,9.262-9.262h95.844c5.115,0,9.262,4.147,9.262,9.262
				v179.689C221.022,320.752,216.876,324.899,211.76,324.899z"/>
			<path style="fill:#263238;" d="M217.477,134.727v182.642c0,2.282-1.85,4.132-4.132,4.132h-99.014
				c-2.282,0-4.132-1.85-4.132-4.132V134.727c0-2.282,1.85-4.132,4.132-4.132h22.001c1.448,0,2.744,0.9,3.249,2.257l0.935,2.511
				c0.505,1.357,1.801,2.257,3.249,2.257h40.146c1.448,0,2.744-0.9,3.249-2.257l0.935-2.511c0.505-1.357,1.801-2.257,3.249-2.257
				h22.001C215.627,130.595,217.477,132.445,217.477,134.727z"/>
			<path style="fill:#92E3A9;stroke:#263238;stroke-linecap:round;stroke-linejoin:round;stroke-miterlimit:10;" d="M178.34,276.395
				h-29.005c-5.431,0-9.834-4.403-9.834-9.834l0,0c0-5.431,4.403-9.834,9.834-9.834h29.005c5.431,0,9.834,4.403,9.834,9.834l0,0
				C188.174,271.992,183.771,276.395,178.34,276.395z"/>
			<g>
				<path style="fill:#FFFFFF;stroke:#263238;stroke-linecap:round;stroke-linejoin:round;stroke-miterlimit:10;" d="
					M154.368,132.654c0,0.944-0.765,1.709-1.709,1.709c-0.944,0-1.709-0.765-1.709-1.709c0-0.944,0.765-1.709,1.709-1.709
					C153.602,130.945,154.368,131.71,154.368,132.654z"/>
				<path style="fill:#FFFFFF;stroke:#263238;stroke-linecap:round;stroke-linejoin:round;stroke-miterlimit:10;" d="
					M176.727,132.654c0,0.592-0.48,1.071-1.072,1.071c-0.592,0-1.072-0.48-1.072-1.071c0-0.592,0.48-1.072,1.072-1.072
					C176.247,131.582,176.727,132.062,176.727,132.654z"/>
				<path style="fill:#FFFFFF;stroke:#263238;stroke-linecap:round;stroke-linejoin:round;stroke-miterlimit:10;" d="
					M170.641,133.258h-12.816c-0.334,0-0.605-0.271-0.605-0.604l0,0c0-0.334,0.271-0.605,0.605-0.605h12.816
					c0.334,0,0.604,0.271,0.604,0.605l0,0C171.245,132.988,170.975,133.258,170.641,133.258z"/>
			</g>
			<path style="fill:#FFFFFF;stroke:#263238;stroke-linecap:round;stroke-linejoin:round;stroke-miterlimit:10;" d="
				M199.695,246.681h-71.714c-6.896,0-12.487-5.591-12.487-12.487V160.48c0-6.896,5.591-12.487,12.487-12.487h71.714
				c6.896,0,12.487,5.591,12.487,12.487v73.714C212.182,241.091,206.592,246.681,199.695,246.681z"/>
			<g>
				<g>
					<g>
						
							<line style="fill:none;stroke:#263238;stroke-linecap:round;stroke-linejoin:round;stroke-miterlimit:10;" x1="154.081" y1="189.748" x2="154.081" y2="174.915"/>
						
							<line style="fill:none;stroke:#263238;stroke-linecap:round;stroke-linejoin:round;stroke-miterlimit:10;" x1="154.081" y1="198.648" x2="154.081" y2="192.714"/>
						
							<line style="fill:none;stroke:#263238;stroke-linecap:round;stroke-linejoin:round;stroke-miterlimit:10;" x1="154.081" y1="204.192" x2="154.081" y2="201.018"/>
						<polyline style="fill:none;stroke:#263238;stroke-linecap:round;stroke-linejoin:round;stroke-miterlimit:10;" points="
							156.883,176.648 154.081,173.181 151.28,176.648 						"/>
					</g>
					<g>
						
							<line style="fill:none;stroke:#263238;stroke-linecap:round;stroke-linejoin:round;stroke-miterlimit:10;" x1="173.595" y1="184.247" x2="173.595" y2="169.414"/>
						
							<line style="fill:none;stroke:#263238;stroke-linecap:round;stroke-linejoin:round;stroke-miterlimit:10;" x1="173.595" y1="193.147" x2="173.595" y2="187.214"/>
						
							<line style="fill:none;stroke:#263238;stroke-linecap:round;stroke-linejoin:round;stroke-miterlimit:10;" x1="173.595" y1="198.691" x2="173.595" y2="195.518"/>
						<polyline style="fill:none;stroke:#263238;stroke-linecap:round;stroke-linejoin:round;stroke-miterlimit:10;" points="
							176.396,171.148 173.595,167.681 170.794,171.148 						"/>
					</g>
					<g>
						
							<line style="fill:none;stroke:#263238;stroke-linecap:round;stroke-linejoin:round;stroke-miterlimit:10;" x1="163.393" y1="174.286" x2="163.393" y2="159.453"/>
						
							<line style="fill:none;stroke:#263238;stroke-linecap:round;stroke-linejoin:round;stroke-miterlimit:10;" x1="163.393" y1="183.186" x2="163.393" y2="177.253"/>
						
							<line style="fill:none;stroke:#263238;stroke-linecap:round;stroke-linejoin:round;stroke-miterlimit:10;" x1="163.393" y1="188.73" x2="163.393" y2="185.557"/>
						<polyline style="fill:none;stroke:#263238;stroke-linecap:round;stroke-linejoin:round;stroke-miterlimit:10;" points="
							166.194,161.187 163.393,157.719 160.592,161.187 						"/>
					</g>
				</g>
				
					<ellipse transform="matrix(0.2282 -0.9736 0.9736 0.2282 -63.5161 310.0928)" style="fill:#92E3A9;stroke:#263238;stroke-linecap:round;stroke-linejoin:round;stroke-miterlimit:10;" cx="163.838" cy="195.11" rx="15.514" ry="15.514"/>
				<g>
					<path style="fill:#263238;" d="M162.757,186.869v-1.248h2.16v1.248c1.872,0.384,2.832,1.824,2.832,4.104v0.528h-2.496v-0.696
						c0-1.2-0.48-1.656-1.32-1.656c-0.84,0-1.32,0.456-1.32,1.656c0,1.2,0.48,2.04,2.256,3.456c2.16,1.728,2.904,3.048,2.904,4.968
						c0,2.28-0.984,3.745-2.856,4.128v1.224h-2.16v-1.224c-1.896-0.384-2.856-1.848-2.856-4.128v-1.152h2.497v1.32
						c0,1.2,0.528,1.632,1.368,1.632c0.84,0,1.368-0.432,1.368-1.632c0-1.2-0.48-2.064-2.256-3.456
						c-2.16-1.704-2.904-3.048-2.904-4.969C159.973,188.717,160.909,187.276,162.757,186.869z"/>
				</g>
			</g>
			<g>
				<path style="fill:#263238;" d="M151.749,220.16v-0.474h0.82v0.474c0.711,0.146,1.075,0.692,1.075,1.558v0.201h-0.947v-0.264
					c0-0.456-0.182-0.628-0.501-0.628s-0.502,0.173-0.502,0.628c0,0.456,0.183,0.774,0.857,1.312
					c0.82,0.656,1.102,1.157,1.102,1.886c0,0.866-0.373,1.421-1.084,1.567v0.465h-0.82v-0.465c-0.719-0.145-1.084-0.701-1.084-1.567
					v-0.437h0.948v0.501c0,0.456,0.2,0.619,0.519,0.619c0.319,0,0.519-0.164,0.519-0.619c0-0.455-0.182-0.784-0.856-1.312
					c-0.82-0.646-1.102-1.157-1.102-1.886C150.692,220.861,151.048,220.314,151.749,220.16z"/>
				<path style="fill:#263238;" d="M154.949,220.898c0.774,0,0.947-0.374,1.102-0.801h0.674v6.376h-1.002v-4.864h-0.774V220.898z"/>
				<path style="fill:#263238;" d="M157.858,221.626c0-1.02,0.538-1.604,1.521-1.604s1.521,0.583,1.521,1.604v3.316
					c0,1.02-0.538,1.603-1.521,1.603s-1.521-0.583-1.521-1.603V221.626z M158.86,225.006c0,0.455,0.2,0.629,0.519,0.629
					c0.319,0,0.519-0.173,0.519-0.629v-3.443c0-0.456-0.2-0.628-0.519-0.628c-0.319,0-0.519,0.173-0.519,0.628V225.006z"/>
				<path style="fill:#263238;" d="M161.468,221.626c0-1.02,0.538-1.604,1.521-1.604c0.984,0,1.521,0.583,1.521,1.604v3.316
					c0,1.02-0.538,1.603-1.521,1.603c-0.984,0-1.521-0.583-1.521-1.603V221.626z M162.47,225.006c0,0.455,0.2,0.629,0.519,0.629
					c0.319,0,0.519-0.173,0.519-0.629v-3.443c0-0.456-0.2-0.628-0.519-0.628c-0.319,0-0.519,0.173-0.519,0.628V225.006z"/>
				<path style="fill:#263238;" d="M165.078,221.626c0-1.02,0.538-1.604,1.521-1.604s1.521,0.583,1.521,1.604v3.316
					c0,1.02-0.538,1.603-1.521,1.603s-1.521-0.583-1.521-1.603V221.626z M166.081,225.006c0,0.455,0.2,0.629,0.519,0.629
					c0.319,0,0.519-0.173,0.519-0.629v-3.443c0-0.456-0.2-0.628-0.519-0.628c-0.319,0-0.519,0.173-0.519,0.628V225.006z"/>
				<path style="fill:#263238;" d="M169.736,225.507v0.966h-0.966v-0.966H169.736z"/>
				<path style="fill:#263238;" d="M170.383,221.626c0-1.02,0.538-1.604,1.521-1.604s1.521,0.583,1.521,1.604v3.316
					c0,1.02-0.538,1.603-1.521,1.603s-1.521-0.583-1.521-1.603V221.626z M171.386,225.006c0,0.455,0.2,0.629,0.519,0.629
					c0.319,0,0.519-0.173,0.519-0.629v-3.443c0-0.456-0.2-0.628-0.519-0.628c-0.319,0-0.519,0.173-0.519,0.628V225.006z"/>
				<path style="fill:#263238;" d="M173.994,221.626c0-1.02,0.538-1.604,1.521-1.604c0.984,0,1.521,0.583,1.521,1.604v3.316
					c0,1.02-0.538,1.603-1.521,1.603c-0.984,0-1.521-0.583-1.521-1.603V221.626z M174.996,225.006c0,0.455,0.2,0.629,0.519,0.629
					c0.319,0,0.519-0.173,0.519-0.629v-3.443c0-0.456-0.2-0.628-0.519-0.628c-0.319,0-0.519,0.173-0.519,0.628V225.006z"/>
			</g>
			<g>
				<path style="fill:#263238;" d="M146.234,232.374h1.002v6.376h-1.002V232.374z"/>
				<path style="fill:#263238;" d="M147.966,232.374h1.585c1.002,0,1.494,0.556,1.494,1.576v3.225c0,1.021-0.492,1.576-1.494,1.576
					h-1.585V232.374z M148.968,233.284v4.555h0.565c0.319,0,0.51-0.164,0.51-0.619v-3.316c0-0.456-0.191-0.62-0.51-0.62H148.968z"/>
				<path style="fill:#263238;" d="M152.56,237.784v0.966h-0.966v-0.966H152.56z"/>
				<path style="fill:#263238;" d="M154.756,233.211c-0.319,0-0.519,0.173-0.519,0.628v0.683h-0.948v-0.619
					c0-1.02,0.51-1.604,1.494-1.604s1.494,0.583,1.494,1.604c0,0.847-0.31,1.53-1.239,2.523c-0.592,0.638-0.756,0.938-0.756,1.275
					c0,0.045,0,0.091,0.009,0.136h1.895v0.911h-2.897v-0.783c0-0.711,0.255-1.248,1.002-2.032c0.766-0.811,0.984-1.312,0.984-1.995
					C155.275,233.366,155.075,233.211,154.756,233.211z"/>
				<path style="fill:#263238;" d="M157.52,233.175c0.774,0,0.947-0.374,1.102-0.801h0.674v6.376h-1.002v-4.864h-0.774V233.175z"/>
				<path style="fill:#263238;" d="M161.949,238.823c-1.011,0-1.567-0.583-1.567-1.603v-0.501c0-0.61,0.182-1.075,0.62-1.321v-0.019
					c-0.419-0.227-0.62-0.646-0.62-1.275v-0.2c0-1.02,0.556-1.604,1.567-1.604s1.567,0.583,1.567,1.604v0.2
					c0,0.629-0.21,1.048-0.62,1.275v0.019c0.438,0.246,0.62,0.71,0.62,1.321v0.501C163.516,238.24,162.96,238.823,161.949,238.823z
					 M161.384,234.295c0,0.51,0.237,0.674,0.565,0.674c0.319,0,0.565-0.164,0.565-0.674v-0.355c0-0.574-0.246-0.729-0.565-0.729
					c-0.319,0-0.565,0.155-0.565,0.729V234.295z M161.949,237.912c0.319,0,0.556-0.155,0.565-0.72V236.6
					c0-0.501-0.209-0.72-0.565-0.72c-0.355,0-0.565,0.219-0.565,0.72v0.592C161.384,237.757,161.63,237.912,161.949,237.912z"/>
				<path style="fill:#263238;" d="M164.74,233.175c0.774,0,0.947-0.374,1.102-0.801h0.674v6.376h-1.002v-4.864h-0.774V233.175z"/>
				<path style="fill:#263238;" d="M170.672,237.165c0,1.075-0.492,1.658-1.53,1.658c-0.984,0-1.494-0.583-1.494-1.603v-0.164h0.948
					v0.228c0,0.456,0.2,0.629,0.519,0.629c0.355,0,0.556-0.173,0.556-0.784v-1.157h-0.018c-0.173,0.364-0.465,0.556-0.911,0.556
					c-0.738,0-1.111-0.52-1.111-1.458v-1.166c0-1.02,0.538-1.604,1.521-1.604c0.983,0,1.521,0.583,1.521,1.604V237.165z
					 M169.67,234.988v-1.148c0-0.456-0.2-0.619-0.519-0.619c-0.319,0-0.52,0.164-0.52,0.619v1.148c0,0.456,0.201,0.628,0.52,0.628
					C169.47,235.616,169.67,235.443,169.67,234.988z"/>
				<path style="fill:#263238;" d="M172.242,236.691v0.592c0,0.456,0.201,0.62,0.52,0.62c0.319,0,0.519-0.164,0.519-0.62v-1.403
					c0-0.456-0.2-0.628-0.519-0.628c-0.319,0-0.52,0.173-0.52,0.628v0.191h-0.947l0.182-3.698h2.642v0.911h-1.749l-0.082,1.521
					h0.019c0.182-0.301,0.464-0.465,0.865-0.465c0.738,0,1.111,0.52,1.111,1.457v1.421c0,1.02-0.51,1.603-1.494,1.603
					c-0.984,0-1.494-0.583-1.494-1.603v-0.528H172.242z"/>
				<path style="fill:#263238;" d="M174.887,233.958c0-1.075,0.492-1.658,1.53-1.658c0.984,0,1.494,0.583,1.494,1.604v0.164h-0.948
					v-0.228c0-0.456-0.2-0.628-0.519-0.628c-0.355,0-0.556,0.173-0.556,0.783v1.157h0.018c0.173-0.364,0.465-0.556,0.911-0.556
					c0.738,0,1.111,0.519,1.111,1.457v1.166c0,1.02-0.538,1.603-1.521,1.603s-1.521-0.583-1.521-1.603V233.958z M175.889,236.136
					v1.148c0,0.456,0.2,0.62,0.519,0.62c0.319,0,0.52-0.164,0.52-0.62v-1.148c0-0.455-0.201-0.629-0.52-0.629
					C176.089,235.507,175.889,235.68,175.889,236.136z"/>
				<path style="fill:#263238;" d="M181.502,232.374v0.874l-1.475,5.502h-1.002l1.466-5.466h-1.995v-0.911H181.502z"/>
			</g>
			<g>
				<path style="fill:#263238;" d="M162.568,228.072h1.173v0.345h-0.396v2.069h-0.38v-2.069h-0.396V228.072z"/>
				<path style="fill:#263238;" d="M163.876,228.652c0-0.386,0.204-0.607,0.576-0.607c0.372,0,0.576,0.221,0.576,0.607v1.255
					c0,0.386-0.204,0.607-0.576,0.607c-0.372,0-0.576-0.221-0.576-0.607V228.652z M164.256,229.931c0,0.172,0.075,0.238,0.196,0.238
					c0.121,0,0.196-0.065,0.196-0.238v-1.304c0-0.172-0.075-0.238-0.196-0.238c-0.121,0-0.196,0.065-0.196,0.238V229.931z"/>
			</g>
			<g>
				<path style="fill:#263238;" d="M155.807,261.288c1.432,0,2.168,0.856,2.168,2.355v0.294h-1.392v-0.388
					c0-0.669-0.268-0.923-0.736-0.923c-0.469,0-0.736,0.254-0.736,0.923c0,0.683,0.294,1.191,1.258,2.034
					c1.231,1.084,1.62,1.86,1.62,2.931c0,1.499-0.749,2.355-2.195,2.355c-1.445,0-2.195-0.856-2.195-2.355v-0.575h1.392v0.669
					c0,0.669,0.295,0.91,0.763,0.91c0.468,0,0.763-0.241,0.763-0.91c0-0.683-0.294-1.191-1.258-2.034
					c-1.231-1.084-1.619-1.86-1.619-2.931C153.639,262.145,154.375,261.288,155.807,261.288z"/>
				<path style="fill:#263238;" d="M160.301,265.343h2.02v1.339h-2.02v2.743h2.542v1.338h-4.015v-9.367h4.015v1.338h-2.542V265.343z
					"/>
				<path style="fill:#263238;" d="M165.09,263.978h-0.027v6.784h-1.325v-9.367h1.847l1.485,5.607h0.027v-5.607h1.311v9.367h-1.512
					L165.09,263.978z"/>
				<path style="fill:#263238;" d="M169.463,261.396h2.329c1.472,0,2.195,0.816,2.195,2.314v4.737c0,1.499-0.723,2.315-2.195,2.315
					h-2.329V261.396z M170.935,262.733v6.691h0.83c0.468,0,0.75-0.241,0.75-0.91v-4.871c0-0.669-0.281-0.91-0.75-0.91H170.935z"/>
			</g>
		</g>
		<path style="fill:none;stroke:#263238;stroke-linecap:round;stroke-linejoin:round;stroke-miterlimit:10;" d="M97.949,242.568
			c0,0,6.448,1.993,8.705,7.597"/>
		<g>
			<path style="fill:#FFFFFF;" d="M68.729,420.202c0.72-12.459,1.193-25.186,1.815-35.433c1.29-21.246,2.257-35.499,4.191-50.008
				c1.935-14.509,1.612-36.424,2.579-44.08c0.967-7.656,3.85-9.274,6.126-18.367c2.276-9.093,4.322-27.2,8.06-29.746
				c3.738-2.546,15.154-7.326,15.154-7.326v51.291c6.771,10.409,14.831,12.985,14.831,12.985
				c5.159-14.931,4.514-20.857,9.673-26.339c5.159-5.481,8.875-12.646,16.975-9.652c3.857,1.425,5.917,2.882,3.982,15.957
				s-5.803,17.184-5.803,17.184c-0.645,4.466,0.322,17.458,1.934,24.104c1.612,6.646-4.514,24.306-7.416,35.59
				c-2.902,11.285-18.378,34.152-18.378,34.152s-0.645,12.598,0.645,25.817c0.118,1.214,0.267,2.513,0.439,3.869l1.023,35.115
				l-55.83-1.053V420.202z"/>
			<g>
				<path style="opacity:0.4;fill:#92E3A9;" d="M150.968,267.376c-0.31-1.117-0.261-1.85,0-2.323
					c-0.758-0.701-1.72-1.117-2.836-1.524c-8.101-2.999-11.817,4.173-16.977,9.65c-0.481,0.513-0.913,1.027-1.296,1.557
					c4.67-1.76,10.791-1.728,13.252,1.687C146.208,280.701,152.516,272.967,150.968,267.376z"/>
				<path style="opacity:0.4;fill:#92E3A9;" d="M115.98,407.621l-2.551,9.56c0,0,3.594-3.521,8.965-12.062
					c-0.261-8.337,0.057-14.605,0.057-14.605s15.477-22.869,18.378-34.149c2.901-11.288,9.03-28.949,7.417-35.591
					c-1.614-6.651-2.575-19.642-1.932-24.108c0,0,0.807-0.864,1.874-3.056c-0.701-0.677-1.516-1.231-2.429-1.434
					c0,0-4.14,9.804-3.138,22.706c1.002,12.893-1.206,13.969-5.477,30.734c-4.271,16.765-11.361,35.746-14.695,39.153
					C119.117,388.175,117.675,403.514,115.98,407.621z"/>
				<path style="opacity:0.4;fill:#92E3A9;" d="M109.875,294.67c0,0-5.086,0.791-7.131,1.997c0,0,9.927,2.592,10.571,5.355
					c0.644,2.755,2.771,5.632,6.544,2.258c0,0,0.196-2.111,0.587-5.175c-2.396-1.068-8.484-4.417-13.79-12.567v-51.296
					c0,0-5.64,2.363-10.293,4.645c3.447,0.456,6.976,1.516,8.354,3.847c0,0-1.043,4.295-5.803,6.43c-3.667,1.646,0,29.324,0,29.324
					s-6.015,1.483-7.946,7.05c0,0,9.886,1.011,13.969,4.148C109.02,293.815,109.875,294.67,109.875,294.67z"/>
				<path style="opacity:0.4;fill:#92E3A9;" d="M70.543,384.769c-0.505,8.297-0.905,18.223-1.418,28.321
					c1.271-19.193,5.126-52.135,5.126-52.135s3.447,12.184,3.708,10.888c0.766-3.814-1.614-25.371-1.402-33.048
					c0.098-3.48-0.155-12.404-0.465-21.108c-0.277,5.982-0.676,11.98-1.361,17.074C72.801,349.267,71.831,363.522,70.543,384.769z"
					/>
			</g>
			<g>
				<path style="fill:none;stroke:#263238;stroke-linecap:round;stroke-linejoin:round;stroke-miterlimit:10;" d="M68.729,456.637
					v-36.435c0.72-12.459,1.193-25.186,1.815-35.433c1.29-21.246,2.257-35.499,4.191-50.008c1.935-14.509,1.612-36.424,2.579-44.08
					c0.967-7.656,3.85-9.274,6.126-18.367c2.276-9.093,4.322-27.2,8.06-29.746c3.738-2.546,15.154-7.326,15.154-7.326v51.291
					c6.771,10.409,14.831,12.985,14.831,12.985c5.159-14.931,4.514-20.857,9.673-26.339c5.159-5.481,8.875-12.646,16.975-9.652
					c3.857,1.425,5.917,2.882,3.982,15.957s-5.803,17.184-5.803,17.184c-0.645,4.466,0.322,17.458,1.934,24.104
					c1.612,6.646-4.514,24.306-7.416,35.59c-2.902,11.285-18.378,34.152-18.378,34.152s-0.645,12.598,0.645,25.817
					c0.118,1.214,0.267,2.513,0.439,3.869c0,0,0.52,22.672,2.991,36.435"/>
				<path style="fill:none;stroke:#263238;stroke-linecap:round;stroke-linejoin:round;stroke-miterlimit:10;" d="M121.485,299.518
					c0,0-1.612,7.193-4.836,8.805s-7.863,0-7.863,0"/>
				<path style="fill:none;stroke:#263238;stroke-linecap:round;stroke-linejoin:round;stroke-miterlimit:10;" d="M106.654,286.533
					c0,0-3.224-7.166-13.541-0.951"/>
				<path style="fill:none;stroke:#263238;stroke-linecap:round;stroke-linejoin:round;stroke-miterlimit:10;" d="M106.654,257.577
					c0,0-0.645-3.801-5.965-4.768"/>
				<path style="fill:none;stroke:#263238;stroke-linecap:round;stroke-linejoin:round;stroke-miterlimit:10;" d="M122.453,390.515
					c-6.126,7.762-4.961,15.178-7.317,19.047c-2.356,3.869-2.033,17.733-2.033,17.733"/>
				<path style="fill:none;stroke:#263238;stroke-linecap:round;stroke-linejoin:round;stroke-miterlimit:10;" d="M77.959,316.013
					c0,0,0,15.227,0,26.983c0,11.756,2.257,23.041,2.257,23.041"/>
				<path style="fill:none;stroke:#263238;stroke-linecap:round;stroke-linejoin:round;stroke-miterlimit:10;" d="M146.312,296.668
					c0,0,0-4.606-1.29-5.987"/>
				<path style="fill:none;stroke:#263238;stroke-linecap:round;stroke-linejoin:round;stroke-miterlimit:10;" d="M142.765,282.184
					c0,0-2.856-9.615-11.239-5.423"/>
				<path style="fill:none;stroke:#263238;stroke-linecap:round;stroke-linejoin:round;stroke-miterlimit:10;" d="M116.932,297.144
					c-6.225,0.133-12.535-2.627-16.243,0.73"/>
			</g>
		</g>
		<g>
			<path style="fill:#263238;" d="M67.824,446.088h-1.681v-38.242h1.681c1.092,0,1.978,0.885,1.978,1.978v34.286
				C69.802,445.202,68.917,446.088,67.824,446.088z"/>
			<path style="fill:#263238;" d="M66.144,412.801c0,0,29.559-7.727,57.929,1.08c0.901,0.28,1.51,1.126,1.51,2.069v18.144
				c0,0.678-0.609,1.192-1.277,1.072c-6.089-1.097-32.871-5.328-56.699,0.241L66.144,412.801z"/>
			<path style="fill:#92E3A9;stroke:#263238;stroke-linecap:round;stroke-linejoin:round;stroke-miterlimit:10;" d="M67.429,412.461
				v-4.088c0-1.347-1.092-2.439-2.44-2.439h-3.314c-0.836,0-1.606,0.456-2.008,1.19l-2.92,5.337v31.253l2.885,3.515
				c0.435,0.53,1.084,0.837,1.769,0.837h3.588c1.347,0,2.44-1.092,2.44-2.439V412.461z"/>
			<path style="fill:#92E3A9;stroke:#263238;stroke-linecap:round;stroke-linejoin:round;stroke-miterlimit:10;" d="M65.332,410.446
				l6.748-1.255c0.8-0.149,1.539,0.465,1.539,1.28v3.895l-2.234,1.656v12.659h2.234v6.603c0,0.762-0.535,1.419-1.281,1.574
				l-6.408,1.327c-0.961,0.199-1.863-0.535-1.863-1.517v-24.7C64.066,411.223,64.598,410.582,65.332,410.446z"/>
			<path style="fill:none;stroke:#263238;stroke-linecap:round;stroke-linejoin:round;stroke-miterlimit:10;" d="M65.582,436.461
				l5.497-1.257c0.41-0.094,0.701-0.458,0.701-0.879v-4.127"/>
			<polyline style="fill:none;stroke:#263238;stroke-linecap:round;stroke-linejoin:round;stroke-miterlimit:10;" points="
				69.538,428.483 69.538,414.934 71.747,413.253 71.747,410.714 			"/>
			
				<line style="fill:none;stroke:#263238;stroke-linecap:round;stroke-linejoin:round;stroke-miterlimit:10;" x1="60.604" y1="408.407" x2="60.604" y2="444.604"/>
			<path style="fill:#FFFFFF;" d="M87.308,422.536L87.308,422.536c-0.546,0-0.989-0.443-0.989-0.989v-2.162
				c0-0.546,0.443-0.989,0.989-0.989l0,0c0.546,0,0.989,0.443,0.989,0.989v2.162C88.297,422.093,87.854,422.536,87.308,422.536z"/>
			<path style="fill:#FFFFFF;" d="M102.538,422.938L102.538,422.938c-0.546,0-0.989-0.443-0.989-0.989v-2.162
				c0-0.546,0.443-0.989,0.989-0.989l0,0c0.546,0,0.989,0.443,0.989,0.989v2.162C103.527,422.496,103.085,422.938,102.538,422.938z"
				/>
			<path style="fill:#FFFFFF;" d="M116.088,424.606L116.088,424.606c-0.546,0-0.989-0.443-0.989-0.989v-2.163
				c0-0.546,0.443-0.989,0.989-0.989l0,0c0.546,0,0.989,0.443,0.989,0.989v2.163C117.077,424.164,116.634,424.606,116.088,424.606z"
				/>
		</g>
	</g>
</g>
</svg>
