<?xml version="1.0" encoding="utf-8"?>
<!-- Generator: Adobe Illustrator 27.5.0, SVG Export Plug-In . SVG Version: 6.00 Build 0)  -->
<svg version="1.1" xmlns="http://www.w3.org/2000/svg" xmlns:xlink="http://www.w3.org/1999/xlink" x="0px" y="0px"
	 viewBox="0 0 500 500" style="enable-background:new 0 0 500 500;" xml:space="preserve">
<g id="Background_Simple">
	<g>
		<path style="fill:#92E3A9;" d="M303.079,44.307c-11.492-8.27-26.633-9.675-39.426-3.791
			C201.224,69.228-4.842,170.541,38.569,238.271c51.02,79.601,231.973,205.175,298.37,199.186
			c66.397-5.988,141.624-117.333,124.721-190.625C447.457,185.25,351.968,79.49,303.079,44.307z"/>
		<path style="opacity:0.7;fill:#FFFFFF;" d="M303.079,44.307c-11.492-8.27-26.633-9.675-39.426-3.791
			C201.224,69.228-4.842,170.541,38.569,238.271c51.02,79.601,231.973,205.175,298.37,199.186
			c66.397-5.988,141.624-117.333,124.721-190.625C447.457,185.25,351.968,79.49,303.079,44.307z"/>
	</g>
</g>
<g id="Plants">
	<g>
		<path style="fill:#263238;" d="M360.942,251.942c1.53,3.655,8.09,9.646,8.095,9.651c0.068,0.062,2.636-5.523,2.758-5.893
			c1.408-4.293,1.602-13.417-2.492-16.392c-2.949-2.142-6.899-0.916-8.659,2.106C358.846,244.501,359.64,248.829,360.942,251.942z"
			/>
		<path style="fill:#263238;" d="M465.945,310.456c-3.263-3.867-12.348-3.013-16.529-1.298c-0.361,0.149-5.745,3.115-5.678,3.178
			c0,0,0.063,0.059,0.079,0.073c-1.436,0.123-2.972,0.273-4.649,0.47c-3.093,0.388-6.584,0.856-10.349,1.621
			c-3.765,0.754-7.834,1.68-12.032,3.041c-4.21,1.359-8.568,3.005-12.84,5.28c-0.048,0.025-0.095,0.059-0.144,0.084
			c1.043-1.053,3.861-4.097,4.05-4.355c2.675-3.641,5.706-12.249,2.744-16.352c-2.134-2.955-6.269-3.022-8.884-0.699
			c-2.67,2.373-3.265,6.732-2.998,10.096c0.3,3.794,4.301,11.012,4.621,11.586c-4.048,2.204-8.023,4.795-11.902,7.638
			c-2.22,1.624-4.404,3.328-6.573,5.065c0.872-0.941,1.646-1.787,1.74-1.918c2.676-3.642,5.705-12.248,2.743-16.351
			c-2.134-2.956-6.269-3.022-8.883-0.699c-2.671,2.372-3.266,6.731-2.999,10.096c0.271,3.413,3.558,9.636,4.45,11.271
			c-0.825,0.674-1.657,1.34-2.479,2.018c-3.947,3.252-7.871,6.514-11.818,9.597c-1.39,1.087-2.8,2.106-4.206,3.13
			c0.773-0.835,1.418-1.546,1.505-1.664c2.675-3.642,5.706-12.249,2.744-16.351c-2.135-2.956-6.27-3.023-8.885-0.699
			c-2.67,2.371-3.265,6.732-2.998,10.096c0.258,3.257,3.24,9.029,4.291,10.976c-1.472,1.006-2.944,2.016-4.417,2.925
			c-1.019,0.598-1.958,1.243-3.015,1.787c-1.034,0.56-2.059,1.114-3.074,1.663c-1.994,0.985-4.043,2.014-6.011,2.927
			c-1.365,0.645-2.677,1.234-3.996,1.832c1.396-1.066,4.087-3.21,4.292-3.414c2.123-2.122,4.723-6.386,5.559-10.332
			c0.315-0.311,0.602-0.648,0.855-1.014c1.984-2.88,1.41-6.976-1.785-8.731c-4.435-2.436-12.606,1.627-15.89,4.729
			c-0.194,0.183-2.075,2.404-3.238,3.824c0.556-0.94,1.108-1.844,1.669-2.818c1.123-1.918,2.187-3.865,3.342-5.955
			c0.521-1.029,1.047-2.068,1.579-3.119c0.549-1.029,0.999-2.187,1.508-3.289c1.127-2.579,2.145-5.249,3.109-7.96
			c1.682,0.98,7.704,4.372,11.074,4.737c3.355,0.365,7.731-0.104,10.179-2.704c2.398-2.547,2.452-6.681-0.44-8.901
			c-4.014-3.08-12.707-0.302-16.424,2.267c-0.232,0.16-2.691,2.304-4.02,3.506c0.567-1.634,1.142-3.263,1.662-4.935
			c1.503-4.827,2.874-9.759,4.263-14.675c0.425-1.506,0.866-3.001,1.302-4.499c0.595,0.355,7.666,4.542,11.441,4.952
			c3.354,0.364,7.73-0.104,10.179-2.704c2.398-2.545,2.452-6.681-0.441-8.9c-4.015-3.081-12.707-0.302-16.424,2.266
			c-0.28,0.194-3.815,3.282-4.675,4.112c0.961-3.299,1.95-6.579,3.056-9.772c1.52-4.408,3.255-8.649,5.24-12.633
			c0.278,0.166,7.637,4.568,11.503,4.989c3.355,0.364,7.73-0.104,10.179-2.704c2.398-2.546,2.452-6.681-0.441-8.9
			c-4.014-3.08-12.706-0.302-16.424,2.267c-0.292,0.201-4.093,3.527-4.739,4.179c0.118-0.236,0.214-0.495,0.335-0.729
			c2.174-4.227,4.81-8.049,7.453-11.506c1.532-2.012,3.109-3.849,4.683-5.602c1.287,0.961,7.216,5.286,10.653,6.048
			c3.296,0.73,7.695,0.745,10.415-1.569c2.663-2.268,3.171-6.372,0.54-8.895c-3.652-3.503-12.597-1.695-16.573,0.449
			c-0.217,0.117-2.284,1.546-3.774,2.609c0.722-0.78,1.454-1.6,2.161-2.333c2.648-2.761,5.244-5.128,7.559-7.204
			c1.327-1.171,2.549-2.202,3.703-3.155c1.755,0.283,8.839,1.339,12.18,0.448c3.261-0.87,7.172-2.884,8.519-6.192
			c1.319-3.24-0.123-7.116-3.619-8.143c-4.855-1.426-11.961,4.3-14.503,8.036c-0.218,0.323-3.073,5.768-2.982,5.784
			c0,0,0.086,0.014,0.106,0.017c-1.129,0.894-2.329,1.868-3.618,2.957c-2.366,2.03-5.02,4.346-7.738,7.061
			c-2.724,2.706-5.607,5.723-8.358,9.175c-2.76,3.456-5.49,7.232-7.797,11.487c-0.026,0.048-0.047,0.102-0.072,0.15
			c0.288-1.454,0.958-5.547,0.974-5.867c0.223-4.513-1.999-13.363-6.732-15.151c-3.41-1.287-6.897,0.938-7.796,4.318
			c-0.918,3.452,0.991,7.416,3.069,10.074c2.344,2.999,9.662,6.813,10.246,7.114c-2.16,4.072-4.047,8.427-5.713,12.938
			c-0.956,2.578-1.838,5.205-2.689,7.85c0.208-1.265,0.386-2.398,0.394-2.559c0.223-4.514-1.999-13.365-6.733-15.151
			c-3.41-1.289-6.896,0.937-7.795,4.317c-0.919,3.451,0.99,7.417,3.068,10.075c2.109,2.698,8.283,6.074,9.929,6.946
			c-0.316,1.018-0.643,2.031-0.954,3.05c-1.498,4.89-2.971,9.776-4.564,14.524c-0.56,1.674-1.173,3.301-1.781,4.932
			c0.185-1.124,0.33-2.072,0.338-2.22c0.223-4.512-1.999-13.364-6.733-15.151c-3.41-1.288-6.896,0.938-7.795,4.317
			c-0.918,3.452,0.99,7.417,3.069,10.076c2.012,2.575,7.683,5.743,9.634,6.788c-0.673,1.651-1.344,3.306-2.07,4.876
			c-0.52,1.061-0.947,2.118-1.529,3.154c-0.554,1.039-1.104,2.065-1.647,3.083c-1.118,1.921-2.26,3.911-3.398,5.757
			c-0.782,1.29-1.551,2.506-2.322,3.733c0.577-1.659,1.638-4.932,1.696-5.216c0.905-4.426,0.049-13.511-4.36-15.996
			c-3.176-1.789-6.958-0.117-8.359,3.088c-1.431,3.272-0.145,7.48,1.506,10.423c1.819,3.24,8.193,7.957,8.993,8.541
			c-1.283,2.025-2.55,3.983-3.775,5.811c-0.62,0.929-1.225,1.822-1.818,2.691l2.174,2.283c0.701-1.07,1.418-2.176,2.156-3.336
			c1.311-2.051,2.671-4.268,4.046-6.56c0.59,0.239,3.953,1.575,7.251,2.428c-0.065,3.817,2.466,10.774,2.798,11.669
			c-2.187,0.982-4.324,1.915-6.355,2.764c-0.569,0.239-1.533,0.488-2.563,0.735l2.315,2.431c0.614-0.141,1.142-0.281,1.44-0.414
			c2.225-0.988,4.584-2.087,6.994-3.239c0.551,0.802,5.089,7.325,8.279,9.24c2.893,1.736,7.063,3.144,10.377,1.809
			c3.243-1.306,5.024-5.04,3.327-8.267c-2.354-4.478-11.411-5.597-15.862-4.821c-0.263,0.045-3.056,0.86-4.81,1.403
			c0.982-0.475,1.941-0.927,2.947-1.43c1.995-0.979,3.957-2.016,6.071-3.124c1.003-0.57,2.015-1.147,3.038-1.729
			c1.026-0.556,2.04-1.274,3.072-1.912c2.365-1.53,4.685-3.195,6.985-4.924c0.863,1.744,4.013,7.896,6.623,10.06
			c2.598,2.154,6.505,4.178,9.982,3.36c3.405-0.8,5.73-4.22,4.542-7.667c-1.65-4.783-10.432-7.261-14.95-7.169
			c-0.281,0.005-3.515,0.436-5.287,0.707c1.375-1.05,2.752-2.092,4.108-3.2c3.916-3.197,7.78-6.555,11.651-9.888
			c1.185-1.022,2.378-2.025,3.568-3.034c0.3,0.625,3.887,8.017,6.81,10.441c2.596,2.155,6.505,4.178,9.982,3.36
			c3.404-0.8,5.73-4.22,4.542-7.666c-1.65-4.784-10.432-7.262-14.949-7.17c-0.34,0.007-4.993,0.633-6.168,0.85
			c2.623-2.222,5.256-4.412,7.941-6.465c3.699-2.839,7.487-5.418,11.34-7.647c0.138,0.291,3.848,8.024,6.841,10.507
			c2.598,2.154,6.506,4.178,9.983,3.36c3.404-0.8,5.73-4.22,4.542-7.667c-1.65-4.784-10.432-7.261-14.949-7.17
			c-0.354,0.008-5.36,0.684-6.259,0.871c0.23-0.132,0.453-0.294,0.684-0.423c4.144-2.327,8.451-4.061,12.562-5.486
			c2.388-0.833,4.717-1.496,6.996-2.09c0.543,1.511,3.102,8.389,5.548,10.922c2.345,2.427,6.007,4.867,9.553,4.436
			c3.472-0.422,6.159-3.565,5.357-7.121c-1.114-4.936-9.571-8.363-14.072-8.768c-0.244-0.022-2.757,0.03-4.586,0.094
			c1.033-0.253,2.094-0.533,3.089-0.754c3.733-0.843,7.202-1.384,10.28-1.839c1.751-0.244,3.34-0.431,4.829-0.589
			c1.306,1.204,6.633,5.993,9.911,7.094c3.199,1.072,7.574,1.551,10.522-0.465C467.359,317.27,468.296,313.242,465.945,310.456z"/>
		<path style="fill:#263238;" d="M424.544,315.414c0.022,0.089,5.246-3.152,5.552-3.394c3.542-2.806,8.737-10.308,6.963-15.047
			c-1.278-3.414-5.248-4.57-8.384-3.019c-3.202,1.582-4.927,5.63-5.558,8.945C422.376,306.791,424.544,315.407,424.544,315.414z"/>
	</g>
	<g>
		<path style="fill:#263238;" d="M133.913,251.942c-1.53,3.655-8.09,9.646-8.095,9.651c-0.068,0.062-2.636-5.523-2.757-5.893
			c-1.408-4.293-1.602-13.417,2.492-16.392c2.949-2.142,6.899-0.916,8.659,2.106C136.009,244.501,135.215,248.829,133.913,251.942z"
			/>
		<path style="fill:#263238;" d="M28.91,310.456c3.262-3.867,12.348-3.013,16.529-1.298c0.361,0.149,5.745,3.115,5.678,3.178
			c0,0-0.063,0.059-0.079,0.073c1.436,0.123,2.972,0.273,4.649,0.47c3.093,0.388,6.584,0.856,10.349,1.621
			c3.765,0.754,7.834,1.68,12.032,3.041c4.21,1.359,8.568,3.005,12.84,5.28c0.048,0.025,0.095,0.059,0.144,0.084
			c-1.043-1.053-3.861-4.097-4.05-4.355c-2.675-3.641-5.706-12.249-2.743-16.352c2.134-2.955,6.269-3.022,8.884-0.699
			c2.67,2.373,3.265,6.732,2.998,10.096c-0.3,3.794-4.301,11.012-4.621,11.586c4.048,2.204,8.023,4.795,11.902,7.638
			c2.22,1.624,4.404,3.328,6.573,5.065c-0.873-0.941-1.646-1.787-1.741-1.918c-2.676-3.642-5.705-12.248-2.743-16.351
			c2.134-2.956,6.269-3.022,8.883-0.699c2.671,2.372,3.266,6.731,2.999,10.096c-0.271,3.413-3.558,9.636-4.45,11.271
			c0.825,0.674,1.657,1.34,2.479,2.018c3.947,3.252,7.871,6.514,11.818,9.597c1.39,1.087,2.8,2.106,4.206,3.13
			c-0.773-0.835-1.418-1.546-1.505-1.664c-2.675-3.642-5.706-12.249-2.744-16.351c2.135-2.956,6.27-3.023,8.885-0.699
			c2.67,2.371,3.265,6.732,2.998,10.096c-0.258,3.257-3.24,9.029-4.291,10.976c1.472,1.006,2.944,2.016,4.417,2.925
			c1.019,0.598,1.958,1.243,3.015,1.787c1.034,0.56,2.059,1.114,3.074,1.663c1.993,0.985,4.043,2.014,6.011,2.927
			c1.365,0.645,2.677,1.234,3.996,1.832c-1.396-1.066-4.087-3.21-4.292-3.414c-2.123-2.122-4.723-6.386-5.559-10.332
			c-0.315-0.311-0.602-0.648-0.855-1.014c-1.984-2.88-1.41-6.976,1.785-8.731c4.435-2.436,12.606,1.627,15.89,4.729
			c0.194,0.183,2.074,2.404,3.238,3.824c-0.556-0.94-1.108-1.844-1.669-2.818c-1.123-1.918-2.187-3.865-3.342-5.955
			c-0.521-1.029-1.047-2.068-1.579-3.119c-0.549-1.029-0.999-2.187-1.508-3.289c-1.127-2.579-2.145-5.249-3.109-7.96
			c-1.683,0.98-7.704,4.372-11.074,4.737c-3.355,0.365-7.731-0.104-10.179-2.704c-2.398-2.547-2.452-6.681,0.44-8.901
			c4.014-3.08,12.707-0.302,16.424,2.267c0.232,0.16,2.691,2.304,4.02,3.506c-0.567-1.634-1.142-3.263-1.662-4.935
			c-1.503-4.827-2.874-9.759-4.263-14.675c-0.425-1.506-0.866-3.001-1.301-4.499c-0.595,0.355-7.666,4.542-11.441,4.952
			c-3.354,0.364-7.73-0.104-10.179-2.704c-2.398-2.545-2.451-6.681,0.441-8.9c4.014-3.081,12.706-0.302,16.424,2.266
			c0.28,0.194,3.815,3.282,4.675,4.112c-0.961-3.299-1.95-6.579-3.056-9.772c-1.52-4.408-3.255-8.649-5.24-12.633
			c-0.277,0.166-7.637,4.568-11.503,4.989c-3.355,0.364-7.73-0.104-10.179-2.704c-2.398-2.546-2.452-6.681,0.441-8.9
			c4.014-3.08,12.706-0.302,16.424,2.267c0.292,0.201,4.093,3.527,4.739,4.179c-0.118-0.236-0.214-0.495-0.335-0.729
			c-2.174-4.227-4.81-8.049-7.453-11.506c-1.532-2.012-3.109-3.849-4.683-5.602c-1.287,0.961-7.216,5.286-10.653,6.048
			c-3.296,0.73-7.695,0.745-10.415-1.569c-2.663-2.268-3.171-6.372-0.54-8.895c3.652-3.503,12.597-1.695,16.573,0.449
			c0.217,0.117,2.284,1.546,3.774,2.609c-0.723-0.78-1.454-1.6-2.161-2.333c-2.648-2.761-5.244-5.128-7.559-7.204
			c-1.327-1.171-2.549-2.202-3.703-3.155c-1.755,0.283-8.839,1.339-12.18,0.448c-3.261-0.87-7.173-2.884-8.519-6.192
			c-1.319-3.24,0.123-7.116,3.619-8.143c4.855-1.426,11.961,4.3,14.503,8.036c0.218,0.323,3.072,5.768,2.981,5.784
			c0,0-0.086,0.014-0.105,0.017c1.129,0.894,2.329,1.868,3.618,2.957c2.366,2.03,5.02,4.346,7.738,7.061
			c2.724,2.706,5.607,5.723,8.357,9.175c2.761,3.456,5.49,7.232,7.797,11.487c0.026,0.048,0.047,0.102,0.072,0.15
			c-0.288-1.454-0.958-5.547-0.974-5.867c-0.223-4.513,1.999-13.363,6.732-15.151c3.411-1.287,6.897,0.938,7.796,4.318
			c0.918,3.452-0.991,7.416-3.069,10.074c-2.344,2.999-9.662,6.813-10.246,7.114c2.16,4.072,4.047,8.427,5.713,12.938
			c0.956,2.578,1.838,5.205,2.689,7.85c-0.209-1.265-0.386-2.398-0.394-2.559c-0.223-4.514,1.999-13.365,6.733-15.151
			c3.41-1.289,6.896,0.937,7.795,4.317c0.919,3.451-0.99,7.417-3.068,10.075c-2.109,2.698-8.283,6.074-9.929,6.946
			c0.316,1.018,0.643,2.031,0.954,3.05c1.498,4.89,2.972,9.776,4.564,14.524c0.56,1.674,1.173,3.301,1.781,4.932
			c-0.185-1.124-0.33-2.072-0.338-2.22c-0.223-4.512,1.999-13.364,6.732-15.151c3.41-1.288,6.896,0.938,7.795,4.317
			c0.918,3.452-0.99,7.417-3.069,10.076c-2.012,2.575-7.683,5.743-9.634,6.788c0.673,1.651,1.344,3.306,2.07,4.876
			c0.52,1.061,0.947,2.118,1.529,3.154c0.554,1.039,1.104,2.065,1.647,3.083c1.118,1.921,2.26,3.911,3.398,5.757
			c0.782,1.29,1.551,2.506,2.322,3.733c-0.577-1.659-1.638-4.932-1.696-5.216c-0.905-4.426-0.049-13.511,4.36-15.996
			c3.176-1.789,6.958-0.117,8.359,3.088c1.431,3.272,0.145,7.48-1.506,10.423c-1.819,3.24-8.193,7.957-8.993,8.541
			c1.283,2.025,2.55,3.983,3.775,5.811c0.62,0.929,1.225,1.822,1.819,2.691l-2.174,2.283c-0.701-1.07-1.418-2.176-2.156-3.336
			c-1.311-2.051-2.671-4.268-4.046-6.56c-0.59,0.239-3.953,1.575-7.251,2.428c0.065,3.817-2.466,10.774-2.798,11.669
			c2.187,0.982,4.324,1.915,6.355,2.764c0.569,0.239,1.533,0.488,2.563,0.735l-2.315,2.431c-0.614-0.141-1.142-0.281-1.44-0.414
			c-2.225-0.988-4.584-2.087-6.994-3.239c-0.551,0.802-5.089,7.325-8.279,9.24c-2.894,1.736-7.063,3.144-10.377,1.809
			c-3.243-1.306-5.024-5.04-3.327-8.267c2.354-4.478,11.411-5.597,15.862-4.821c0.263,0.045,3.056,0.86,4.81,1.403
			c-0.982-0.475-1.941-0.927-2.947-1.43c-1.995-0.979-3.957-2.016-6.071-3.124c-1.003-0.57-2.015-1.147-3.038-1.729
			c-1.026-0.556-2.04-1.274-3.072-1.912c-2.365-1.53-4.685-3.195-6.985-4.924c-0.863,1.744-4.013,7.896-6.623,10.06
			c-2.598,2.154-6.505,4.178-9.982,3.36c-3.405-0.8-5.731-4.22-4.543-7.667c1.65-4.783,10.432-7.261,14.95-7.169
			c0.281,0.005,3.515,0.436,5.287,0.707c-1.375-1.05-2.752-2.092-4.108-3.2c-3.916-3.197-7.78-6.555-11.651-9.888
			c-1.185-1.022-2.378-2.025-3.568-3.034c-0.301,0.625-3.887,8.017-6.81,10.441c-2.597,2.155-6.505,4.178-9.982,3.36
			c-3.404-0.8-5.73-4.22-4.542-7.666c1.649-4.784,10.432-7.262,14.949-7.17c0.34,0.007,4.993,0.633,6.168,0.85
			c-2.623-2.222-5.256-4.412-7.941-6.465c-3.699-2.839-7.486-5.418-11.34-7.647c-0.139,0.291-3.848,8.024-6.841,10.507
			c-2.598,2.154-6.506,4.178-9.983,3.36c-3.404-0.8-5.73-4.22-4.542-7.667c1.65-4.784,10.432-7.261,14.95-7.17
			c0.354,0.008,5.36,0.684,6.259,0.871c-0.23-0.132-0.453-0.294-0.684-0.423c-4.144-2.327-8.451-4.061-12.563-5.486
			c-2.388-0.833-4.717-1.496-6.996-2.09c-0.543,1.511-3.102,8.389-5.549,10.922c-2.345,2.427-6.007,4.867-9.553,4.436
			c-3.472-0.422-6.159-3.565-5.357-7.121c1.114-4.936,9.571-8.363,14.071-8.768c0.244-0.022,2.757,0.03,4.586,0.094
			c-1.033-0.253-2.094-0.533-3.089-0.754c-3.733-0.843-7.202-1.384-10.279-1.839c-1.751-0.244-3.34-0.431-4.829-0.589
			c-1.305,1.204-6.633,5.993-9.911,7.094c-3.199,1.072-7.573,1.551-10.522-0.465C27.496,317.27,26.559,313.242,28.91,310.456z"/>
		<path style="fill:#263238;" d="M70.311,315.414c-0.023,0.089-5.246-3.152-5.552-3.394c-3.542-2.806-8.737-10.308-6.963-15.047
			c1.278-3.414,5.248-4.57,8.384-3.019c3.201,1.582,4.927,5.63,5.558,8.945C72.479,306.791,70.312,315.407,70.311,315.414z"/>
	</g>
</g>
<g id="Shadow">
	<ellipse style="fill:#263238;" cx="249.558" cy="450.458" rx="77.358" ry="9.355"/>
</g>
<g id="Icon_4">
	<g>
		
			<rect x="392.924" y="399.719" style="fill:none;stroke:#263238;stroke-linecap:round;stroke-linejoin:round;stroke-miterlimit:10;" width="50.94" height="17.979"/>
		
			<rect x="394.525" y="417.667" style="fill:none;stroke:#263238;stroke-linecap:round;stroke-linejoin:round;stroke-miterlimit:10;" width="47.739" height="28.955"/>
		
			<rect x="412.923" y="399.813" style="fill:none;stroke:#263238;stroke-linecap:round;stroke-linejoin:round;stroke-miterlimit:10;" width="10.942" height="47.063"/>
		<path style="fill:none;stroke:#263238;stroke-linecap:round;stroke-linejoin:round;stroke-miterlimit:10;" d="M418.023,399.713
			c0,0-5.471-11.508-11.885-10.187C399.724,390.847,402.931,400.279,418.023,399.713z"/>
		<path style="fill:none;stroke:#263238;stroke-linecap:round;stroke-linejoin:round;stroke-miterlimit:10;" d="M418.479,399.713
			c0,0,5.471-11.508,11.885-10.187C436.778,390.847,433.571,400.279,418.479,399.713z"/>
		<path style="fill:none;stroke:#263238;stroke-linecap:round;stroke-linejoin:round;stroke-miterlimit:10;" d="M432.737,375.377
			c0.377,2.641-0.943,5.471-4.905,7.169c-3.962,1.698-6.037-3.018-10.187,1.321c-4.15,4.339,0.834,15.846,0.834,15.846
			s13.692-1.887,14.258,3.396c0.566,5.282-3.773,7.735-2.452,10.942c1.32,3.207,5.471,0.943,5.848-2.641"/>
	</g>
</g>
<g id="Icon_3">
	<g>
		
			<circle style="fill:none;stroke:#263238;stroke-linecap:round;stroke-linejoin:round;stroke-miterlimit:10;" cx="427.821" cy="65.42" r="26.023"/>
		<g>
			<path style="fill:#263238;" d="M427.969,86.496v-3.539c-2.895-0.113-5.051-1.053-6.469-2.823
				c-1.419-1.77-2.198-4.284-2.339-7.543l5.394-1.053c0.057,1.321,0.211,2.486,0.464,3.498c0.253,1.011,0.653,1.79,1.201,2.338
				c0.548,0.548,1.271,0.822,2.17,0.822c1.012,0,1.734-0.301,2.17-0.906c0.435-0.604,0.653-1.37,0.653-2.297
				c0-1.488-0.345-2.71-1.032-3.666c-0.689-0.955-1.58-1.91-2.676-2.865l-4.341-3.792c-0.786-0.702-1.475-1.439-2.065-2.212
				c-0.59-0.772-1.054-1.643-1.391-2.612c-0.337-0.969-0.506-2.1-0.506-3.392c0-2.556,0.73-4.558,2.191-6.005
				c1.461-1.446,3.427-2.24,5.899-2.381v-3.413h1.813v3.371c1.433,0.084,2.612,0.4,3.539,0.948c0.927,0.548,1.665,1.25,2.212,2.107
				c0.548,0.857,0.955,1.819,1.223,2.886c0.267,1.068,0.428,2.177,0.484,3.329l-5.31,0.927c-0.057-1.067-0.168-2.029-0.337-2.886
				c-0.169-0.856-0.484-1.531-0.948-2.023c-0.464-0.491-1.145-0.709-2.044-0.653c-0.955,0.028-1.679,0.337-2.17,0.927
				c-0.491,0.59-0.737,1.335-0.737,2.233c0,1.208,0.267,2.185,0.801,2.929c0.533,0.745,1.193,1.482,1.98,2.212l4.298,3.75
				c0.898,0.815,1.734,1.7,2.508,2.655c0.772,0.956,1.391,2.023,1.854,3.203c0.464,1.18,0.695,2.528,0.695,4.045
				s-0.302,2.873-0.906,4.066c-0.604,1.194-1.453,2.156-2.549,2.886c-1.096,0.731-2.402,1.18-3.919,1.349v3.581H427.969z"/>
		</g>
	</g>
</g>
<g id="Icon_2">
	<g>
		<g>
			
				<ellipse transform="matrix(0.9738 -0.2272 0.2272 0.9738 -10.3547 22.9791)" style="fill:none;stroke:#263238;stroke-linecap:round;stroke-linejoin:round;stroke-miterlimit:10;" cx="94.623" cy="56.461" rx="8.61" ry="8.61"/>
			<path style="fill:none;stroke:#263238;stroke-linecap:round;stroke-linejoin:round;stroke-miterlimit:10;" d="M106.927,81.232
				c-0.231-7.906-5.643-14.235-12.304-14.235c-6.66,0-12.073,6.329-12.304,14.235"/>
		</g>
		<g>
			
				<circle style="fill:none;stroke:#263238;stroke-linecap:round;stroke-linejoin:round;stroke-miterlimit:10;" cx="114.419" cy="55.007" r="7.156"/>
			<path style="fill:none;stroke:#263238;stroke-linecap:round;stroke-linejoin:round;stroke-miterlimit:10;" d="M124.644,75.595
				c-0.192-6.571-4.69-11.831-10.226-11.831c-3.619,0-6.794,2.248-8.613,5.641"/>
		</g>
		<g>
			
				<circle style="fill:none;stroke:#263238;stroke-linecap:round;stroke-linejoin:round;stroke-miterlimit:10;" cx="75.062" cy="55.007" r="7.156"/>
			<path style="fill:none;stroke:#263238;stroke-linecap:round;stroke-linejoin:round;stroke-miterlimit:10;" d="M64.836,75.595
				c0.192-6.571,4.69-11.831,10.226-11.831c3.619,0,6.794,2.248,8.613,5.641"/>
		</g>
	</g>
</g>
<g id="Icon_1">
	<g>
		
			<ellipse transform="matrix(0.9873 -0.1588 0.1588 0.9873 -64.3567 19.2329)" style="fill:none;stroke:#263238;stroke-linecap:round;stroke-linejoin:round;stroke-miterlimit:10;" cx="88.19" cy="412.391" rx="26.023" ry="26.023"/>
		<g>
			
				<line style="fill:none;stroke:#263238;stroke-width:4;stroke-linecap:round;stroke-linejoin:round;stroke-miterlimit:10;" x1="88.19" y1="397.753" x2="88.19" y2="427.029"/>
			
				<line style="fill:none;stroke:#263238;stroke-width:4;stroke-linecap:round;stroke-linejoin:round;stroke-miterlimit:10;" x1="102.828" y1="412.391" x2="73.552" y2="412.391"/>
		</g>
	</g>
</g>
<g id="Device_1_">
	<g>
		<g>
			<path style="fill:#FFFFFF;stroke:#263238;stroke-linecap:round;stroke-linejoin:round;stroke-miterlimit:10;" d="M331.598,90.304
				v303.452c0,8.329-6.752,15.081-15.081,15.081H185.399c-8.329,0-15.081-6.752-15.081-15.081V90.296
				c0-8.325,6.748-15.073,15.073-15.073h56.28l0.047,0.172c1.403,5.047,4.632,8.331,8.214,8.331h2.053
				c3.582,0,6.811-3.284,8.214-8.331l0.055-0.172h56.264C324.846,75.223,331.598,81.975,331.598,90.304z"/>
		</g>
		<g>
			<path style="fill:#92E3A9;stroke:#263238;stroke-linecap:round;stroke-linejoin:round;stroke-miterlimit:10;" d="
				M341.854,162.782v-30.309h-2.742V93.671c0-13.209-10.708-23.918-23.918-23.918H186.722c-13.209,0-23.918,10.708-23.918,23.918
				v308.332c0,13.21,10.708,23.918,23.918,23.918h128.473c13.209,0,23.918-10.708,23.918-23.918v-213.39h2.742v-17.91h-2.742v-7.921
				H341.854z M331.598,384.917c0,13.214-10.714,23.92-23.92,23.92h-113.44c-13.206,0-23.92-10.706-23.92-23.92V99.135
				c0-13.206,10.714-23.912,23.92-23.912h47.433l0.047,0.172c1.403,5.047,4.632,8.331,8.214,8.331h2.053
				c3.582,0,6.811-3.284,8.214-8.331l0.055-0.172h47.425c13.206,0,23.92,10.706,23.92,23.912V384.917z"/>
			<path style="fill:#263238;stroke:#263238;stroke-linecap:round;stroke-linejoin:round;stroke-miterlimit:10;" d="M313.276,73.048
				H188.641c-12.74,0-23.067,10.328-23.067,23.067v303.443c0,12.74,10.327,23.067,23.067,23.067h124.636
				c12.74,0,23.067-10.327,23.067-23.067V96.115C336.344,83.376,326.016,73.048,313.276,73.048z M331.598,385.768
				c0,12.741-10.328,23.069-23.069,23.069H193.387c-12.741,0-23.07-10.329-23.07-23.07V98.285c0-12.737,10.325-23.062,23.062-23.062
				h48.291l0.047,0.172c1.403,5.047,4.632,8.331,8.214,8.331h2.053c3.582,0,6.811-3.284,8.214-8.331l0.055-0.172h48.275
				c12.741,0,23.069,10.329,23.069,23.07V385.768z"/>
			<path style="fill:#FFFFFF;" d="M252.711,76.367c0-1.24-1.005-2.245-2.245-2.245s-2.245,1.005-2.245,2.245
				c0,1.24,1.005,2.245,2.245,2.245S252.711,77.607,252.711,76.367z"/>
			<g>
				<g>
					<path style="fill:#263238;" d="M184.653,84.971c0,2.272-2.551,3.09-2.562,4.823v0.118h2.476v0.765h-3.305v-0.646
						c0-2.433,2.551-2.907,2.551-5.028c0-0.775-0.259-1.184-0.883-1.184c-0.614,0-0.883,0.441-0.883,1.108v0.667h-0.786v-0.613
						c0-1.152,0.527-1.917,1.69-1.917C184.126,83.066,184.653,83.82,184.653,84.971z"/>
					<path style="fill:#263238;" d="M188.778,84.961v0.193c0,0.776-0.312,1.325-0.915,1.55c0.634,0.237,0.915,0.808,0.915,1.561
						v0.581c0,1.152-0.538,1.906-1.701,1.906c-1.152,0-1.69-0.754-1.69-1.906V88.33h0.786v0.571c0,0.678,0.28,1.087,0.883,1.087
						c0.614,0,0.883-0.398,0.883-1.162v-0.581c0-0.743-0.312-1.098-0.948-1.119h-0.452v-0.754h0.495
						c0.56-0.022,0.905-0.377,0.905-1.033v-0.345c0-0.775-0.269-1.173-0.883-1.173c-0.603,0-0.883,0.419-0.883,1.098v0.387h-0.786
						v-0.344c0-1.152,0.538-1.895,1.69-1.895C188.239,83.066,188.778,83.809,188.778,84.961z"/>
					<path style="fill:#263238;" d="M190.405,85.531v1.045h-0.808v-1.045H190.405z M190.405,89.633v1.045h-0.808v-1.045H190.405z"/>
					<path style="fill:#263238;" d="M192.106,86.21c0.237-0.409,0.613-0.625,1.12-0.625c0.969,0,1.399,0.711,1.399,1.787v1.475
						c0,1.152-0.548,1.906-1.7,1.906c-1.152,0-1.69-0.754-1.69-1.906v-0.506h0.786v0.56c0,0.678,0.28,1.087,0.883,1.087
						s0.883-0.409,0.883-1.087v-1.464c0-0.678-0.28-1.088-0.883-1.088c-0.463,0-0.775,0.259-0.85,0.808v0.173h-0.786l0.204-4.188
						h2.971v0.754h-2.218L192.106,86.21z"/>
					<path style="fill:#263238;" d="M198.814,84.95v0.14h-0.786v-0.193c0-0.679-0.28-1.076-0.893-1.076
						c-0.636,0-0.916,0.409-0.916,1.216v1.69c0.205-0.516,0.614-0.807,1.217-0.807c0.969,0,1.4,0.7,1.4,1.787v1.141
						c0,1.152-0.571,1.906-1.723,1.906c-1.163,0-1.734-0.754-1.734-1.906v-3.844c0-1.195,0.539-1.938,1.734-1.938
						C198.276,83.066,198.814,83.798,198.814,84.95z M196.22,87.771v1.13c0,0.678,0.28,1.087,0.894,1.087
						c0.603,0,0.893-0.409,0.893-1.087v-1.13c0-0.678-0.29-1.088-0.893-1.088C196.5,86.683,196.22,87.092,196.22,87.771z"/>
				</g>
				<g>
					<rect x="278.959" y="85.281" style="fill:#263238;" width="2.128" height="5.32"/>
					<rect x="281.796" y="84.215" style="fill:#263238;" width="2.128" height="6.385"/>
					<rect x="284.634" y="83.459" style="fill:#263238;" width="2.128" height="7.142"/>
					<rect x="287.471" y="82.143" style="fill:#263238;" width="2.128" height="8.458"/>
					<g>
						<g>
							<path style="fill:#263238;" d="M315.931,90.455h-12.767v-7.802h12.767V90.455z M303.873,89.745h11.349v-6.384h-11.349V89.745
								z"/>
						</g>
						<g>
							<rect x="304.937" y="84.134" style="fill:#263238;" width="6.738" height="4.84"/>
						</g>
						<g>
							<rect x="315.488" y="85.635" style="fill:#263238;" width="1.606" height="1.838"/>
						</g>
					</g>
					<g>
						<path style="fill:#263238;" d="M298.483,88.757c-0.083,0-0.168-0.021-0.244-0.067c-2.598-1.544-4.315-0.111-4.387-0.05
							c-0.198,0.172-0.499,0.15-0.671-0.048c-0.172-0.198-0.154-0.496,0.044-0.67c0.092-0.081,2.288-1.962,5.503-0.052
							c0.226,0.134,0.301,0.427,0.166,0.654C298.803,88.674,298.645,88.757,298.483,88.757z"/>
					</g>
					<g>
						<path style="fill:#263238;" d="M299.444,87.155c-0.083,0-0.168-0.021-0.244-0.067c-3.757-2.234-6.281-0.073-6.307-0.052
							c-0.197,0.175-0.498,0.155-0.672-0.043c-0.174-0.198-0.155-0.499,0.043-0.672c0.031-0.028,3.076-2.636,7.425-0.052
							c0.226,0.134,0.301,0.427,0.166,0.654C299.764,87.072,299.606,87.155,299.444,87.155z"/>
					</g>
					<g>
						<path style="fill:#263238;" d="M300.316,85.299c-0.083,0-0.168-0.021-0.244-0.067c-4.758-2.829-7.921-0.166-8.054-0.05
							c-0.198,0.172-0.5,0.151-0.672-0.046c-0.173-0.198-0.154-0.497,0.044-0.671c0.037-0.034,3.796-3.248,9.17-0.052
							c0.226,0.134,0.301,0.427,0.166,0.654C300.637,85.216,300.478,85.299,300.316,85.299z"/>
					</g>
					<g>
						<path style="fill:#263238;" d="M297.047,89.557c0,0.661-0.536,1.196-1.196,1.196c-0.661,0-1.196-0.535-1.196-1.196
							c0-0.661,0.536-1.196,1.196-1.196C296.512,88.36,297.047,88.896,297.047,89.557z"/>
					</g>
				</g>
			</g>
		</g>
	</g>
</g>
<g id="Gift_1">
	<g>
		
			<line style="fill:none;stroke:#263238;stroke-linecap:round;stroke-linejoin:round;stroke-miterlimit:10;" x1="92.481" y1="130.512" x2="104.143" y2="130.512"/>
		
			<line style="fill:none;stroke:#263238;stroke-linecap:round;stroke-linejoin:round;stroke-miterlimit:10;" x1="182.865" y1="130.512" x2="194.528" y2="130.512"/>
		
			<line style="fill:none;stroke:#263238;stroke-linecap:round;stroke-linejoin:round;stroke-miterlimit:10;" x1="104.143" y1="99.898" x2="110.704" y2="105.001"/>
		
			<line style="fill:none;stroke:#263238;stroke-linecap:round;stroke-linejoin:round;stroke-miterlimit:10;" x1="181.408" y1="99.898" x2="174.847" y2="105.001"/>
		
			<line style="fill:none;stroke:#263238;stroke-linecap:round;stroke-linejoin:round;stroke-miterlimit:10;" x1="130.384" y1="87.507" x2="131.113" y2="98.44"/>
		
			<line style="fill:none;stroke:#263238;stroke-linecap:round;stroke-linejoin:round;stroke-miterlimit:10;" x1="155.896" y1="88.965" x2="154.438" y2="98.44"/>
		<g>
			
				<rect x="109.499" y="116.857" style="fill:#FFFFFF;stroke:#263238;stroke-linecap:round;stroke-linejoin:round;stroke-miterlimit:10;" width="62.935" height="54.314"/>
			
				<rect x="121.002" y="116.857" style="fill:#92E3A9;stroke:#263238;stroke-linecap:round;stroke-linejoin:round;stroke-miterlimit:10;" width="11.871" height="54.314"/>
			
				<rect x="144.848" y="116.857" style="fill:#FFFFFF;stroke:#263238;stroke-linecap:round;stroke-linejoin:round;stroke-miterlimit:10;" width="27.586" height="54.314"/>
			<g>
				<path style="fill:#92E3A9;stroke:#263238;stroke-linecap:round;stroke-linejoin:round;stroke-miterlimit:10;" d="
					M136.527,112.429l-9.223-4.038c-0.249-0.035-0.473-0.041-0.684-0.035l-0.153-0.071h-9.286l7.236,3.393
					c0.036,0.507,0.12,1.023,0.233,1.515c0.426,1.846,2.158,2.753,3.292,3.159l0.057,0.285h0.937
					c0.01,0.002,0.025,0.005,0.025,0.005l16.068,0.216C145.029,116.857,140.906,114.643,136.527,112.429z"/>
				<g>
					<path style="fill:#92E3A9;stroke:#263238;stroke-linecap:round;stroke-linejoin:round;stroke-miterlimit:10;" d="
						M135.79,116.857c0,0-10.033-5.388-15.422-7.759c-5.388-2.371-5.604,1.293-4.957,4.095c0.647,2.802,4.311,3.448,4.311,3.448
						L135.79,116.857z"/>
				</g>
				<path style="fill:#92E3A9;stroke:#263238;stroke-linecap:round;stroke-linejoin:round;stroke-miterlimit:10;" d="
					M138.174,112.927h-3.533c-2.118,0-3.835,1.717-3.835,3.835l0,0h11.203l0,0C142.01,114.645,140.293,112.927,138.174,112.927z"/>
				<g>
					<path style="fill:#92E3A9;stroke:#263238;stroke-linecap:round;stroke-linejoin:round;stroke-miterlimit:10;" d="
						M160.233,108.391h-8.16l-1.063,4.038c-4.379,2.214-8.502,4.428-8.502,4.428l16.068-0.216c0,0,0.015-0.003,0.025-0.005h0.937
						l0.057-0.285c1.135-0.406,2.866-1.314,3.292-3.159C163.424,110.866,163.356,107.955,160.233,108.391z"/>
					<path style="fill:#92E3A9;stroke:#263238;stroke-linecap:round;stroke-linejoin:round;stroke-miterlimit:10;" d="
						M132.873,116.857c0,0,10.033-5.388,15.422-7.759c5.388-2.371,5.604,1.293,4.957,4.095c-0.647,2.802-4.311,3.448-4.311,3.448
						L132.873,116.857z"/>
				</g>
			</g>
		</g>
	</g>
</g>
<g id="Character_1_">
	<g>
		<g>
			<g>
				<path style="fill:#FFFFFF;stroke:#263238;stroke-linecap:round;stroke-linejoin:round;stroke-miterlimit:10;" d="
					M111.554,174.953c0,0-5.26-3.505-4.11-4.61c1.15-1.106,6.795,1.325,8.082,2.967c1.287,1.642,0.639,2.792-0.421,2.893
					C114.044,176.304,111.554,174.953,111.554,174.953z"/>
				<path style="fill:#FFFFFF;stroke:#263238;stroke-linecap:round;stroke-linejoin:round;stroke-miterlimit:10;" d="
					M115.992,170.925c0,0-8.152-4.239-6.195-0.326c1.956,3.913,6.847,7.5,8.804,8.478s12.716,0.652,12.716,0.652
					s-1.956-3.587-3.913-4.565C125.447,174.185,115.992,170.925,115.992,170.925z"/>
				<path style="fill:#FFFFFF;stroke:#263238;stroke-linecap:round;stroke-linejoin:round;stroke-miterlimit:10;" d="
					M123.817,170.925c0,0-10.76-5.869-11.086-3.587c-0.326,2.283,8.478,9.782,11.412,11.086c2.935,1.304,7.173,1.304,7.173,1.304
					L123.817,170.925z"/>
				<path style="fill:#FFFFFF;stroke:#263238;stroke-linecap:round;stroke-linejoin:round;stroke-miterlimit:10;" d="
					M166.201,180.97c0,0-3.913-9.13-6.847-10.434c-2.935-1.304-29.346,1.304-29.346,1.304s-12.717-10.434-11.738-5.217
					c0.978,5.217,9.13,11.412,11.412,13.043c2.282,1.63,19.238,0.978,19.238,0.978l5.217,4.891L166.201,180.97z"/>
			</g>
			<g>
				<path style="fill:#FFFFFF;stroke:#263238;stroke-linecap:round;stroke-linejoin:round;stroke-miterlimit:10;" d="
					M326.722,195.659c0,0-1.074,1.995-0.46,3.837c0.614,1.842,2.302,3.376,2.302,3.376l0.767,4.758l10.436,0.46l-4.297-15.962
					L326.722,195.659z"/>
				<g>
					<path style="fill:#263238;stroke:#263238;stroke-linecap:round;stroke-linejoin:round;stroke-miterlimit:10;" d="
						M319.627,165.977c0,0,4.354,28.299,5.007,30.041c0.653,1.742,5.66,3.701,7.401,2.83c1.741-0.871-1.306-5.007-1.306-5.007
						l0.871-27.211C331.6,166.63,324.199,163.8,319.627,165.977z"/>
					<path style="fill:#FFFFFF;stroke:#263238;stroke-linecap:round;stroke-linejoin:round;stroke-miterlimit:10;" d="
						M331.818,174.902c0,0-6.095-0.435-6.313,0.653c-0.218,1.088-0.218,4.789,0.871,5.225c1.089,0.435,8.49,1.088,9.796,0.653
						c1.306-0.435,2.83-3.048,1.524-5.007C336.389,174.467,331.818,174.902,331.818,174.902z"/>
					<path style="fill:#FFFFFF;stroke:#263238;stroke-linecap:round;stroke-linejoin:round;stroke-miterlimit:10;" d="
						M331.818,181.868c0,0-5.878,0-5.66,1.306c0.218,1.306-0.435,4.136,1.959,4.571c2.395,0.435,6.531,0.218,8.707-0.218
						c2.177-0.435,2.83-3.048,1.089-4.571C336.171,181.433,331.818,181.868,331.818,181.868z"/>
					<path style="fill:#FFFFFF;stroke:#263238;stroke-linecap:round;stroke-linejoin:round;stroke-miterlimit:10;" d="
						M322.372,183.543c0,0-0.749-5.487-2.52-5.333c-1.319,0.115-4.473,1.107-4.186,3.523c0.288,2.417,1.711,6.306,2.767,8.259
						c1.056,1.953,3.745,1.809,4.689-0.303S322.372,183.543,322.372,183.543z"/>
					<path style="fill:#FFFFFF;stroke:#263238;stroke-linecap:round;stroke-linejoin:round;stroke-miterlimit:10;" d="
						M332.149,187.744c0,0-5.318,0-5.121,1.256c0.197,1.256-0.394,3.977,1.773,4.396c2.167,0.419,5.909,0.209,7.879-0.209
						c1.97-0.419,2.56-2.93,0.985-4.396C336.089,187.325,332.149,187.744,332.149,187.744z"/>
					<path style="fill:#FFFFFF;stroke:#263238;stroke-linecap:round;stroke-linejoin:round;stroke-miterlimit:10;" d="
						M332.4,192.524c0,0-4.449,0-4.284,1.051c0.165,1.051-0.33,3.327,1.483,3.677c1.813,0.35,4.943,0.175,6.591-0.175
						c1.648-0.35,2.142-2.452,0.824-3.677C335.695,192.174,332.4,192.524,332.4,192.524z"/>
				</g>
				<g>
					<path style="fill:#FFFFFF;stroke:#263238;stroke-linecap:round;stroke-linejoin:round;stroke-miterlimit:10;" d="
						M318.415,137.339c-6.141-0.12-11.413,3.721-13.687,9.036c-0.768,1.796-1.191,3.77-1.191,5.847c0,3.612,1.284,6.925,3.425,9.498
						c2.727,3.293,7.202,5.646,11.452,5.384c13.063-0.803,47.3,17.534,47.3,17.534v-64.837
						C365.715,119.801,331.969,137.605,318.415,137.339z"/>
					<g>
						<path style="fill:#92E3A9;stroke:#263238;stroke-linecap:round;stroke-linejoin:round;stroke-miterlimit:10;" d="
							M315.759,152.751c0-7.057,3.93-13.195,9.72-16.347c-2.671,0.619-5.087,0.974-7.065,0.935
							c-6.141-0.12-11.413,3.721-13.687,9.036c-0.768,1.796-1.191,3.77-1.191,5.847c0,3.612,1.284,6.925,3.425,9.498
							c2.727,3.293,7.202,5.646,11.452,5.384c1.31-0.081,2.841,0.039,4.522,0.306C318.575,164.006,315.759,158.713,315.759,152.751z
							"/>
					</g>
					
						<ellipse transform="matrix(0.2365 -0.9716 0.9716 0.2365 131.3119 471.5531)" style="fill:#FFFFFF;stroke:#263238;stroke-linecap:round;stroke-linejoin:round;stroke-miterlimit:10;" cx="365.716" cy="152.22" rx="32.418" ry="32.418"/>
					<path style="fill:#A6A6A6;stroke:#263238;stroke-linecap:round;stroke-linejoin:round;stroke-miterlimit:10;" d="
						M393.345,152.222c0,15.26-12.373,27.633-27.633,27.633c-8.553,0-16.202-3.884-21.264-9.997
						c-3.975-4.779-6.36-10.929-6.36-17.636c0-3.856,0.786-7.521,2.211-10.856c4.222-9.869,14.009-16.777,25.413-16.777
						C380.973,124.589,393.345,136.962,393.345,152.222z"/>
					<path style="fill:#FFFFFF;stroke:#263238;stroke-linecap:round;stroke-linejoin:round;stroke-miterlimit:10;" d="
						M365.712,145.469v13.497l-21.264,10.893c-3.975-4.779-6.36-10.929-6.36-17.636c0-3.856,0.786-7.521,2.211-10.856
						L365.712,145.469z"/>
					<path style="fill:#FFFFFF;stroke:#263238;stroke-linecap:round;stroke-linejoin:round;stroke-miterlimit:10;" d="
						M372.464,152.22c0,3.727-3.021,6.749-6.749,6.749c-3.727,0-6.748-3.021-6.748-6.749c0-3.727,3.021-6.748,6.748-6.748
						C369.443,145.471,372.464,148.493,372.464,152.22z"/>
				</g>
			</g>
			<g>
				<polygon style="fill:#FFFFFF;stroke:#263238;stroke-linecap:round;stroke-linejoin:round;stroke-miterlimit:10;" points="
					327.143,208.055 326.065,203.525 340.084,201.8 339.768,208.091 				"/>
				<polygon style="fill:#FFFFFF;stroke:#263238;stroke-linecap:round;stroke-linejoin:round;stroke-miterlimit:10;" points="
					153.304,187.349 150.069,182.173 164.951,174.624 166.201,180.97 				"/>
				<path style="fill:#92E3A9;stroke:#263238;stroke-linecap:round;stroke-linejoin:round;stroke-miterlimit:10;" d="
					M243.748,179.855c0,0-23.915-2.657-26.041-1.594c-2.126,1.063-32.419,36.936-32.419,36.936l-18.601-37.201l-15.678,6.909
					c0,0,19.664,66.963,22.852,67.76c3.189,0.797,33.481-19.398,33.481-19.398l-1.86,26.572c0,0,5.58,22.321,30.293,26.573
					c24.712,4.252,39.327-14.881,42.516-21.258c3.189-6.377,6.112-15.678,6.112-15.678l11.426-33.747
					c0,0,32.153,26.307,39.327,29.495c7.174,3.189,13.818,6.112,14.615,4.517c0.797-1.594-7.174-44.11-7.174-44.11l-17.006,0.797
					l0.797,6.643c0,0-22.055-28.964-23.915-31.887c-1.86-2.923-7.44-2.392-14.083-4.252
					C281.746,175.072,243.748,179.855,243.748,179.855z"/>
				
					<line style="fill:none;stroke:#263238;stroke-linecap:round;stroke-linejoin:round;stroke-miterlimit:10;" x1="207.343" y1="233.266" x2="225.147" y2="219.98"/>
				
					<line style="fill:none;stroke:#263238;stroke-linecap:round;stroke-linejoin:round;stroke-miterlimit:10;" x1="218.77" y1="225.029" x2="227.804" y2="223.434"/>
				
					<line style="fill:none;stroke:#263238;stroke-linecap:round;stroke-linejoin:round;stroke-miterlimit:10;" x1="295.83" y1="215.728" x2="301.941" y2="194.204"/>
				
					<line style="fill:none;stroke:#263238;stroke-linecap:round;stroke-linejoin:round;stroke-miterlimit:10;" x1="298.221" y1="208.819" x2="304.865" y2="199.519"/>
				
					<line style="fill:none;stroke:#263238;stroke-linecap:round;stroke-linejoin:round;stroke-miterlimit:10;" x1="327.182" y1="228.542" x2="327.451" y2="233.798"/>
				
					<line style="fill:none;stroke:#263238;stroke-linecap:round;stroke-linejoin:round;stroke-miterlimit:10;" x1="326.388" y1="213.071" x2="326.874" y2="222.542"/>
				
					<line style="fill:none;stroke:#263238;stroke-linecap:round;stroke-linejoin:round;stroke-miterlimit:10;" x1="185.288" y1="215.197" x2="190.868" y2="226.889"/>
			</g>
			<path style="fill:#92E3A9;stroke:#263238;stroke-linecap:round;stroke-linejoin:round;stroke-miterlimit:10;" d="
				M252.782,176.932l-11.692,2.126c0,0-4.252,3.454-6.643,11.426c-2.391,7.972-3.189,14.881-3.189,14.881l10.098,0.531l-7.972,7.972
				c0,0,2.392,3.454,7.44,10.895c5.049,7.44,13.021,15.944,13.021,15.944l-14.881,19.132c0,0,18.069-3.986,29.23-16.209
				c11.16-12.223,17.804-30.558,17.804-30.558l-8.769-6.909l9.3-1.86c0,0,1.86-15.146-7.972-24.978
				C268.726,169.492,252.782,176.932,252.782,176.932z"/>
			<g>
				<path style="fill:#FFFFFF;stroke:#263238;stroke-linecap:round;stroke-linejoin:round;stroke-miterlimit:10;" d="
					M279.093,183.31c0,0-3.107,6.141-3.719,17.536c-0.484,8.9-5.154,20.241-9.275,28.264c-3.271,6.378-6.196,10.664-6.406,10.006
					c0,0-1.727-2.76-4.478-10.792c-0.667-1.928-1.389-4.167-2.166-6.753c-3.984-13.287-7.438-34.807-5.848-39.056
					c1.599-4.249,2.659-6.113,2.659-6.113C262.617,193.672,279.093,183.31,279.093,183.31z"/>
				<path style="fill:#263238;stroke:#263238;stroke-linecap:round;stroke-linejoin:round;stroke-miterlimit:10;" d="
					M262.882,219.715l3.217,9.394c-3.271,6.378-6.196,10.664-6.406,10.006c0,0-1.727-2.76-4.478-10.792l4.478-8.078l-4.441-8.307
					l5.236-5.245l7.173,7.173L262.882,219.715z"/>
				<polyline style="fill:none;stroke:#263238;stroke-linecap:round;stroke-linejoin:round;stroke-miterlimit:10;" points="
					251.719,215.728 260.488,206.694 271.17,216.767 				"/>
				<path style="fill:none;stroke:#263238;stroke-linecap:round;stroke-linejoin:round;stroke-miterlimit:10;" d="M249.859,176.401
					c0,0,0.266,7.972,3.189,15.678c2.923,7.706,7.44,14.615,7.44,14.615l12.489-17.804
					C272.977,188.89,259.426,190.219,249.859,176.401z"/>
			</g>
			<g>
				<path style="fill:#FFFFFF;stroke:#263238;stroke-linecap:round;stroke-linejoin:round;stroke-miterlimit:10;" d="
					M287.871,148.245c0,0,3.794-0.599,3.794,4.593s-2.197,11.582-2.197,11.582L287.871,148.245z"/>
				<g>
					<path style="fill:#FFFFFF;stroke:#263238;stroke-linecap:round;stroke-linejoin:round;stroke-miterlimit:10;" d="
						M286.529,129.102c0,0,2.657,24.181,2.923,31.355c0.266,7.175-0.531,13.552-2.923,16.741
						c-2.392,3.189-11.958,15.943-17.006,16.475c-5.049,0.531-10.629-2.126-12.755-3.986c-2.126-1.86-12.223-17.804-12.223-17.804
						s-7.706-0.531-9.566-10.629c-1.86-10.098,8.503-7.706,8.503-7.706s-5.58-8.769-6.112-17.272
						c-0.531-8.503-2.126-11.692,20.727-12.223C280.949,123.522,286.529,129.102,286.529,129.102z"/>
					<polyline style="fill:none;stroke:#263238;stroke-linecap:round;stroke-linejoin:round;stroke-miterlimit:10;" points="
						274.572,146.108 280.949,168.163 271.117,165.24 					"/>
					
						<line style="fill:none;stroke:#263238;stroke-linecap:round;stroke-linejoin:round;stroke-miterlimit:10;" x1="261.286" y1="162.583" x2="253.579" y2="164.178"/>
					<path style="fill:none;stroke:#263238;stroke-linecap:round;stroke-linejoin:round;stroke-miterlimit:10;" d="M257.565,163.912
						c0,0,1.86,7.175,10.363,8.503c8.503,1.329,12.755-0.266,12.755-0.266"/>
					<path style="fill:#263238;stroke:#263238;stroke-linecap:round;stroke-linejoin:round;stroke-miterlimit:10;" d="
						M259.691,168.163c0,0-0.266,13.286,4.517,13.818c4.783,0.531,3.72-9.566,3.72-9.566S263.411,171.352,259.691,168.163z"/>
					<path style="fill:#FFFFFF;stroke:#263238;stroke-linecap:round;stroke-linejoin:round;stroke-miterlimit:10;" d="
						M260.671,177.35c0.653,2.425,1.738,4.431,3.538,4.631c1.063,0.118,1.835-0.29,2.397-0.994
						C265.683,179.352,262.474,177.999,260.671,177.35z"/>
					<path style="fill:#263238;" d="M263.013,152.22c0,1.468-0.654,2.657-1.461,2.657c-0.807,0-1.462-1.19-1.462-2.657
						c0-1.467,0.654-2.657,1.462-2.657C262.358,149.563,263.013,150.752,263.013,152.22z"/>
					<path style="fill:#263238;" d="M280.816,149.828c0,1.468-0.654,2.657-1.462,2.657c-0.807,0-1.461-1.19-1.461-2.657
						c0-1.467,0.654-2.657,1.461-2.657C280.162,147.171,280.816,148.361,280.816,149.828z"/>
					<path style="fill:none;stroke:#263238;stroke-linecap:round;stroke-linejoin:round;stroke-miterlimit:10;" d="M256.768,147.703
						c0,0,3.454-4.517,10.098-3.72"/>
					<path style="fill:none;stroke:#263238;stroke-linecap:round;stroke-linejoin:round;stroke-miterlimit:10;" d="M275.369,142.92
						c0,0,3.454-6.377,9.035-3.189"/>
					<path style="fill:#263238;stroke:#263238;stroke-linecap:round;stroke-linejoin:round;stroke-miterlimit:10;" d="
						M258.363,129.633c0,0-8.237-1.329-6.377,1.063c1.86,2.392,6.112,5.314,3.986,7.175c-2.126,1.86-7.44,5.049-7.175,6.643
						c0.266,1.594,0.797,8.238,0,9.832c-0.797,1.594-2.657,1.86-4.517,1.594c-1.86-0.266-4.517-5.049-5.58-6.377
						s-10.629-10.895-8.769-18.601c1.86-7.706,21.79-13.818,21.79-13.818s12.755-14.349,21.258-14.615
						c8.503-0.266,5.315,7.706,5.049,8.503c-0.266,0.797,12.223-0.797,14.615,6.909c2.392,7.706,1.594,9.832-9.3,12.755
						C272.446,133.619,258.363,129.633,258.363,129.633z"/>
				</g>
			</g>
		</g>
		<polygon style="fill:#263238;" points="425.975,119.022 404.317,124.623 408.798,126.863 396.475,130.598 421.494,127.237 
			415.146,124.249 		"/>
		<polygon style="fill:#263238;" points="430.42,171.75 408.513,167.216 411.545,171.204 398.839,169.115 422.773,177.144 
			418.395,171.661 		"/>
		<polygon style="fill:#263238;" points="406.859,207.86 388.413,195.203 389.665,200.054 378.758,193.211 397.72,209.875 
			395.805,203.125 		"/>
	</g>
</g>
<g id="Text">
	<g>
		<path style="fill:#92E3A9;" d="M207.24,337.804v-30.618h7.334c2.066,0,3.811,0.245,5.235,0.737
			c1.423,0.491,2.507,1.329,3.251,2.514c0.743,1.184,1.115,2.797,1.115,4.838c0,1.235-0.113,2.344-0.34,3.327
			c-0.227,0.982-0.611,1.82-1.153,2.514c-0.542,0.693-1.292,1.229-2.249,1.606l4.271,15.082h-5.594l-3.705-14.024h-2.57v14.024
			H207.24z M212.835,320.265h1.739c1.083,0,1.947-0.157,2.589-0.473c0.643-0.315,1.102-0.818,1.379-1.512
			c0.277-0.693,0.416-1.582,0.416-2.665c0-1.537-0.284-2.69-0.851-3.459c-0.567-0.769-1.644-1.153-3.232-1.153h-2.041V320.265z"/>
		<path style="fill:#92E3A9;" d="M228.37,337.804v-30.618h12.853v3.931h-7.258v8.808h5.708v3.893h-5.708v10.131h7.333v3.855H228.37z
			"/>
		<path style="fill:#92E3A9;" d="M244.549,337.804v-30.618h12.588v3.855h-6.993v8.921h5.708v3.893h-5.708v13.948H244.549z"/>
		<path style="fill:#92E3A9;" d="M260.047,337.804v-30.618H272.9v3.931h-7.258v8.808h5.708v3.893h-5.708v10.131h7.333v3.855H260.047
			z"/>
		<path style="fill:#92E3A9;" d="M276.226,337.804v-30.618h7.333c2.066,0,3.811,0.245,5.235,0.737
			c1.424,0.491,2.508,1.329,3.251,2.514c0.743,1.184,1.115,2.797,1.115,4.838c0,1.235-0.113,2.344-0.34,3.327
			c-0.227,0.982-0.611,1.82-1.153,2.514c-0.542,0.693-1.292,1.229-2.249,1.606l4.272,15.082h-5.595l-3.704-14.024h-2.57v14.024
			H276.226z M281.82,320.265h1.738c1.084,0,1.947-0.157,2.59-0.473c0.643-0.315,1.102-0.818,1.38-1.512
			c0.276-0.693,0.416-1.582,0.416-2.665c0-1.537-0.284-2.69-0.851-3.459c-0.567-0.769-1.645-1.153-3.232-1.153h-2.041V320.265z"/>
		<path style="fill:#92E3A9;" d="M183.937,377.164l6.124-30.618h5.972l6.124,30.618h-5.178l-1.21-7.068h-5.33l-1.248,7.068H183.937z
			 M191.006,366.542h4.158l-2.079-12.852L191.006,366.542z"/>
		<path style="fill:#92E3A9;" d="M214.252,377.164v-30.618h12.588v3.855h-6.993v8.921h5.708v3.894h-5.708v13.948H214.252z"/>
		<path style="fill:#92E3A9;" d="M229.75,377.164v-30.618h7.333c2.066,0,3.811,0.245,5.235,0.737
			c1.424,0.491,2.508,1.329,3.251,2.514c0.743,1.185,1.115,2.797,1.115,4.838c0,1.235-0.113,2.344-0.34,3.327
			c-0.227,0.982-0.611,1.82-1.153,2.514c-0.542,0.693-1.292,1.228-2.249,1.607l4.271,15.082h-5.595l-3.704-14.024h-2.57v14.024
			H229.75z M235.345,359.625h1.739c1.083,0,1.947-0.157,2.589-0.473c0.643-0.315,1.102-0.818,1.38-1.512
			c0.276-0.693,0.416-1.582,0.416-2.665c0-1.537-0.284-2.69-0.851-3.459c-0.567-0.768-1.645-1.153-3.232-1.153h-2.041V359.625z"/>
		<path style="fill:#92E3A9;" d="M251.031,377.164v-30.618h5.518v30.618H251.031z"/>
		<path style="fill:#92E3A9;" d="M261.276,377.164v-30.618h12.853v3.931h-7.258v8.808h5.708v3.894h-5.708v10.131h7.333v3.856
			H261.276z"/>
		<path style="fill:#92E3A9;" d="M277.453,377.164v-30.618h3.894l7.446,17.464v-17.464h4.612v30.618H289.7l-7.484-18.295v18.295
			H277.453z"/>
		<path style="fill:#92E3A9;" d="M298.055,377.164v-30.618h7.22c2.495,0,4.441,0.34,5.841,1.021
			c1.398,0.681,2.394,1.727,2.986,3.138c0.592,1.411,0.888,3.2,0.888,5.367v11.189c0,2.218-0.296,4.064-0.888,5.537
			c-0.593,1.475-1.575,2.57-2.949,3.289c-1.373,0.718-3.257,1.077-5.65,1.077H298.055z M303.65,373.271h1.701
			c1.285,0,2.204-0.227,2.759-0.681c0.555-0.453,0.895-1.114,1.021-1.984c0.126-0.869,0.189-1.934,0.189-3.194v-11.718
			c0-1.234-0.089-2.23-0.265-2.986c-0.177-0.756-0.542-1.31-1.096-1.663c-0.555-0.353-1.45-0.529-2.685-0.529h-1.625V373.271z"/>
	</g>
</g>
</svg>
