<?xml version="1.0" encoding="iso-8859-1"?>
<!-- Uploaded to: SVG Repo, www.svgrepo.com, Generator: SVG Repo Mixer Tools -->
<svg version="1.1" id="Layer_1" xmlns="http://www.w3.org/2000/svg" xmlns:xlink="http://www.w3.org/1999/xlink" 
	 viewBox="0 0 512 512" xml:space="preserve">
<circle style="fill:#E0EEEF;" cx="256" cy="256" r="256"/>
<path style="fill:#BCD4E8;" d="M396.695,211.325l-18.97,8.307l-49.636-49.631L153.413,310.008l5.471,5.473l-2.358,1.029
	l181.862,181.865c81.498-27.699,144.55-95.276,165.816-179.54L396.695,211.325z"/>
<polygon style="fill:#0575A5;" points="396.695,211.325 328.09,211.325 328.09,291.036 156.526,291.036 156.526,316.511 
	421.117,316.511 421.117,260.324 "/>
<polygon style="fill:#E0EEEF;" points="390.597,222.103 351.291,222.103 351.291,262.208 409.664,262.208 "/>
<polygon style="fill:#E0EEEF;" points="351.291,222.103 351.291,262.208 409.664,262.208 "/>
<rect x="156.518" y="170.01" style="fill:#F28124;" width="171.571" height="121.037"/>
<rect x="156.518" y="170.01" style="fill:#FF9D4D;" width="171.571" height="60.511"/>
<g>
	<polygon style="fill:#FFFFFF;" points="265.59,250.9 248.033,239.741 248.033,244.152 156.526,244.152 156.526,257.656 
		248.033,257.656 248.033,262.057 	"/>
	<polygon style="fill:#FFFFFF;" points="265.59,210.125 248.033,198.973 248.033,203.379 156.526,203.379 156.526,216.881 
		248.033,216.881 248.033,221.279 	"/>
</g>
<path style="fill:#03628A;" d="M242.916,321.004c0.205-1.475,0.335-2.962,0.335-4.493c0-18.342-14.925-33.267-33.267-33.267
	c-18.355,0-33.272,14.925-33.272,33.267c0,1.531,0.131,3.018,0.34,4.493H242.916z"/>
<circle style="fill:#283A4D;" cx="209.971" cy="316.518" r="25.477"/>
<path style="fill:#F7F7F7;" d="M222.449,316.511c0,6.884-5.588,12.467-12.462,12.467c-6.889,0-12.475-5.583-12.475-12.467
	s5.583-12.472,12.475-12.472C216.86,304.038,222.449,309.624,222.449,316.511z"/>
<path style="fill:#03628A;" d="M407.496,321.004c0.205-1.475,0.338-2.962,0.338-4.493c0-18.342-14.917-33.267-33.267-33.267
	c-18.345,0-33.27,14.925-33.27,33.267c0,1.531,0.136,3.018,0.338,4.493H407.496z"/>
<circle style="fill:#283A4D;" cx="374.554" cy="316.518" r="25.477"/>
<circle style="fill:#F7F7F7;" cx="374.554" cy="316.518" r="12.472"/>
<g>
	<rect x="153.413" y="297.523" style="fill:#FF8E31;" width="6.236" height="12.472"/>
	<rect x="417.997" y="297.523" style="fill:#FF8E31;" width="6.234" height="12.472"/>
</g>
<rect x="419.558" y="269.261" style="fill:#FFFFFF;" width="3.11" height="21.821"/>
<g>
	<rect x="351.283" y="268.314" style="fill:#283A4D;" width="13.097" height="3.75"/>
	<rect x="119.296" y="207.795" style="fill:#283A4D;" width="31.521" height="4.672"/>
	<rect x="87.782" y="248.55" style="fill:#283A4D;" width="63.04" height="4.669"/>
</g>
</svg>