<?xml version="1.0" encoding="iso-8859-1"?>
<!-- Uploaded to: SVG Repo, www.svgrepo.com, Generator: SVG Repo Mixer Tools -->
<svg height="800px" width="800px" version="1.1" id="Layer_1" xmlns="http://www.w3.org/2000/svg" xmlns:xlink="http://www.w3.org/1999/xlink" 
	 viewBox="0 0 511.997 511.997" xml:space="preserve">
<g>
	<path style="fill:#FDC794;" d="M505.82,297.187c6.833-5.667,8.218-15.713,3.046-22.925c-11.061-15.404-20.233-19.068-58.659,1.139
		l-76.57,46.804c-23.402,12.438-84.807,8.828-111.298,8.828c0,0,62.517,4.237,37.57-33.006
		c-12.403-18.52-33.81-29.034-56.099-29.034h-34.436c-20.074,0-39.865-5.967-55.896-18.052
		c-37.402-28.195-109.338,27.127-109.338,27.127v158.897h123.586c17.629,0,35.24-1.333,52.665-3.981l115.059-17.496
		c3.928,0,7.742-0.459,11.432-1.28c0.062-0.009,0.115-0.018,0.177-0.027c9.313-1.306,17.823-6.02,24.62-12.526L505.82,297.187z"/>
	<polygon style="fill:#48A0DC;" points="0,463.446 44.138,463.446 44.138,251.584 0,251.584 	"/>
	<path style="fill:#C69666;" d="M153.477,250.943c16.022,12.085,35.822,18.044,55.896,18.044h34.428
		c22.298,0,43.697,10.514,56.108,29.043c18.9,28.213-12.394,32.618-28.681,33.095c29.458,0.468,81.32,2.295,102.4-8.916
		l23.614-14.433V84.013c0-9.834-7.971-17.805-17.814-17.805h-88.117v62.897c0,6.674-7.715,10.381-12.924,6.215l-31.214-24.973
		l-31.223,24.973c-5.199,4.167-12.915,0.459-12.915-6.215V66.208H114.91c-9.834,0-17.805,7.971-17.805,17.805v164.988
		C116.799,241.965,138.064,239.317,153.477,250.943"/>
	<path style="fill:#E8D5B2;" d="M278.391,135.318l-31.223-24.973l-31.214,24.973c-5.208,4.167-12.924,0.459-12.924-6.206V48.551
		h88.276v80.561C291.306,135.777,283.599,139.484,278.391,135.318"/>
	<path style="fill:#F9A671;" d="M141.241,366.342c-4.873,0-8.828-3.946-8.828-8.828c0-22.113,16.499-35.31,44.138-35.31H291.31
		c4.873,0,8.828,3.946,8.828,8.828s-3.955,8.828-8.828,8.828H176.552c-26.483,0-26.483,13.286-26.483,17.655
		C150.069,362.397,146.114,366.342,141.241,366.342"/>
</g>
</svg>