<?xml version="1.0" encoding="UTF-8" standalone="no"?>
<svg id="Layer_1" data-name="Layer 1" xmlns="http://www.w3.org/2000/svg" viewBox="0 0 512 512">
    <title>caduceus-flat</title>
    <path d="M0,256C0,114.62,114.62,0,256,0S512,114.63,512,256,397.37,512,256,512,0,397.38,0,256Z"
        fill="#047451" />
    <path
        d="M308.83,135.71c-8.72-7.17-14.81-5.46-23.57,10.15-5.76,10.33-15,11.57-20.63,11.26l0-2.06a19.88,19.88,0,1,0-17.37,0l0,2.1c-5.62.31-14.85-.93-20.62-11.26-8.74-15.61-14.83-17.31-23.53-10.15s-43.39,48.52-85.58,44.74c0,0,8.36,19,31.15,14.78,0,0,12.18,12.64,31.94,3.79,0,0,10.28,9.27,26.6.83,0,0,12.15,9.28,25.11,1.25,0,0,7.31,5.3,15.44,3.94l.52,47.74c-.92-.19-1.66-.39-2.65-.58,0,0-14.11-3-29.05-7.24-14.38-3.75-30.17-9.87-32.51-13a3.53,3.53,0,0,1,.95-.54,24.51,24.51,0,0,1,6-1.91,136.24,136.24,0,0,1,19.64-1.92c14.29-.51,16.87.11,17.13.15,0-.45,8.26,1,10.54-7.44-.09,0,.17-.4,0-.58-.47-5.8-4.92-6.07-8.56-6.75-5.9-.78-2.82-.46-10.79-.38-13.08,1-53.41-2.29-58.48,18.94a9.49,9.49,0,0,1-.11,1.5c1.69,18.47,39.95,26.5,67.67,32-9.41,6.44-14.43,14.82-16.45,25.65-1,11.55,8.21,22.55,29.53,34.83-16.18,11.45-26.82,22.22-26,35.21,1.52,10.6,10.87,24.76,29.25,33.7.05,0,.07,0,.12,0h0S231.87,374.76,231,364c-.85-6.23,2.71-15.54,18.37-26.67l.44,39.24h.07a5.93,5.93,0,1,0,11.86,0h0l.52-38.22C276.72,349.06,280,358,279.15,364c-.85,10.74-13.68,30.38-13.68,30.38h0a.17.17,0,0,0,.11,0c18.39-8.94,27.76-23.08,29.23-33.68.87-13-9.75-23.77-25.91-35.19,21.26-12.29,30.46-23.3,29.52-34.85-2-10.83-7-19.21-16.45-25.65,27.73-5.52,66-13.55,67.67-32a10,10,0,0,1-.11-1.5c-5.07-21.22-45.42-18-58.5-18.94-8-.09-4.87-.4-10.77.37-3.66.67-8.11.94-8.58,6.74-.14.18.11.54,0,.6,2.28,8.42,10.52,7,10.54,7.44.24,0,2.81-.66,17.14-.15A131.75,131.75,0,0,1,319,229.49a25.11,25.11,0,0,1,6.06,1.9,3.61,3.61,0,0,1,1,.57c-2.32,3.17-18.09,9.28-32.49,13.06-14.94,4.14-29.09,7.17-29.12,7.19-.37.07-.65.14-1,.2L264,205c8.17,1.44,15.56-3.91,15.56-3.91,12.91,8,25.08-1.25,25.08-1.25,16.37,8.43,26.6-.83,26.6-.83,19.75,8.84,31.94-3.79,31.94-3.79,22.83,4.2,31.22-14.78,31.22-14.78C352.2,184.24,317.59,142.89,308.83,135.71ZM230.11,294.33c.28-4.17-1.14-14.11,18.54-21.34l.44,39.46c-3.8-2.42-7.73-4.89-11.73-7.43C232.08,301.73,229.6,297.32,230.11,294.33ZM272.81,305c-3.47,2.23-6.85,4.33-10.17,6.43l.51-37.83c18,7.17,16.62,16.65,16.93,20.73C280.56,297.32,278.09,301.73,272.81,305Z"
        fill="#fff" />
</svg>